<?xml version="1.0" standalone="no"?>
<!DOCTYPE svg PUBLIC "-//W3C//DTD SVG 1.1//EN" "http://www.w3.org/Graphics/SVG/1.1/DTD/svg11.dtd" >
<svg xmlns="http://www.w3.org/2000/svg" xmlns:xlink="http://www.w3.org/1999/xlink" version="1.1">
<metadata>
Created by FontForge 20170731 at Mon Jul 13 13:58:42 2020
 By Aleksey,,,
Copyright (c) 2009 by Eduardo Manso. All rights reserved.
</metadata>
<defs>
<font id="Geogrotesque-Light" horiz-adv-x="1062" >
  <font-face 
    font-family="Geogrotesque Lg"
    font-weight="300"
    font-stretch="normal"
    units-per-em="2048"
    panose-1="2 0 0 0 0 0 0 0 0 0"
    ascent="1536"
    descent="-512"
    x-height="1010"
    cap-height="1393"
    bbox="-123 -446 2908 1974"
    underline-thickness="102"
    underline-position="-307"
    unicode-range="U+0020-FB04"
  />
<missing-glyph horiz-adv-x="1765" 
d="M1391 193q-103 -102 -235.5 -155.5t-274.5 -53.5q-139 0 -271 54t-233 155q-103 101 -157 233t-54 272q0 139 54 271t157 235q101 101 233 155t271 54q140 0 274.5 -54t235.5 -155q102 -102 156.5 -235t54.5 -271q0 -140 -54.5 -271.5t-156.5 -233.5zM1366 217
q99 99 151 224t52 257t-52 257.5t-151 224.5q-98 98 -224 149t-261 51q-133 0 -257.5 -51t-222.5 -149q-100 -100 -151 -224.5t-51 -257.5t51.5 -258t150.5 -223q98 -98 223 -149.5t257 -51.5q135 0 261 51.5t224 149.5zM1135 385l-252 252l-250 -250q-10 -10 -19 -10
q-6 0 -16 10l-29 29q-8 8 -8 16q0 11 8 19l250 249l-250 252q-10 10 -10 17q0 8 10 18l29 27q10 10 18 10q9 0 17 -8l250 -252l254 252q8 8 16 8q10 0 18 -8l29 -29q8 -8 8 -18q0 -9 -8 -17l-252 -252l250 -251q10 -10 10 -19q0 -6 -10 -16l-29 -29q-8 -8 -18 -8q-8 0 -16 8
z" />
    <glyph glyph-name="ff" unicode="ff" horiz-adv-x="1243" 
d="M205 1006h20v182q0 252 367 252h10q25 0 25 -25v-43q0 -24 -25 -24h-10q-142 0 -201 -44.5t-59 -125.5v-172h487v186q0 120 85 186t282 66h10q25 0 25 -25v-41q0 -26 -25 -26h-10q-142 0 -201 -44.5t-59 -125.5v-176h237q25 0 25 -23v-41q0 -24 -25 -24h-237v-893
q0 -25 -25 -25h-57q-25 0 -25 25v893h-487v-893q0 -25 -23 -25h-59q-25 0 -25 25v893h-133q-24 0 -24 24v33q0 24 24 24z" />
    <glyph glyph-name="fi" unicode="fi" horiz-adv-x="1093" 
d="M920 981v-956q0 -25 -23 -25h-59q-25 0 -25 25v893h-487v-893q0 -25 -25 -25h-59q-23 0 -23 25v893h-133q-25 0 -25 24v33q0 24 25 24l113 7h20v174q0 252 367 252h262q24 0 24 -25v-43q0 -25 -24 -25h-262q-142 0 -201 -44.5t-59 -125.5v-163h569q25 0 25 -25z" />
    <glyph glyph-name="fl" unicode="fl" horiz-adv-x="1093" 
d="M920 1407v-1382q0 -25 -23 -25h-59q-25 0 -25 25v1314h-227q-142 0 -201 -44.5t-59 -125.5v-163h237q25 0 25 -23v-41q0 -24 -25 -24h-237v-893q0 -25 -25 -25h-59q-23 0 -23 25v893h-133q-25 0 -25 24v33q0 24 25 24l113 7h20v174q0 252 367 252h309q25 0 25 -25z" />
    <glyph glyph-name="ffi" unicode="ffi" horiz-adv-x="1693" 
d="M205 1006h20v182q0 252 367 252h10q25 0 25 -25v-43q0 -24 -25 -24h-10q-142 0 -201 -44.5t-59 -125.5v-172h487v174q0 252 367 252h262q27 0 27 -25v-43q0 -25 -27 -25h-262q-142 0 -201 -44.5t-59 -125.5v-163h569q27 0 27 -25v-956q0 -25 -23 -25h-59q-25 0 -25 25
v893h-489v-893q0 -25 -23 -25h-59q-25 0 -25 25v893h-487v-893q0 -25 -23 -25h-59q-25 0 -25 25v893h-133q-24 0 -24 24v33q0 24 24 24z" />
    <glyph glyph-name="ffl" unicode="ffl" horiz-adv-x="1693" 
d="M205 1006h20v182q0 252 367 252h10q25 0 25 -25v-43q0 -24 -25 -24h-10q-142 0 -201 -44.5t-59 -125.5v-172h487v174q0 252 369 252h307q27 0 27 -25v-1382q0 -25 -23 -25h-59q-25 0 -25 25v1314h-227q-143 0 -201.5 -44t-58.5 -126v-163h237q25 0 25 -23v-41
q0 -24 -25 -24h-237v-893q0 -25 -25 -25h-59q-25 0 -25 25v893h-487v-893q0 -25 -23 -25h-59q-25 0 -25 25v893h-133q-24 0 -24 24v33q0 24 24 24z" />
    <glyph glyph-name=".notdef" horiz-adv-x="1765" 
d="M1391 193q-103 -102 -235.5 -155.5t-274.5 -53.5q-139 0 -271 54t-233 155q-103 101 -157 233t-54 272q0 139 54 271t157 235q101 101 233 155t271 54q140 0 274.5 -54t235.5 -155q102 -102 156.5 -235t54.5 -271q0 -140 -54.5 -271.5t-156.5 -233.5zM1366 217
q99 99 151 224t52 257t-52 257.5t-151 224.5q-98 98 -224 149t-261 51q-133 0 -257.5 -51t-222.5 -149q-100 -100 -151 -224.5t-51 -257.5t51.5 -258t150.5 -223q98 -98 223 -149.5t257 -51.5q135 0 261 51.5t224 149.5zM1135 385l-252 252l-250 -250q-10 -10 -19 -10
q-6 0 -16 10l-29 29q-8 8 -8 16q0 11 8 19l250 249l-250 252q-10 10 -10 17q0 8 10 18l29 27q10 10 18 10q9 0 17 -8l250 -252l254 252q8 8 16 8q10 0 18 -8l29 -29q8 -8 8 -18q0 -9 -8 -17l-252 -252l250 -251q10 -10 10 -19q0 -6 -10 -16l-29 -29q-8 -8 -18 -8q-8 0 -16 8
z" />
    <glyph glyph-name=".null" horiz-adv-x="0" 
 />
    <glyph glyph-name="nonmarkingreturn" horiz-adv-x="682" 
 />
    <glyph glyph-name="space" unicode=" " horiz-adv-x="475" 
 />
    <glyph glyph-name="exclam" unicode="!" horiz-adv-x="507" 
d="M309 799l-10 -453q0 -24 -25 -24h-43q-22 0 -22 24l-12 453v569q0 25 24 25h66q22 0 22 -25v-569zM307 182v-157q0 -25 -22 -25h-62q-24 0 -24 25v157q0 25 24 25h62q22 0 22 -25z" />
    <glyph glyph-name="quotedbl" unicode="&#x22;" horiz-adv-x="716" 
d="M281 1368l-11 -354q0 -27 -22 -27h-41q-25 0 -25 27l-8 354q0 25 25 25h59q23 0 23 -25zM543 1368l-8 -354q0 -27 -25 -27h-41q-23 0 -23 27l-10 354q0 25 23 25h59q25 0 25 -25z" />
    <glyph glyph-name="numbersign" unicode="#" horiz-adv-x="1323" 
d="M203 553h174l67 244h-159q-25 0 -25 24v33q0 25 25 25h182l57 206q7 25 31 25h45q13 0 17 -7.5t1 -17.5l-57 -206h328l59 206q7 25 29 25h45q13 0 17 -7.5t1 -17.5l-59 -206h139q25 0 25 -25v-33q0 -24 -25 -24h-162l-67 -244h147q23 0 23 -25v-32q0 -25 -23 -25h-170
l-55 -203q-6 -24 -31 -24h-47q-23 0 -16 24l57 203h-330l-57 -203q-6 -24 -29 -24h-45q-25 0 -18 24l57 203h-151q-25 0 -25 25v32q0 25 25 25zM537 797l-68 -244h328l69 244h-329z" />
    <glyph glyph-name="dollar" unicode="$" horiz-adv-x="1079" 
d="M784 930v63q0 67 -61 104.5t-186 37.5q-124 0 -184 -37.5t-60 -104.5v-63q0 -48 35.5 -81t79.5 -46l319 -101q77 -25 124.5 -72t47.5 -114v-121q0 -88 -74.5 -148t-224.5 -71v-151q0 -25 -22 -25h-60q-24 0 -24 25v149q-159 9 -237.5 69t-78.5 152v58q0 22 23 22h55
q20 0 20 -22v-54q0 -66 67 -104.5t194 -38.5q129 0 196.5 38.5t67.5 104.5v93q0 47 -34 75.5t-95 48.5l-320 101q-61 20 -110 72t-49 122v82q0 92 73 153t228 68v154q0 25 24 25h60q22 0 22 -25v-154q145 -11 215 -71.5t70 -149.5v-63q0 -23 -25 -23h-53q-23 0 -23 23z" />
    <glyph glyph-name="percent" unicode="%" horiz-adv-x="1538" 
d="M178 993v228q0 89 61.5 136.5t204.5 47.5q142 0 203.5 -47.5t61.5 -136.5v-228q0 -89 -61.5 -137.5t-203.5 -48.5q-143 0 -204.5 48.5t-61.5 137.5zM616 995v224q0 112 -172 112q-174 0 -174 -112v-224q0 -54 39.5 -82t134.5 -28q94 0 133 28t39 82zM1268 170v223
q0 111 -174 111t-174 -111v-223q0 -113 174 -113t174 113zM829 168v227q0 187 265 187q143 0 204.5 -49t61.5 -138v-227q0 -89 -61.5 -136.5t-204.5 -47.5q-142 0 -203.5 47.5t-61.5 136.5zM1118 1368l-610 -1343q-11 -25 -35 -25h-53q-10 0 -12 9t2 16l612 1343
q11 25 33 25h51q10 0 13.5 -8t-1.5 -17z" />
    <glyph glyph-name="ampersand" unicode="&#x26;" horiz-adv-x="1361" 
d="M598 788h651q25 0 25 -24v-45q0 -23 -25 -23h-162v-428q0 -130 -106.5 -207t-341.5 -77q-237 0 -343 76t-106 206v240q0 98 41 155t154 82q-104 25 -142 80.5t-38 151.5v151q0 64 17.5 112.5t59 88.5t120 61t192.5 21t192.5 -21.5t121 -62t60 -89t17.5 -112.5v-39
q0 -24 -22 -24h-60q-24 0 -24 24v27q0 101 -62.5 153t-222.5 52t-221.5 -52t-61.5 -153v-123q0 -51 11.5 -85t41.5 -62t88 -41t146 -13zM639 76q176 0 259 54t83 151v415h-397q-87 0 -144.5 -13.5t-87.5 -41.5t-41.5 -62t-11.5 -85v-213q0 -205 340 -205z" />
    <glyph glyph-name="quotesingle" unicode="'" horiz-adv-x="454" 
d="M281 1368l-11 -354q0 -27 -22 -27h-41q-25 0 -25 27l-8 354q0 25 25 25h59q23 0 23 -25z" />
    <glyph glyph-name="parenleft" unicode="(" horiz-adv-x="722" 
d="M190 -195v1393q0 252 367 252h12q25 0 25 -25v-43q0 -24 -25 -24h-12q-142 0 -199 -44t-57 -126v-1372q0 -82 57 -126t199 -44h12q25 0 25 -25v-43q0 -24 -25 -24h-12q-367 0 -367 251z" />
    <glyph glyph-name="parenright" unicode=")" horiz-adv-x="722" 
d="M530 1198v-1393q0 -251 -364 -251h-10q-25 0 -25 24v43q0 25 25 25h10q141 0 198.5 44t57.5 126v1372q0 82 -57.5 126t-198.5 44h-10q-25 0 -25 24v43q0 25 25 25h10q364 0 364 -252z" />
    <glyph glyph-name="asterisk" unicode="*" horiz-adv-x="1028" 
d="M498 754q-23 0 -23 26l8 269l-231 -150q-23 -16 -35 8l-14 29q-12 22 10 33l233 133l-233 135q-22 11 -10 33l14 26q12 24 35 11l231 -152l-8 275q0 24 25 24h30q23 0 23 -24l-8 -275l231 152q22 16 35 -11l14 -26q12 -21 -10 -33l-235 -135l235 -133q20 -10 10 -33
l-14 -29q-11 -23 -35 -8l-229 148l6 -267q0 -26 -23 -26h-32z" />
    <glyph glyph-name="plus" unicode="+" horiz-adv-x="1196" 
d="M551 295v354h-352q-25 0 -25 23v45q0 24 25 24h352v355q0 24 22 24h43q25 0 25 -24v-355h358q23 0 23 -24v-45q0 -23 -23 -23h-358v-354q0 -25 -25 -25h-43q-22 0 -22 25z" />
    <glyph glyph-name="comma" unicode="," horiz-adv-x="434" 
d="M164 61v121q0 25 22 25h62q24 0 24 -25v-125q0 -176 -180 -233q-23 -7 -31 14l-16 43q-9 21 14 31q58 27 81.5 61.5t23.5 87.5z" />
    <glyph glyph-name="hyphen" unicode="-" horiz-adv-x="946" 
d="M199 637h549q24 0 24 -23v-43q0 -24 -24 -24h-549q-25 0 -25 24v43q0 23 25 23z" />
    <glyph glyph-name="period" unicode="." horiz-adv-x="436" 
d="M272 182v-157q0 -25 -24 -25h-60q-24 0 -24 25v157q0 25 24 25h60q24 0 24 -25z" />
    <glyph glyph-name="slash" unicode="/" horiz-adv-x="757" 
d="M662 1407l-451 -1686q-6 -24 -31 -24h-65q-12 0 -17 6.5t-2 17.5l451 1686q6 25 31 25h65q25 0 19 -25z" />
    <glyph glyph-name="zero" unicode="0" horiz-adv-x="1097" 
d="M141 272v848q0 64 19 113.5t63 90.5t126.5 63t199.5 22q95 0 167 -15t117 -40.5t73 -63t39 -78.5t11 -92v-848q0 -51 -11 -92t-39 -78.5t-73 -62.5t-117 -40t-167 -15t-167 15t-117 40t-73.5 62.5t-39.5 78.5t-11 92zM848 289v815q0 50 -13.5 86.5t-45.5 65.5t-92 44
t-148 15q-87 0 -146.5 -15t-91.5 -44t-45.5 -65.5t-13.5 -86.5v-815q0 -50 13.5 -86.5t45.5 -65.5t91.5 -44t146.5 -15q88 0 148 15t92 44t45.5 65.5t13.5 86.5z" />
    <glyph glyph-name="one" unicode="1" horiz-adv-x="1097" 
d="M180 1286l426 111q9 2 16 -3.5t7 -17.5v-1282h340q22 0 22 -24v-45q0 -25 -22 -25h-791q-24 0 -24 25v45q0 24 24 24h342v1182l-340 -88q-24 -7 -24 20v47q0 24 24 31z" />
    <glyph glyph-name="two" unicode="2" horiz-adv-x="1097" 
d="M289 94h657q25 0 25 -24v-45q0 -25 -25 -25h-743q-23 0 -23 25v399q0 131 176 186l371 111q19 6 37.5 15.5t41 26.5t36.5 45.5t14 63.5v234q0 40 -7.5 70.5t-27.5 57.5t-52.5 45t-85 28t-122.5 10q-87 0 -146 -15t-90.5 -44.5t-44 -65.5t-12.5 -86v-100q0 -27 -22 -27
h-60q-24 0 -24 27v114q0 51 10 92t37 78.5t71 63t115 40.5t166 15t167 -15t116.5 -40.5t72 -63t38 -78.5t10.5 -92v-246q0 -44 -13.5 -82.5t-33 -63.5t-45.5 -44.5t-47.5 -29t-41.5 -15.5l-350 -100q-22 -6 -42.5 -14.5t-46 -25t-41 -43.5t-15.5 -61v-301z" />
    <glyph glyph-name="three" unicode="3" horiz-adv-x="1097" 
d="M356 788h179q87 0 144.5 13t87.5 41t41 62t11 85v123q0 49 -12.5 84.5t-43 64t-87 42.5t-139.5 14q-160 0 -222.5 -52t-62.5 -153v-27q0 -24 -25 -24h-57q-25 0 -25 24v39q0 51 10.5 91.5t37.5 77.5t71 62t113.5 39.5t161.5 14.5q114 0 192.5 -21t120 -61t59 -88.5
t17.5 -112.5v-151q0 -95 -39.5 -151t-143.5 -81q113 -25 154 -82t41 -155v-240q0 -64 -18.5 -112.5t-62.5 -88t-124.5 -60.5t-195.5 -21t-196 21.5t-125.5 61.5t-63.5 88.5t-19 112.5v39q0 25 25 25h59q23 0 23 -25v-26q0 -100 66.5 -152.5t230.5 -52.5q162 0 227 52.5
t65 152.5v213q0 51 -11 85t-40.5 62t-87 41.5t-145.5 13.5h-191q-24 0 -24 23v45q0 24 24 24z" />
    <glyph glyph-name="four" unicode="4" horiz-adv-x="1097" 
d="M520 1368l-301 -815h588v815q0 25 24 25h62q25 0 25 -25v-1343q0 -25 -25 -25h-62q-24 0 -24 25v434h-678q-25 0 -25 24v43q0 8 9 35l299 807q9 25 30 25h62q12 0 16.5 -7.5t-0.5 -17.5z" />
    <glyph glyph-name="five" unicode="5" horiz-adv-x="1097" 
d="M217 1393h666q24 0 24 -25v-45q0 -25 -24 -25h-580v-460h244q192 0 292.5 -68t100.5 -192v-310q0 -65 -16.5 -113.5t-57.5 -88.5t-119.5 -61t-193.5 -21t-193.5 21t-119.5 61t-57.5 88.5t-16.5 113.5v39q0 25 24 25h58q24 0 24 -25v-26q0 -51 11 -85.5t40.5 -63
t86.5 -42.5t143 -14t142.5 14t85.5 42.5t39.5 63t10.5 85.5v282q0 182 -286 182h-328q-22 0 -22 25v598q0 25 22 25z" />
    <glyph glyph-name="six" unicode="6" horiz-adv-x="1097" 
d="M154 272v861q0 276 395 276q393 0 393 -276v-33q0 -25 -24 -25h-60q-22 0 -22 25v20q0 41 -12 73t-41.5 61.5t-89 46t-144.5 16.5t-144 -15.5t-89 -44.5t-42 -61.5t-12 -75.5v-409q64 112 303 112q114 0 192.5 -21.5t121 -62.5t60 -90t17.5 -114v-263q0 -51 -10 -91.5
t-37.5 -78.5t-71.5 -63t-115.5 -40t-166.5 -15t-166 15t-115.5 40t-71.5 63t-37.5 78.5t-10.5 91.5zM848 285v237q0 50 -12.5 86t-43.5 65t-90 43.5t-147 14.5q-160 0 -226.5 -49.5t-66.5 -142.5v-254q0 -49 12.5 -85t44 -65t90.5 -44t146 -15t146.5 15t90.5 44t43.5 64.5
t12.5 85.5z" />
    <glyph glyph-name="seven" unicode="7" horiz-adv-x="1097" 
d="M137 1393h828q22 0 22 -25v-45q0 -11 -4 -23l-532 -1275q-11 -25 -31 -25h-72q-27 0 -18 25l534 1273h-727q-24 0 -24 25v45q0 25 24 25z" />
    <glyph glyph-name="eight" unicode="8" horiz-adv-x="1097" 
d="M164 987v133q0 52 8.5 92t33.5 78.5t67 63.5t111.5 40t164.5 15t165 -15t111.5 -40t66.5 -63.5t33.5 -78.5t8.5 -92v-133q0 -98 -42 -157.5t-153 -84.5q116 -25 162.5 -85t46.5 -156v-232q0 -65 -17 -113.5t-59.5 -90t-123.5 -63t-199 -21.5q-117 0 -198 21.5t-123.5 63
t-60 90t-17.5 113.5v232q0 97 46 156.5t162 84.5q-111 25 -152.5 84.5t-41.5 157.5zM842 285v204q0 50 -12.5 86t-43.5 65.5t-90 44.5t-147 15q-87 0 -145.5 -15t-89.5 -44.5t-43.5 -65.5t-12.5 -86v-204q0 -50 12.5 -85.5t43.5 -64.5t89.5 -44t145.5 -15t146.5 15t90.5 44
t43.5 64.5t12.5 85.5zM827 1001v107q0 51 -10.5 85.5t-39 64.5t-85 44.5t-143.5 14.5q-86 0 -142.5 -14.5t-85 -44.5t-39 -64.5t-10.5 -85.5v-107q0 -51 10.5 -86t39 -65t85 -44.5t142.5 -14.5q87 0 143.5 14.5t85 44.5t39 65t10.5 86z" />
    <glyph glyph-name="nine" unicode="9" horiz-adv-x="1097" 
d="M944 1120v-860q0 -276 -395 -276q-391 0 -391 276v33q0 24 24 24h60q22 0 22 -24v-21q0 -41 11.5 -73t41 -61.5t88.5 -45.5t144 -16q86 0 145 15.5t88.5 44t41.5 61t12 75.5v408q-67 -111 -304 -111q-113 0 -191.5 21.5t-121 62.5t-60.5 90.5t-18 114.5v262q0 51 10.5 92
t38 78.5t72 63t116.5 40.5t167 15t166 -15t115 -40.5t71 -63t37 -78.5t10 -92zM836 1108q0 50 -12.5 85.5t-43.5 64.5t-89.5 44t-145.5 15t-146.5 -15t-91 -44t-44.5 -65t-13 -85v-238q0 -50 12.5 -85.5t44.5 -64.5t91 -43.5t147 -14.5q160 0 225.5 50.5t65.5 145.5v250z
" />
    <glyph glyph-name="colon" unicode=":" horiz-adv-x="436" 
d="M272 182v-157q0 -25 -24 -25h-60q-24 0 -24 25v157q0 25 24 25h60q24 0 24 -25zM272 983v-158q0 -24 -24 -24h-60q-24 0 -24 24v158q0 27 24 27h60q24 0 24 -27z" />
    <glyph glyph-name="semicolon" unicode=";" horiz-adv-x="540" 
d="M379 983v-158q0 -24 -25 -24h-59q-25 0 -25 24v158q0 27 25 27h59q25 0 25 -27zM270 61v121q0 25 25 25h59q25 0 25 -25v-125q0 -86 -43 -143t-137 -90q-23 -7 -31 14l-16 43q-9 21 14 31q59 27 81.5 61t22.5 88z" />
    <glyph glyph-name="less" unicode="&#x3c;" horiz-adv-x="1114" 
d="M915 979l-634 -283l634 -280q25 -9 25 -29v-59q0 -13 -7 -19t-18 0l-718 328q-23 10 -23 29v63q0 19 23 29l718 327q10 4 17.5 -1t7.5 -17v-59q0 -20 -25 -29z" />
    <glyph glyph-name="equal" unicode="=" horiz-adv-x="1208" 
d="M199 905h811q24 0 24 -24v-43q0 -25 -24 -25h-811q-25 0 -25 25v43q0 24 25 24zM199 555h811q24 0 24 -25v-43q0 -24 -24 -24h-811q-25 0 -25 24v43q0 25 25 25z" />
    <glyph glyph-name="greater" unicode="&#x3e;" horiz-adv-x="1112" 
d="M834 696l-635 283q-25 9 -25 27v61q0 14 6.5 20t18.5 0l719 -329q22 -9 22 -27v-67q0 -18 -22 -27l-719 -330q-12 -6 -18.5 0.5t-6.5 20.5v59q0 20 25 29z" />
    <glyph glyph-name="question" unicode="?" horiz-adv-x="1163" 
d="M508 346v166q0 129 137 199l131 65q17 9 33 20.5t35 32t31 50.5t12 65v162q0 102 -69 156.5t-238 54.5q-168 0 -237 -54.5t-69 -156.5v-100q0 -27 -24 -27h-57q-25 0 -25 27v114q0 64 19.5 113.5t64.5 90.5t127.5 63t200.5 22t201.5 -22t129 -63t65 -90.5t19.5 -113.5
v-172q0 -169 -164 -252l-106 -53q-107 -55 -107 -154v-143q0 -24 -24 -24h-62q-24 0 -24 24zM618 182v-157q0 -25 -24 -25h-62q-24 0 -24 25v157q0 25 24 25h62q24 0 24 -25z" />
    <glyph glyph-name="at" unicode="@" horiz-adv-x="1687" 
d="M1225 -231h-381q-154 0 -270 17.5t-187 46.5t-114.5 72.5t-59.5 89.5t-16 103v834q0 58 16 104t59.5 89.5t114.5 72.5t186.5 46.5t270.5 17.5q154 0 269.5 -17.5t186.5 -46.5t115 -72.5t60 -89.5t16 -104v-613q0 -251 -236 -251q-167 0 -208 133q-156 -133 -332 -133
q-236 0 -236 208q0 27 2 41l37 369q13 122 77.5 188t197.5 66q152 0 294 -121l13 80q3 25 26 25h52q23 0 20 -25l-57 -563q-8 -84 21.5 -135t99.5 -51q124 0 124 182v598q0 57 -25 99t-84.5 76t-168 51.5t-264.5 17.5q-126 0 -221 -12t-155.5 -33t-98.5 -52.5t-53 -67
t-15 -79.5v-828q0 -57 25.5 -99t85 -75.5t168 -51t264.5 -17.5h381q24 0 24 -25v-41q0 -24 -24 -24zM621 670l-35 -338q0 -4 -1 -12.5t-1 -12.5q0 -64 41.5 -101.5t126.5 -37.5q130 0 280 108q0 23 2 37l43 416q-27 23 -42 34.5t-52 34.5t-78.5 34.5t-87.5 11.5
q-99 0 -143 -47t-53 -127z" />
    <glyph glyph-name="A" unicode="A" 
d="M500 1393h63q25 0 31 -25l416 -1343q9 -25 -19 -25h-63q-23 0 -29 25l-125 397h-493l-121 -397q-6 -25 -29 -25h-59q-28 0 -19 25l416 1343q6 25 31 25zM750 510l-170 549q-27 91 -52 217q-15 -103 -47 -213l-174 -553h443z" />
    <glyph glyph-name="B" unicode="B" horiz-adv-x="1185" 
d="M621 0h-400q-24 0 -24 25v1343q0 25 24 25h346q120 0 205.5 -21t133 -60t68.5 -88t21 -112v-139q0 -186 -194 -244q248 -50 248 -254v-188q0 -287 -428 -287zM621 676h-316v-584h316q172 0 245.5 54t73.5 155v168q0 98 -73.5 152.5t-245.5 54.5zM567 1300h-262v-536h285
q297 0 297 211v123q0 99 -74 150.5t-246 51.5z" />
    <glyph glyph-name="C" unicode="C" horiz-adv-x="1120" 
d="M1010 406v-134q0 -64 -19.5 -113t-65 -90t-129.5 -63t-204 -22t-204 22t-129.5 63t-65 90t-19.5 113v848q0 64 19.5 113.5t65 90.5t129.5 63t204 22t204 -22t129.5 -63t65 -90.5t19.5 -113.5v-106q0 -27 -23 -27h-59q-25 0 -25 27v90q0 49 -15 86t-50 66t-96.5 44
t-149.5 15q-170 0 -239.5 -54.5t-69.5 -156.5v-815q0 -102 69.5 -156.5t239.5 -54.5q88 0 149.5 15t96.5 44t50 66t15 86v117q0 22 25 22h59q23 0 23 -22z" />
    <glyph glyph-name="D" unicode="D" horiz-adv-x="1226" 
d="M625 0h-406q-22 0 -22 25v1343q0 25 22 25h406q428 0 428 -289v-815q0 -289 -428 -289zM625 1298h-320v-1204h320q171 0 245 55t74 156v782q0 101 -74 156t-245 55z" />
    <glyph glyph-name="E" unicode="E" horiz-adv-x="1079" 
d="M944 0h-725q-22 0 -22 25v1343q0 25 24 25h699q24 0 24 -25v-45q0 -25 -24 -25h-615v-520h578q24 0 24 -24v-43q0 -25 -24 -25h-578v-592h639q25 0 25 -24v-45q0 -25 -25 -25z" />
    <glyph glyph-name="F" unicode="F" horiz-adv-x="1087" 
d="M221 1393h752q24 0 24 -25v-45q0 -25 -24 -25h-668v-524h631q25 0 25 -24v-45q0 -25 -25 -25h-631v-655q0 -25 -22 -25h-62q-24 0 -24 25v1343q0 25 24 25z" />
    <glyph glyph-name="G" unicode="G" horiz-adv-x="1153" 
d="M610 653h375q25 0 25 -24v-357q0 -64 -19.5 -113t-65 -90t-129.5 -63t-204 -22t-204 22t-129.5 63t-65 90t-19.5 113v848q0 64 19.5 113.5t65 90.5t129.5 63t204 22t204 -22t129.5 -63t65 -90.5t19.5 -113.5v-102q0 -25 -23 -25h-59q-25 0 -25 25v86q0 49 -15 86t-50 66
t-96.5 44t-149.5 15q-170 0 -239.5 -54.5t-69.5 -156.5v-815q0 -102 69.5 -156.5t239.5 -54.5q169 0 240 54t71 153v274h-293q-24 0 -24 25v45q0 24 24 24z" />
    <glyph glyph-name="H" unicode="H" horiz-adv-x="1249" 
d="M305 1368v-577h639v577q0 25 23 25h63q23 0 23 -25v-1343q0 -25 -23 -25h-63q-23 0 -23 25v671h-639v-671q0 -25 -22 -25h-62q-24 0 -24 25v1343q0 25 24 25h62q22 0 22 -25z" />
    <glyph glyph-name="I" unicode="I" horiz-adv-x="501" 
d="M305 1368v-1343q0 -25 -22 -25h-62q-24 0 -24 25v1343q0 25 24 25h62q22 0 22 -25z" />
    <glyph glyph-name="J" unicode="J" horiz-adv-x="1005" 
d="M176 356v-67q0 -103 59.5 -157t210.5 -54q78 0 132 15t82.5 44.5t40.5 65.5t12 86v1079q0 25 22 25h62q24 0 24 -25v-1096q0 -64 -17 -113t-57 -90t-116 -63t-185 -22t-185 22t-116.5 63t-57.5 90t-17 113v84q0 25 24 25h60q22 0 22 -25z" />
    <glyph glyph-name="K" unicode="K" horiz-adv-x="1103" 
d="M469 707l592 -682q7 -7 3 -16t-15 -9h-82q-5 0 -9.5 1t-9 4.5t-6.5 5.5l-7.5 7.5l-6.5 6.5l-551 630h-72v-630q0 -25 -22 -25h-62q-24 0 -24 25v1343q0 25 24 25h62q22 0 22 -25v-629h70l506 631q19 23 41 23h67q13 0 16.5 -7.5t-4.5 -17.5z" />
    <glyph glyph-name="L" unicode="L" horiz-adv-x="1011" 
d="M305 1368v-1274h606q25 0 25 -24v-45q0 -25 -25 -25h-694q-20 0 -20 25v1343q0 25 24 25h62q22 0 22 -25z" />
    <glyph glyph-name="M" unicode="M" horiz-adv-x="1474" 
d="M1278 1368v-1343q0 -25 -23 -25h-59q-25 0 -25 25v1132l-36 -106l-336 -813q-9 -25 -33 -25h-57q-22 0 -31 25l-348 827q-22 46 -31 90v-1130q0 -25 -23 -25h-55q-24 0 -24 25v1343q0 25 24 25h55q17 0 23 -15l406 -956q8 -19 16 -43t12 -39l4 -14q21 59 35 94l402 960
q5 13 22 13h59q23 0 23 -25z" />
    <glyph glyph-name="N" unicode="N" horiz-adv-x="1247" 
d="M1051 1368v-1343q0 -25 -23 -25h-55q-17 0 -23 12l-585 1043q-14 22 -30 51.5t-25.5 48.5t-10.5 23v-1153q0 -25 -23 -25h-55q-24 0 -24 25v1343q0 25 24 25h55q14 0 21 -11l592 -1050l59 -117v1153q0 25 25 25h55q23 0 23 -25z" />
    <glyph glyph-name="O" unicode="O" horiz-adv-x="1202" 
d="M174 272v848q0 289 426 289q430 0 430 -289v-848q0 -288 -430 -288q-426 0 -426 288zM920 289v815q0 211 -320 211q-317 0 -317 -211v-815q0 -211 317 -211q320 0 320 211z" />
    <glyph glyph-name="P" unicode="P" horiz-adv-x="1153" 
d="M618 551h-313v-526q0 -25 -22 -25h-62q-24 0 -24 25v1343q0 25 22 25h399q429 0 429 -289v-264q0 -289 -429 -289zM618 1298h-313v-653h313q320 0 320 211v231q0 211 -320 211z" />
    <glyph glyph-name="Q" unicode="Q" horiz-adv-x="1200" 
d="M1030 1120v-848q0 -246 -313 -282l293 -269q19 -15 2 -32l-33 -35q-14 -18 -33 -2l-356 332q-416 3 -416 288v848q0 289 426 289q430 0 430 -289zM283 1106v-819q0 -211 317 -211q320 0 320 211v819q0 211 -320 211q-317 0 -317 -211z" />
    <glyph glyph-name="R" unicode="R" horiz-adv-x="1202" 
d="M618 578h-313v-553q0 -25 -22 -25h-62q-24 0 -24 25v1343q0 25 22 25h399q429 0 429 -289v-238q0 -227 -263 -276l281 -565q4 -10 -2.5 -17.5t-20.5 -7.5h-61q-9 0 -15.5 4t-9 8t-6.5 13l-270 555q-20 -2 -62 -2zM618 1298h-313v-628h313q320 0 320 211v206
q0 211 -320 211z" />
    <glyph glyph-name="S" unicode="S" horiz-adv-x="1153" 
d="M889 1020v88q0 49 -14.5 85t-48.5 65t-94.5 44t-147.5 15t-147.5 -15t-94.5 -44t-48.5 -65t-14.5 -85v-76q0 -70 38.5 -112.5t90.5 -61.5l393 -149q88 -34 146.5 -97t58.5 -159v-181q0 -288 -424 -288q-426 0 -426 288v107q0 27 24 27h60q24 0 24 -27v-94q0 -99 73 -154
t243 -55q172 0 245.5 55t73.5 154v145q0 40 -14.5 72t-41.5 54.5t-53 36.5t-61 28l-381 147q-71 27 -123.5 90t-52.5 152v110q0 64 19.5 113.5t65 90.5t128 63t199.5 22q411 0 411 -289v-100q0 -25 -24 -25h-60q-22 0 -22 25z" />
    <glyph glyph-name="T" unicode="T" horiz-adv-x="983" 
d="M66 1393h852q24 0 24 -25v-45q0 -25 -24 -25h-373v-1273q0 -25 -23 -25h-61q-25 0 -25 25v1273h-370q-25 0 -25 25v45q0 25 25 25z" />
    <glyph glyph-name="U" unicode="U" horiz-adv-x="1224" 
d="M293 1368v-1079q0 -101 74 -156t245 -55q320 0 320 211v1079q0 25 24 25h62q22 0 22 -25v-1096q0 -288 -428 -288t-428 288v1096q0 25 25 25h61q23 0 23 -25z" />
    <glyph glyph-name="V" unicode="V" 
d="M563 0h-63q-25 0 -31 25l-416 1343q-8 25 19 25h67q23 0 29 -25l319 -1034q9 -29 20 -78t18 -83l7 -34q28 123 48 191l321 1038q6 25 29 25h61q27 0 19 -25l-416 -1343q-6 -25 -31 -25z" />
    <glyph glyph-name="W" unicode="W" horiz-adv-x="1619" 
d="M872 1368l265 -1036q7 -27 14.5 -65t11.5 -63l4 -24q17 91 33 152l266 1036q6 25 29 25h53q27 0 21 -25l-342 -1343q-6 -25 -31 -25h-61q-23 0 -29 25l-268 1052q-16 55 -27 131l-29 -131l-266 -1052q-6 -25 -31 -25h-61q-25 0 -31 25l-340 1343q-6 25 19 25h63
q23 0 29 -25l262 -1036l33 -144q18 88 33 144l266 1036q6 25 28 25h58q22 0 28 -25z" />
    <glyph glyph-name="X" unicode="X" horiz-adv-x="1118" 
d="M618 705l404 -680q7 -9 4 -17t-16 -8h-74q-20 0 -37 25l-348 583l-340 -583q-17 -25 -35 -25h-67q-12 0 -15.5 8t2.5 19l398 682l-392 657q-6 10 -3.5 18.5t14.5 8.5h75q21 0 35 -25l340 -569l326 569q14 25 35 25h67q12 0 15.5 -7.5t-2.5 -17.5z" />
    <glyph glyph-name="Y" unicode="Y" horiz-adv-x="1042" 
d="M162 1368l332 -631q17 -34 28 -67q0 2 31 67l336 631q14 25 31 25h59q32 0 18 -25l-419 -790v-553q0 -25 -25 -25h-61q-23 0 -23 25v540l-422 803q-6 12 -1 18.5t17 6.5h68q19 0 31 -25z" />
    <glyph glyph-name="Z" unicode="Z" horiz-adv-x="1032" 
d="M174 1393h713q24 0 24 -25v-45q0 -10 -4 -18l-661 -1211h672q24 0 24 -24v-45q0 -25 -24 -25h-781q-22 0 -22 25v45q0 14 6 26l655 1202h-602q-24 0 -24 25v45q0 25 24 25z" />
    <glyph glyph-name="bracketleft" unicode="[" horiz-adv-x="733" 
d="M190 -408v1815q0 25 25 25h358q25 0 25 -25v-45q0 -25 -25 -25h-272v-1675h272q25 0 25 -24v-46q0 -24 -25 -24h-358q-25 0 -25 24z" />
    <glyph glyph-name="backslash" unicode="\" horiz-adv-x="757" 
d="M547 -279l-451 1686q-6 25 19 25h65q25 0 31 -25l451 -1686q3 -10 -2.5 -17t-16.5 -7h-65q-25 0 -31 24z" />
    <glyph glyph-name="bracketright" unicode="]" horiz-adv-x="733" 
d="M541 1407v-1815q0 -24 -23 -24h-358q-23 0 -23 24v46q0 24 23 24h272v1675h-272q-23 0 -23 25v45q0 25 23 25h358q23 0 23 -25z" />
    <glyph glyph-name="asciicircum" unicode="^" horiz-adv-x="1128" 
d="M846 649l-283 635l-280 -635q-10 -24 -29 -24h-59q-12 0 -17.5 7t-1.5 17l328 721q12 23 26 23h66q16 0 27 -23l329 -721q4 -10 -1 -17t-17 -7h-60q-18 0 -28 24z" />
    <glyph glyph-name="underscore" unicode="_" horiz-adv-x="874" 
d="M72 -180h731q24 0 24 -23v-43q0 -24 -24 -24h-731q-25 0 -25 24v43q0 23 25 23z" />
    <glyph glyph-name="grave" unicode="`" horiz-adv-x="688" 
d="M377 1182l-166 243q-8 11 -4.5 18t16.5 7h66q20 0 33 -20l147 -240q14 -23 -10 -23h-51q-24 0 -31 15z" />
    <glyph glyph-name="a" unicode="a" horiz-adv-x="1028" 
d="M154 737v37q0 119 81.5 185.5t274.5 66.5q194 0 275 -66t81 -186v-749q0 -25 -22 -25h-51q-25 0 -25 25l-4 81q-153 -122 -348 -122q-137 0 -209 66t-72 171v105q0 104 66.5 170.5t189.5 66.5h371v203q0 82 -56 127t-198 45t-198 -44t-56 -126v-31q0 -24 -25 -24h-53
q-22 0 -22 24zM438 74q170 0 324 121v282h-352q-86 0 -128 -43.5t-42 -120.5v-80q0 -75 49 -117t149 -42z" />
    <glyph glyph-name="b" unicode="b" horiz-adv-x="1064" 
d="M250 0h-51q-25 0 -25 25v1382q0 25 25 25h57q25 0 25 -25v-506q157 125 352 125q141 0 210.5 -67.5t69.5 -184.5v-538q0 -117 -69.5 -184.5t-210.5 -67.5q-200 0 -357 125l-2 -84q0 -25 -24 -25zM809 250v510q0 75 -49.5 121.5t-151.5 46.5q-185 0 -327 -123v-604
q156 -121 327 -121q102 0 151.5 47t49.5 123z" />
    <glyph glyph-name="c" unicode="c" horiz-adv-x="972" 
d="M510 1026q100 0 171 -18t111 -53t58 -79.5t18 -103.5v-39q0 -13 -5 -18.5t-19 -5.5h-53q-25 0 -25 24v33q0 82 -56.5 126t-199.5 44q-142 0 -198 -44t-56 -126v-522q0 -83 56 -126.5t198 -43.5q60 0 104.5 8t73.5 22t46.5 36t24.5 47t7 57v49q0 24 25 24h53q14 0 19 -5.5
t5 -18.5v-57q0 -120 -82.5 -186t-277.5 -66q-194 0 -276 66t-82 186v536q0 122 82 188t278 66z" />
    <glyph glyph-name="d" unicode="d" horiz-adv-x="1064" 
d="M791 25l-5 84q-157 -125 -356 -125q-141 0 -210.5 67.5t-69.5 184.5v538q0 117 69.5 184.5t210.5 67.5q192 0 354 -125v506q0 25 23 25h59q25 0 25 -25v-1382q0 -25 -25 -25h-51q-24 0 -24 25zM256 760v-510q0 -76 49.5 -123t151.5 -47q165 0 327 121v604
q-148 123 -327 123q-102 0 -151.5 -46.5t-49.5 -121.5z" />
    <glyph glyph-name="e" unicode="e" horiz-adv-x="1003" 
d="M874 772v-254q0 -22 -22 -22h-598v-254q0 -82 57.5 -126t202.5 -44t202.5 44t57.5 126v43q0 24 23 24h53q24 0 24 -24v-49q0 -119 -83 -185.5t-279 -66.5t-279 66.5t-83 185.5v536q0 121 84 187.5t280 66.5q195 0 277.5 -66.5t82.5 -187.5zM254 768v-190h520v190
q0 80 -59 125t-201 45q-143 0 -201.5 -44.5t-58.5 -125.5z" />
    <glyph glyph-name="f" unicode="f" horiz-adv-x="643" 
d="M199 1006h18v186q0 120 86 186t283 66h10q25 0 25 -25v-41q0 -26 -25 -26h-10q-143 0 -201.5 -44t-58.5 -126v-176h237q25 0 25 -23v-41q0 -24 -25 -24h-237v-893q0 -25 -25 -25h-59q-25 0 -25 25v893h-133q-23 0 -23 24v33q0 24 23 24z" />
    <glyph glyph-name="g" unicode="g" horiz-adv-x="1064" 
d="M430 -16q-141 0 -210.5 67.5t-69.5 184.5v538q0 117 69.5 184.5t210.5 67.5q197 0 356 -127l5 84q0 27 24 27h51q25 0 25 -27v-1155q0 -254 -367 -254h-276q-25 0 -25 25v43q0 24 25 24h276q142 0 201 44.5t59 125.5v270q-158 -122 -354 -122zM256 760v-510
q0 -76 49.5 -123t151.5 -47q165 0 327 121v604q-148 123 -327 123q-102 0 -151.5 -46.5t-49.5 -121.5z" />
    <glyph glyph-name="h" unicode="h" horiz-adv-x="1075" 
d="M281 1407v-506q151 125 352 125q139 0 209.5 -67t70.5 -179v-755q0 -25 -22 -25h-60q-22 0 -22 25v735q0 79 -49.5 124.5t-151.5 45.5q-109 0 -192 -39t-135 -84v-782q0 -25 -25 -25h-57q-25 0 -25 25v1382q0 25 25 25h57q25 0 25 -25z" />
    <glyph glyph-name="i" unicode="i" horiz-adv-x="452" 
d="M281 983v-958q0 -25 -25 -25h-57q-25 0 -25 25v958q0 27 25 27h57q25 0 25 -27zM281 1407v-195q0 -24 -25 -24h-57q-25 0 -25 24v195q0 25 25 25h57q25 0 25 -25z" />
    <glyph glyph-name="j" unicode="j" horiz-adv-x="452" 
d="M281 1407v-195q0 -24 -25 -24h-59q-23 0 -23 24v195q0 25 23 25h59q25 0 25 -25zM281 983v-1155q0 -254 -367 -254h-12q-25 0 -25 25v43q0 24 25 24h12q142 0 201 44.5t59 125.5v1147q0 27 23 27h59q25 0 25 -27z" />
    <glyph glyph-name="k" unicode="k" horiz-adv-x="921" 
d="M442 573l457 -548q7 -9 4 -17t-14 -8h-68q-24 0 -43 25l-422 501h-75v-501q0 -25 -25 -25h-59q-23 0 -23 25v1382q0 25 23 25h59q25 0 25 -25v-797h73l373 375q25 25 41 25h68q12 0 15.5 -8t-5.5 -17z" />
    <glyph glyph-name="l" unicode="l" horiz-adv-x="452" 
d="M281 1407v-1382q0 -25 -25 -25h-57q-25 0 -25 25v1382q0 25 25 25h57q25 0 25 -25z" />
    <glyph glyph-name="m" unicode="m" horiz-adv-x="1685" 
d="M199 1010h51q24 0 24 -25l2 -84q146 125 345 125q201 0 262 -141q154 141 360 141q140 0 211.5 -67t71.5 -179v-755q0 -25 -25 -25h-57q-27 0 -27 25v735q0 79 -48.5 124.5t-151.5 45.5q-174 0 -320 -125q4 -14 4 -45v-735q0 -25 -22 -25h-60q-22 0 -22 25v735
q0 79 -49.5 124.5t-151.5 45.5q-179 0 -315 -123v-782q0 -25 -25 -25h-57q-25 0 -25 25v960q0 25 25 25z" />
    <glyph glyph-name="n" unicode="n" horiz-adv-x="1075" 
d="M250 1010q24 0 24 -25l2 -86q153 127 357 127q139 0 209.5 -67t70.5 -179v-755q0 -25 -22 -25h-60q-22 0 -22 25v735q0 79 -49.5 124.5t-151.5 45.5q-109 0 -192 -39t-135 -84v-782q0 -25 -25 -25h-57q-25 0 -25 25v960q0 25 25 25h51z" />
    <glyph glyph-name="o" unicode="o" horiz-adv-x="1040" 
d="M150 236v536q0 254 370 254q371 0 371 -254v-536q0 -252 -371 -252q-370 0 -370 252zM784 244v522q0 81 -60.5 125.5t-203.5 44.5t-203.5 -44.5t-60.5 -125.5v-522q0 -82 60.5 -126t203.5 -44t203.5 44t60.5 126z" />
    <glyph glyph-name="p" unicode="p" horiz-adv-x="1064" 
d="M199 1010h51q24 0 24 -27l2 -84q159 127 357 127q141 0 210.5 -67.5t69.5 -184.5v-538q0 -117 -69.5 -184.5t-210.5 -67.5q-199 0 -352 122v-507q0 -25 -25 -25h-57q-25 0 -25 25v1384q0 27 25 27zM809 250v510q0 75 -49.5 121.5t-151.5 46.5q-185 0 -327 -123v-604
q156 -121 327 -121q102 0 151.5 47t49.5 123z" />
    <glyph glyph-name="q" unicode="q" horiz-adv-x="1064" 
d="M786 899l5 84q0 27 24 27h51q25 0 25 -27v-1384q0 -25 -25 -25h-59q-23 0 -23 25v507q-158 -122 -354 -122q-141 0 -210.5 67.5t-69.5 184.5v538q0 117 69.5 184.5t210.5 67.5q197 0 356 -127zM256 760v-510q0 -76 49.5 -123t151.5 -47q165 0 327 121v604
q-148 123 -327 123q-102 0 -151.5 -46.5t-49.5 -121.5z" />
    <glyph glyph-name="r" unicode="r" horiz-adv-x="690" 
d="M625 1024q26 0 26 -23v-49q0 -24 -26 -24q-103 -4 -196.5 -50.5t-147.5 -93.5v-759q0 -25 -25 -25h-57q-25 0 -25 25v960q0 25 25 25h51q24 0 24 -25l5 -111q63 56 153.5 103t192.5 47z" />
    <glyph glyph-name="s" unicode="s" horiz-adv-x="950" 
d="M729 739v64q0 67 -61.5 104t-186.5 37q-243 0 -243 -141v-64q0 -48 35 -81t79 -46l320 -100q77 -25 124.5 -72t47.5 -114v-121q0 -97 -91 -159t-272 -62t-269.5 61.5t-88.5 159.5v57q0 23 22 23h56q20 0 20 -23v-53q0 -66 66.5 -104.5t193.5 -38.5q129 0 196.5 38.5
t67.5 104.5v92q0 83 -129 125l-319 100q-61 20 -110.5 72.5t-49.5 122.5v82q0 99 84 161t262 62q177 0 261.5 -62t84.5 -161v-64q0 -22 -24 -22h-53q-23 0 -23 22z" />
    <glyph glyph-name="t" unicode="t" horiz-adv-x="702" 
d="M319 1006h242q25 0 25 -23v-41q0 -24 -25 -24h-242v-656q0 -82 58.5 -126t200.5 -44h32q25 0 25 -24v-43q0 -25 -25 -25h-45q-101 0 -171 17t-109 51.5t-55.5 78.5t-16.5 105v666h-129q-25 0 -25 24v33q0 13 5.5 17.5t19.5 6.5l109 7h20v221q0 26 25 26h59q22 0 22 -26
v-221z" />
    <glyph glyph-name="u" unicode="u" 
d="M788 25l-4 81q-143 -122 -342 -122q-138 0 -209 66.5t-71 176.5v756q0 27 22 27h60q24 0 24 -27v-733q0 -79 49 -124.5t152 -45.5q169 0 315 121v782q0 27 23 27h59q23 0 23 -27v-958q0 -25 -23 -25h-53q-25 0 -25 25z" />
    <glyph glyph-name="v" unicode="v" horiz-adv-x="862" 
d="M461 0h-66q-11 0 -16 5t-10 18l-326 962q-7 25 18 25h64q22 0 29 -25l252 -739q4 -15 14 -58.5t12 -48.5q13 66 29 107l254 739q7 25 28 25h58q25 0 18 -25l-332 -962q-5 -13 -10 -18t-16 -5z" />
    <glyph glyph-name="w" unicode="w" horiz-adv-x="1308" 
d="M1268 985l-269 -962q-6 -23 -26 -23h-70q-17 0 -24 23l-201 749q-8 31 -21 94l-24 -96l-211 -747q-7 -23 -27 -23h-67q-20 0 -27 23l-258 962q-3 11 2.5 18t17.5 7h60q20 0 27 -25l204 -762l19 -82l20 82l209 762q7 25 29 25h65q22 0 29 -25l199 -762q16 -74 18 -78
q0 2 21 78l206 762q7 25 27 25h51q12 0 18 -7t3 -18z" />
    <glyph glyph-name="x" unicode="x" horiz-adv-x="944" 
d="M528 510l334 -485q7 -9 3 -17t-17 -8h-66q-20 0 -37 25l-284 409l-277 -409q-17 -25 -37 -25h-57q-12 0 -16 8t2 17l332 487l-324 473q-8 11 -4.5 18t16.5 7h68q20 0 37 -25l274 -397l266 397q17 25 35 25h60q13 0 16.5 -7t-4.5 -18z" />
    <glyph glyph-name="y" unicode="y" horiz-adv-x="862" 
d="M152 985l251 -739q12 -36 29 -105q0 20 29 101l254 743q7 25 28 25h58q25 0 18 -25l-473 -1386q-7 -25 -29 -25h-47q-25 0 -18 25l131 397l-340 989q-7 25 18 25h62q22 0 29 -25z" />
    <glyph glyph-name="z" unicode="z" horiz-adv-x="933" 
d="M154 1010h614q25 0 25 -25v-37q0 -12 -7 -22l-548 -836h557q24 0 24 -24v-41q0 -25 -24 -25h-666q-25 0 -25 25v41q0 10 7 20l546 834h-503q-25 0 -25 24v41q0 25 25 25z" />
    <glyph glyph-name="braceleft" unicode="{" horiz-adv-x="915" 
d="M383 725v473q0 252 367 252h10q24 0 24 -25v-43q0 -24 -24 -24h-10q-142 0 -200 -44t-58 -126v-471q0 -169 -177 -209q177 -37 177 -207v-485q0 -82 58 -126t200 -44h10q24 0 24 -25v-43q0 -24 -24 -24h-10q-367 0 -367 251v488q0 81 -55.5 125.5t-184.5 44.5h-2
q-24 0 -24 24v43q0 25 24 25h2q129 0 184.5 44.5t55.5 125.5z" />
    <glyph glyph-name="bar" unicode="|" horiz-adv-x="501" 
d="M305 1407v-1815q0 -24 -22 -24h-62q-24 0 -24 24v1815q0 25 24 25h62q22 0 22 -25z" />
    <glyph glyph-name="braceright" unicode="}" horiz-adv-x="915" 
d="M532 1198v-473q0 -81 55.5 -125.5t184.5 -44.5h2q25 0 25 -25v-43q0 -24 -25 -24h-2q-129 0 -184.5 -44.5t-55.5 -125.5v-488q0 -251 -366 -251h-10q-25 0 -25 24v43q0 25 25 25h10q142 0 200 44t58 126v485q0 171 176 207q-176 39 -176 209v471q0 82 -58 126t-200 44
h-10q-25 0 -25 24v43q0 25 25 25h10q366 0 366 -252z" />
    <glyph glyph-name="asciitilde" unicode="~" horiz-adv-x="985" 
d="M319 598q-38 0 -51.5 -22.5t-13.5 -86.5v-20q0 -23 -27 -23h-32q-21 0 -21 29l2 43q8 174 135 174q37 0 101 -33l172 -94q58 -28 84 -28q38 0 50.5 23.5t12.5 86.5v19q0 22 27 22h33q20 0 20 -26l-2 -46q-8 -174 -131 -174q-46 0 -111 35l-174 96q-45 25 -74 25z" />
    <glyph glyph-name="exclamdown" unicode="&#xa1;" horiz-adv-x="507" 
d="M197 211l10 453q0 24 24 24h43q23 0 23 -24l12 -453v-569q0 -25 -24 -25h-66q-22 0 -22 25v569zM199 827v158q0 25 22 25h62q24 0 24 -25v-158q0 -24 -24 -24h-62q-22 0 -22 24z" />
    <glyph glyph-name="cent" unicode="&#xa2;" horiz-adv-x="1075" 
d="M586 1368v-154q167 -7 239 -72.5t72 -178.5v-39q0 -25 -25 -25h-53q-24 0 -24 25v32q0 82 -56.5 126t-199.5 44q-142 0 -198 -44t-56 -126v-522q0 -83 56 -126.5t198 -43.5q60 0 104.5 8t73.5 22t46.5 36t24.5 47t7 57v49q0 25 24 25h53q25 0 25 -25v-57q0 -113 -71 -178
t-240 -74v-149q0 -25 -23 -25h-59q-25 0 -25 25v151q-163 10 -232 74.5t-69 175.5v537q0 111 69 176t232 75v154q0 25 25 25h59q23 0 23 -25z" />
    <glyph glyph-name="sterling" unicode="&#xa3;" horiz-adv-x="1341" 
d="M432 745h340q25 0 25 -22v-43q0 -25 -25 -25h-340v-563h442q42 0 72.5 10.5t57.5 36t41 75t14 122.5v10q0 25 24 25h56q24 0 24 -25v-10q0 -100 -20 -168.5t-58.5 -103.5t-83 -49.5t-104.5 -14.5h-694q-25 0 -25 25v43q0 24 25 24h121v563h-121q-25 0 -25 25v43
q0 22 25 22h121v390q0 66 16 112t57 85t120 58t196 19q118 0 197 -19t120.5 -58t57.5 -85t16 -112v-56q0 -24 -23 -24h-59q-23 0 -23 24v41q0 50 -11.5 83.5t-42 60t-87.5 39t-145 12.5q-86 0 -142 -12.5t-86 -39t-41.5 -60t-11.5 -83.5v-375z" />
    <glyph glyph-name="currency" unicode="&#xa4;" horiz-adv-x="1327" 
d="M205 612h106v170h-106q-25 0 -25 25v27q0 22 25 22h106v264q0 64 19.5 113.5t65 90.5t129.5 63t204 22t204 -22t129.5 -63t65 -90.5t19.5 -113.5v-106q0 -27 -23 -27h-59q-25 0 -25 27v90q0 49 -15 86t-50 66t-96.5 44t-149.5 15q-170 0 -239.5 -54.5t-69.5 -156.5v-248
h350q25 0 25 -22v-27q0 -25 -25 -25h-350v-170h350q25 0 25 -24v-27q0 -22 -25 -22h-350v-250q0 -102 69.5 -156.5t239.5 -54.5q88 0 149.5 15t96.5 44t50 66t15 86v117q0 22 25 22h59q23 0 23 -22v-134q0 -64 -19.5 -113t-65 -90t-129.5 -63t-204 -22t-204 22t-129.5 63
t-65 90t-19.5 113v267h-106q-25 0 -25 22v27q0 24 25 24z" />
    <glyph glyph-name="yen" unicode="&#xa5;" horiz-adv-x="1316" 
d="M1038 557h-323v-532q0 -25 -25 -25h-61q-23 0 -23 25v532h-323q-25 0 -25 25v26q0 25 25 25h286l-88 170h-198q-25 0 -25 22v27q0 25 25 25h159l-258 491q-5 12 -0.5 18.5t17.5 6.5h67q12 0 18 -5.5t13 -19.5l332 -631q6 -12 16.5 -38.5t11.5 -28.5l31 67l336 631
q14 25 31 25h59q33 0 19 -25l-263 -491h166q25 0 25 -25v-27q0 -22 -25 -22h-204l-91 -170h295q25 0 25 -25v-26q0 -25 -25 -25z" />
    <glyph glyph-name="brokenbar" unicode="&#xa6;" horiz-adv-x="452" 
d="M281 1368v-700q0 -25 -25 -25h-57q-25 0 -25 25v700q0 25 25 25h57q25 0 25 -25zM281 293v-701q0 -24 -25 -24h-57q-25 0 -25 24v701q0 24 25 24h57q25 0 25 -24z" />
    <glyph glyph-name="section" unicode="&#xa7;" horiz-adv-x="1122" 
d="M909 557v-221q0 -25 -24 -25h-51q-25 0 -25 25v213q0 32 -14 58.5t-36.5 42.5t-40.5 24.5t-36 13.5l-289 86q-30 9 -57.5 21.5t-62 36.5t-55.5 63t-21 88v172q0 254 364 254q197 0 281 -65t84 -185v-29q0 -24 -25 -24h-51q-25 0 -25 24v33q0 81 -58.5 124.5t-201.5 43.5
q-144 0 -203 -43.5t-59 -124.5v-176q0 -95 148 -133l278 -80q27 -8 55.5 -23.5t58 -41t48 -65.5t18.5 -87zM213 416v219q0 24 25 24h53q22 0 22 -24v-211q0 -42 25.5 -75t51 -46t50.5 -20l289 -84q30 -9 57.5 -21.5t62.5 -36.5t56 -63t21 -88v-172q0 -254 -365 -254
q-197 0 -280.5 65t-83.5 185v28q0 25 24 25h51q25 0 25 -25v-32q0 -81 60 -125.5t202 -44.5t202 44.5t60 125.5v176q0 95 -147 133l-281 80q-27 8 -55.5 23.5t-58 41t-48 65.5t-18.5 87z" />
    <glyph glyph-name="dieresis" unicode="&#xa8;" horiz-adv-x="630" 
d="M258 1413v-201q0 -24 -25 -24h-36q-25 0 -25 24v201q0 25 25 25h36q25 0 25 -25zM459 1413v-201q0 -24 -25 -24h-37q-24 0 -24 24v201q0 25 24 25h37q25 0 25 -25z" />
    <glyph glyph-name="copyright" unicode="&#xa9;" horiz-adv-x="1462" 
d="M1264 1075v-756q0 -41 -5.5 -75.5t-21 -69.5t-41 -62.5t-66.5 -52t-96 -40.5t-131.5 -25.5t-171.5 -9.5q-132 0 -229 18t-155 47.5t-92.5 74.5t-46 90.5t-11.5 104.5v756q0 58 11.5 103.5t46 90.5t92.5 74.5t155 47.5t229 18q131 0 228 -18t154.5 -47.5t92 -74.5
t46.5 -90.5t12 -103.5zM1182 307v780q0 56 -21.5 99t-71 77.5t-140 53t-218.5 18.5q-129 0 -219 -18.5t-139.5 -53.5t-70.5 -78t-21 -100v-778q0 -57 21 -100t70.5 -78t139.5 -53.5t219 -18.5q128 0 218.5 18.5t140 53.5t71 78t21.5 100zM731 1128q85 0 141.5 -17t86.5 -51
t41.5 -76t11.5 -103v-35q0 -25 -25 -25h-47q-25 0 -25 25v33q0 42 -6.5 70.5t-25 53t-56.5 36.5t-96 12q-59 0 -96.5 -11.5t-55.5 -37t-24 -53t-6 -70.5v-367q0 -42 6 -69.5t24 -52.5t55.5 -36.5t96.5 -11.5q111 0 147.5 42t36.5 128v49q0 25 25 25h47q25 0 25 -25v-51
q0 -61 -11.5 -103t-41 -76.5t-86.5 -51.5t-142 -17q-84 0 -140.5 17t-86.5 51.5t-41.5 77t-11.5 102.5v371q0 60 11.5 102.5t41.5 76.5t86.5 51t140.5 17z" />
    <glyph glyph-name="ordfeminine" unicode="&#xaa;" horiz-adv-x="718" 
d="M145 1235v22q0 152 222 152q219 0 219 -154v-444q0 -18 -17 -18h-43q-9 0 -11.5 3.5t-4.5 14.5l-4 45q-89 -74 -203 -74q-86 0 -128 40t-42 106v61q0 64 41.5 104t118.5 40h211v120q0 46 -30.5 70.5t-108.5 24.5q-142 0 -142 -93v-20q0 -16 -16 -16h-45q-17 0 -17 16z
M324 846q101 0 180 69v158h-197q-45 0 -68.5 -24.5t-23.5 -65.5v-47q0 -90 109 -90z" />
    <glyph glyph-name="guillemotleft" unicode="&#xab;" horiz-adv-x="1191" 
d="M991 737l-315 -235l315 -234q25 -21 25 -39v-63q0 -13 -9 -16t-16 4l-381 286q-22 15 -22 33v57q0 18 22 33l381 289q7 6 16 3t9 -15v-68q0 -14 -25 -35zM580 737l-316 -235l316 -234q24 -20 24 -39v-63q0 -13 -8 -16t-16 4l-381 286q-23 15 -23 33v57q0 18 23 33
l381 289q8 6 16 3t8 -15v-68q0 -15 -24 -35z" />
    <glyph glyph-name="logicalnot" unicode="&#xac;" horiz-adv-x="763" 
d="M158 641q0 92 64.5 157.5t156.5 65.5q94 0 159.5 -65.5t65.5 -157.5q0 -94 -65.5 -158.5t-159.5 -64.5q-92 0 -156.5 64.5t-64.5 158.5z" />
    <glyph glyph-name="uni00AD" unicode="&#xad;" horiz-adv-x="946" 
d="M199 637h549q24 0 24 -23v-43q0 -24 -24 -24h-549q-25 0 -25 24v43q0 23 25 23z" />
    <glyph glyph-name="registered" unicode="&#xae;" horiz-adv-x="1261" 
d="M1065 1143v-363q0 -266 -432 -266q-436 0 -436 266v363q0 38 8.5 71t36.5 70.5t74 63.5t127.5 43.5t189.5 17.5q432 0 432 -266zM989 772v377q0 188 -356 188q-106 0 -180.5 -16.5t-111.5 -45.5t-52 -59.5t-15 -66.5v-375q0 -36 15 -66.5t52 -60t111.5 -46.5t180.5 -17
q356 0 356 188zM653 885h-133v-185q0 -18 -16 -18h-45q-17 0 -17 18v506q0 19 17 19h194q107 0 151 -42t44 -104v-49q0 -102 -105 -135l84 -195q3 -7 -2 -12.5t-14 -5.5h-47q-12 0 -19 18l-77 185h-15zM645 1163h-125v-217h125q62 0 93.5 25.5t31.5 62.5v41q0 37 -31 62.5
t-94 25.5z" />
    <glyph glyph-name="macron" unicode="&#xaf;" horiz-adv-x="858" 
d="M166 1323h526q25 0 25 -25v-36q0 -25 -25 -25h-526q-25 0 -25 25v36q0 25 25 25z" />
    <glyph glyph-name="degree" unicode="&#xb0;" horiz-adv-x="813" 
d="M137 1022v199q0 90 61 137t210 47q147 0 207.5 -47t60.5 -137v-199q0 -88 -60.5 -136t-207.5 -48q-148 0 -209.5 48t-61.5 136zM584 1026v193q0 112 -176 112q-179 0 -179 -112v-193q0 -113 179 -113q176 0 176 113z" />
    <glyph glyph-name="plusminus" unicode="&#xb1;" horiz-adv-x="1196" 
d="M551 465v268h-352q-25 0 -25 25v43q0 22 25 22h352v269q0 24 22 24h43q25 0 25 -24v-269h358q23 0 23 -22v-43q0 -25 -23 -25h-358v-268q0 -27 -25 -27h-43q-22 0 -22 27zM199 313h800q23 0 23 -24v-43q0 -25 -23 -25h-800q-25 0 -25 25v43q0 24 25 24z" />
    <glyph glyph-name="twosuperior" unicode="&#xb2;" horiz-adv-x="757" 
d="M225 635h387q19 0 19 -19v-34q0 -19 -19 -19h-454q-17 0 -17 19v233q0 27 10 48t29.5 34t31.5 18.5t32 12.5l225 73q74 24 74 86v132q0 58 -37.5 89t-128.5 31q-92 0 -128 -30.5t-36 -89.5v-58q0 -11 -3.5 -14.5t-14.5 -3.5h-50q-16 0 -16 18v70q0 82 55 130t193 48
q250 0 250 -178v-139q0 -34 -11.5 -62t-30 -45t-34.5 -26.5t-33 -14.5l-215 -70q-78 -26 -78 -71v-168z" />
    <glyph glyph-name="threesuperior" unicode="&#xb3;" horiz-adv-x="755" 
d="M272 1042h101q94 0 128 27.5t34 87.5v68q0 58 -34.5 87t-123.5 29q-90 0 -125 -29t-35 -87v-15q0 -16 -16 -16h-49q-19 0 -19 16v25q0 83 53.5 129.5t192.5 46.5q135 0 188.5 -46t53.5 -128v-90q0 -57 -23 -90t-84 -47q65 -16 89 -51t24 -93v-137q0 -81 -55.5 -127.5
t-192.5 -46.5q-138 0 -194 47t-56 129v25q0 16 16 16h50q18 0 18 -16v-15q0 -57 37.5 -86.5t128.5 -29.5q90 0 127 29.5t37 86.5v117q0 59 -33.5 87t-126.5 28h-111q-18 0 -18 18v33q0 10 4 14t14 4z" />
    <glyph glyph-name="acute" unicode="&#xb4;" horiz-adv-x="688" 
d="M475 1425l-166 -243q-10 -15 -28 -15h-52q-23 0 -12 23l148 240q13 20 32 20h66q26 0 12 -25z" />
    <glyph glyph-name="uni00B5" unicode="&#xb5;" 
d="M788 25l-4 81q-143 -122 -342 -122q-125 0 -182 67l8 -450q0 -27 -24 -27h-60q-22 0 -22 27v1382q0 27 22 27h60q24 0 24 -27v-733q0 -79 49 -124.5t152 -45.5q169 0 315 121v782q0 27 23 27h59q23 0 23 -27v-958q0 -25 -23 -25h-53q-22 0 -25 25z" />
    <glyph glyph-name="paragraph" unicode="&#xb6;" horiz-adv-x="1292" 
d="M805 1370v-1769q0 -27 -23 -27h-61q-25 0 -25 27v977h-104q-113 0 -192 19.5t-122.5 56.5t-62 83.5t-18.5 108.5v278q0 62 18.5 108.5t62 84t122.5 57t192 19.5h190q23 0 23 -23zM1096 1368v-1767q0 -27 -23 -27h-61q-25 0 -25 27v1767q0 25 25 25h61q23 0 23 -25z" />
    <glyph glyph-name="periodcentered" unicode="&#xb7;" horiz-adv-x="436" 
d="M272 614v-157q0 -25 -24 -25h-60q-24 0 -24 25v157q0 25 24 25h60q24 0 24 -25z" />
    <glyph glyph-name="cedilla" unicode="&#xb8;" horiz-adv-x="335" 
d="M168 -111h80q70 0 119 -38t49 -121q0 -84 -49.5 -123t-118.5 -39h-242q-24 0 -24 24v23q0 25 24 25h230q98 0 98 90q0 88 -98 88h-121q-22 0 -29 8.5t-4 21.5l45 160q8 24 27 21l30 -4q10 -1 14 -10.5t1 -20.5z" />
    <glyph glyph-name="onesuperior" unicode="&#xb9;" horiz-adv-x="770" 
d="M147 1343l265 64q7 2 11.5 -2t4.5 -14v-752h197q9 0 12.5 -3.5t3.5 -14.5v-33q0 -19 -16 -19h-478q-18 0 -18 19v33q0 11 4 14.5t14 3.5h195v680l-195 -45q-18 -4 -18 12v37q0 16 18 20z" />
    <glyph glyph-name="ordmasculine" unicode="&#xba;" horiz-adv-x="724" 
d="M131 938v315q0 156 231 156q232 0 232 -156v-315q0 -156 -232 -156q-231 0 -231 156zM510 946v301q0 96 -148 96q-147 0 -147 -96v-301q0 -47 33.5 -71.5t113.5 -24.5t114 24.5t34 71.5z" />
    <glyph glyph-name="guillemotright" unicode="&#xbb;" horiz-adv-x="1189" 
d="M610 283l316 235l-316 234q-24 20 -24 39v63q0 13 8 16t16 -4l381 -286q23 -15 23 -33v-58q0 -17 -23 -32l-381 -289q-8 -6 -16 -3t-8 15v68q0 15 24 35zM201 283l315 235l-315 234q-25 21 -25 39v63q0 13 9 16t16 -4l381 -286q22 -15 22 -33v-58q0 -17 -22 -32
l-381 -289q-7 -6 -16 -3t-9 15v68q0 14 25 35z" />
    <glyph glyph-name="onequarter" unicode="&#xbc;" horiz-adv-x="1677" 
d="M1307 817l-172 -479h327v479q0 19 19 19h49q18 0 18 -19v-799q0 -10 -4 -14t-14 -4h-49q-19 0 -19 18v250h-399q-21 0 -21 17v28q0 9 5 19l174 485q6 19 22 19h51q9 0 12.5 -5.5t0.5 -13.5zM147 1343l265 64q7 2 11.5 -2t4.5 -14v-752h197q9 0 12.5 -3.5t3.5 -14.5v-33
q0 -19 -16 -19h-478q-18 0 -18 19v33q0 11 4 14.5t14 3.5h195v682l-195 -47q-18 -4 -18 12v37q0 16 18 20zM1130 1475l-413 -1557q-3 -11 -6.5 -14.5t-12.5 -3.5h-53q-20 0 -14 18l411 1557q5 18 23 18h53q18 0 12 -18z" />
    <glyph glyph-name="onehalf" unicode="&#xbd;" horiz-adv-x="1716" 
d="M147 1343l265 64q7 2 11.5 -2t4.5 -14v-752h197q9 0 12.5 -3.5t3.5 -14.5v-33q0 -19 -16 -19h-478q-18 0 -18 19v33q0 11 4 14.5t14 3.5h195v686l-195 -51q-18 -4 -18 12v37q0 16 18 20zM1116 1475l-411 -1557q-3 -11 -7 -14.5t-14 -3.5h-51q-21 0 -15 18l412 1557
q5 18 23 18h53q16 0 10 -18zM1182 72h389q16 0 16 -19v-35q0 -18 -16 -18h-457q-14 0 -14 18v234q0 83 100 113l227 73q74 24 74 86v131q0 59 -37.5 90t-130.5 31q-91 0 -127.5 -31t-36.5 -90v-57q0 -18 -16 -18h-49q-19 0 -19 18v70q0 178 248 178q252 0 252 -178v-140
q0 -35 -11 -62.5t-29.5 -44t-35 -26t-34.5 -14.5l-215 -70q-78 -24 -78 -71v-168z" />
    <glyph glyph-name="threequarters" unicode="&#xbe;" horiz-adv-x="1675" 
d="M272 1040h101q94 0 128 27.5t34 87.5v68q0 58 -34.5 87t-123.5 29q-90 0 -125 -29t-35 -87v-15q0 -16 -16 -16h-49q-19 0 -19 16v25q0 83 53.5 129.5t192.5 46.5q135 0 188.5 -46t53.5 -128v-90q0 -57 -23 -90t-84 -47q65 -16 89 -51t24 -93v-137q0 -81 -55.5 -127.5
t-192.5 -46.5q-138 0 -194 47t-56 129v25q0 16 16 16h50q18 0 18 -16v-15q0 -57 37.5 -86.5t128.5 -29.5q90 0 127 29.5t37 86.5v117q0 59 -33.5 87t-126.5 28h-111q-18 0 -18 18v33q0 10 4 14t14 4zM1130 1475l-411 -1557q-5 -18 -21 -18h-51q-20 0 -14 18l411 1557
q5 18 23 18h53q16 0 10 -18zM1305 817l-172 -479h327v479q0 19 19 19h49q18 0 18 -19v-799q0 -10 -4 -14t-14 -4h-49q-19 0 -19 18v250h-399q-21 0 -21 17v28q0 11 4 19l175 485q6 19 22 19h51q9 0 12.5 -5.5t0.5 -13.5z" />
    <glyph glyph-name="questiondown" unicode="&#xbf;" horiz-adv-x="1163" 
d="M655 664v-166q0 -129 -137 -199l-131 -66q-111 -57 -111 -167v-162q0 -102 69.5 -156.5t238.5 -54.5q168 0 236.5 54.5t68.5 156.5v100q0 27 24 27h58q24 0 24 -27v-115q0 -50 -11.5 -91.5t-40 -79t-74.5 -62.5t-118 -40t-167 -15q-118 0 -201.5 22t-129 62.5t-65.5 90
t-20 113.5v172q0 169 164 252l106 54q107 55 107 153v144q0 24 24 24h62q24 0 24 -24zM545 827v158q0 25 24 25h62q24 0 24 -25v-158q0 -24 -24 -24h-62q-24 0 -24 24z" />
    <glyph glyph-name="Agrave" unicode="&#xc0;" 
d="M500 1393h63q25 0 31 -25l416 -1343q9 -25 -19 -25h-63q-23 0 -29 25l-125 397h-493l-121 -397q-6 -25 -29 -25h-59q-28 0 -19 25l416 1343q6 25 31 25zM750 510l-170 549q-39 130 -52 215q-19 -107 -47 -211l-174 -553h443zM475 1530l-166 244q-16 24 10 24h66
q18 0 33 -22l147 -238q7 -12 4 -18.5t-14 -6.5h-51q-18 0 -29 17z" />
    <glyph glyph-name="Aacute" unicode="&#xc1;" 
d="M500 1393h63q25 0 31 -25l416 -1343q9 -25 -19 -25h-63q-23 0 -29 25l-125 397h-493l-121 -397q-6 -25 -29 -25h-59q-28 0 -19 25l416 1343q6 25 31 25zM750 510l-170 549q-39 130 -52 215q-19 -107 -47 -211l-174 -553h443zM752 1774l-166 -244q-9 -14 -29 -14h-51
q-11 0 -15 6t3 16l149 240q13 20 31 20h65q13 0 17 -7t-4 -17z" />
    <glyph glyph-name="Acircumflex" unicode="&#xc2;" 
d="M500 1393h63q25 0 31 -25l416 -1343q9 -25 -19 -25h-63q-23 0 -29 25l-125 397h-493l-121 -397q-6 -25 -29 -25h-59q-28 0 -19 25l416 1343q6 25 31 25zM750 510l-170 549q-39 130 -52 215q-19 -107 -47 -211l-174 -553h443zM530 1729l-122 -189q-14 -24 -35 -24h-47
q-12 0 -16 7t3 17l160 234q17 24 37 24h41q22 0 37 -22l162 -236q7 -10 3 -17t-16 -7h-49q-16 0 -33 24z" />
    <glyph glyph-name="Atilde" unicode="&#xc3;" 
d="M500 1393h63q25 0 31 -25l416 -1343q9 -25 -19 -25h-63q-23 0 -29 25l-125 397h-493l-121 -397q-6 -25 -29 -25h-59q-28 0 -19 25l416 1343q6 25 31 25zM750 510l-170 549q-39 130 -52 215q-19 -107 -47 -211l-174 -553h443zM397 1696q-39 0 -51 -22t-12 -89v-18
q0 -23 -27 -23h-35q-20 0 -20 29l2 41q8 166 137 166q59 0 107 -39l94 -76q45 -35 74 -35q38 0 50.5 22.5t12.5 88.5v18q0 23 27 23h32q23 0 23 -27l-2 -41q-8 -168 -139 -168q-55 0 -107 41l-92 74q-49 35 -74 35z" />
    <glyph glyph-name="Adieresis" unicode="&#xc4;" 
d="M500 1393h63q25 0 31 -25l416 -1343q9 -25 -19 -25h-63q-23 0 -29 25l-125 397h-493l-121 -397q-6 -25 -29 -25h-59q-28 0 -19 25l416 1343q6 25 31 25zM750 510l-170 549q-39 130 -52 215q-19 -107 -47 -211l-174 -553h443zM473 1755v-201q0 -24 -22 -24h-37
q-25 0 -25 24v201q0 25 25 25h37q22 0 22 -25zM674 1755v-201q0 -24 -23 -24h-37q-24 0 -24 24v201q0 25 24 25h37q23 0 23 -25z" />
    <glyph glyph-name="Aring" unicode="&#xc5;" 
d="M500 1393h63q25 0 31 -25l416 -1343q9 -25 -19 -25h-63q-23 0 -29 25l-125 397h-493l-121 -397q-6 -25 -29 -25h-59q-28 0 -19 25l416 1343q6 25 31 25zM750 510l-170 549q-39 130 -52 215q-19 -107 -47 -211l-174 -553h443zM719 1661v-31q0 -67 -46.5 -108t-142.5 -41
t-141 40.5t-45 108.5v31q0 68 45 108.5t141 40.5t142.5 -41t46.5 -108zM649 1638v15q0 43 -29 69.5t-90 26.5t-88.5 -26.5t-27.5 -69.5v-15q0 -43 27.5 -69.5t88.5 -26.5t90 26.5t29 69.5z" />
    <glyph glyph-name="AE" unicode="&#xc6;" horiz-adv-x="1720" 
d="M870 1393h691q24 0 24 -23v-45q0 -22 -24 -22h-615v-525h578q24 0 24 -24v-41q0 -25 -24 -25h-578v-596h639q25 0 25 -24v-43q0 -25 -25 -25h-711q-32 0 -32 25v397h-453l-227 -397q-1 -1 -3 -4.5t-3 -4.5t-3 -4t-3.5 -4t-3.5 -3t-4 -3t-4 -1.5t-5 -0.5h-57q-14 0 -21 7
t0 18l781 1343q15 25 34 25zM774 1085l-332 -575h400v698q-52 -98 -68 -123z" />
    <glyph glyph-name="Ccedilla" unicode="&#xc7;" horiz-adv-x="1120" 
d="M555 -111h80q70 0 119 -38t49 -121q0 -84 -49.5 -123t-118.5 -39h-242q-24 0 -24 24v23q0 25 24 25h230q98 0 98 90q0 88 -98 88h-121q-22 0 -29 8.5t-4 21.5l39 140q-95 7 -162 31t-103.5 63.5t-52.5 85.5t-16 104v848q0 64 19.5 113.5t65 90.5t129.5 63t204 22t204 -22
t129.5 -63t65 -90.5t19.5 -113.5v-106q0 -27 -23 -27h-59q-25 0 -25 27v90q0 49 -15 86t-50 66t-96.5 44t-149.5 15q-170 0 -239.5 -54.5t-69.5 -156.5v-815q0 -102 69.5 -156.5t239.5 -54.5q88 0 149.5 15t96.5 44t50 66t15 86v117q0 22 25 22h59q23 0 23 -22v-134
q0 -64 -19.5 -113t-65 -90t-129.5 -63t-204 -22h-10z" />
    <glyph glyph-name="Egrave" unicode="&#xc8;" horiz-adv-x="1079" 
d="M557 1530l-166 244q-16 24 10 24h66q18 0 33 -22l147 -238q7 -12 4 -18.5t-14 -6.5h-51q-18 0 -29 17zM944 0h-725q-22 0 -22 25v1343q0 25 24 25h699q24 0 24 -25v-45q0 -25 -24 -25h-615v-520h578q24 0 24 -24v-43q0 -25 -24 -25h-578v-592h639q25 0 25 -24v-45
q0 -25 -25 -25z" />
    <glyph glyph-name="Eacute" unicode="&#xc9;" horiz-adv-x="1079" 
d="M944 0h-725q-22 0 -22 25v1343q0 25 24 25h699q24 0 24 -25v-45q0 -25 -24 -25h-615v-520h578q24 0 24 -24v-43q0 -25 -24 -25h-578v-592h639q25 0 25 -24v-45q0 -25 -25 -25zM770 1774l-166 -244q-9 -14 -29 -14h-51q-11 0 -15 6t3 16l150 240q13 20 30 20h66
q13 0 16.5 -7t-4.5 -17z" />
    <glyph glyph-name="Ecircumflex" unicode="&#xca;" horiz-adv-x="1079" 
d="M539 1729l-123 -189q-14 -24 -35 -24h-47q-12 0 -15.5 7t3.5 17l159 234q17 24 37 24h41q22 0 37 -22l162 -236q7 -10 3 -17t-16 -7h-49q-15 0 -32 24zM944 0h-725q-22 0 -22 25v1343q0 25 24 25h699q24 0 24 -25v-45q0 -25 -24 -25h-615v-520h578q24 0 24 -24v-43
q0 -25 -24 -25h-578v-592h639q25 0 25 -24v-45q0 -25 -25 -25z" />
    <glyph glyph-name="Edieresis" unicode="&#xcb;" horiz-adv-x="1079" 
d="M944 0h-725q-22 0 -22 25v1343q0 25 24 25h699q24 0 24 -25v-45q0 -25 -24 -25h-615v-520h578q24 0 24 -24v-43q0 -25 -24 -25h-578v-592h639q25 0 25 -24v-45q0 -25 -25 -25zM516 1755v-201q0 -24 -22 -24h-37q-25 0 -25 24v201q0 25 25 25h37q22 0 22 -25zM717 1755
v-201q0 -24 -23 -24h-37q-24 0 -24 24v201q0 25 24 25h37q23 0 23 -25z" />
    <glyph glyph-name="Igrave" unicode="&#xcc;" horiz-adv-x="501" 
d="M305 1368v-1343q0 -25 -22 -25h-62q-24 0 -24 25v1343q0 25 24 25h62q22 0 22 -25zM197 1530l-166 244q-16 24 10 24h65q18 0 33 -22l148 -238q7 -12 3.5 -18.5t-14.5 -6.5h-51q-17 0 -28 17z" />
    <glyph glyph-name="Iacute" unicode="&#xcd;" horiz-adv-x="501" 
d="M305 1368v-1343q0 -25 -22 -25h-62q-24 0 -24 25v1343q0 25 24 25h62q22 0 22 -25zM467 1774l-166 -244q-9 -14 -29 -14h-51q-11 0 -15 6t3 16l149 240q13 20 31 20h66q13 0 16.5 -7t-4.5 -17z" />
    <glyph glyph-name="Icircumflex" unicode="&#xce;" horiz-adv-x="501" 
d="M305 1368v-1343q0 -25 -22 -25h-62q-24 0 -24 25v1343q0 25 24 25h62q22 0 22 -25zM250 1729l-123 -189q-14 -24 -35 -24h-47q-12 0 -15.5 7t3.5 17l160 234q17 24 36 24h41q22 0 37 -22l162 -236q7 -10 3.5 -17t-15.5 -7h-49q-16 0 -33 24z" />
    <glyph glyph-name="Idieresis" unicode="&#xcf;" horiz-adv-x="501" 
d="M305 1368v-1343q0 -25 -22 -25h-62q-24 0 -24 25v1343q0 25 24 25h62q22 0 22 -25zM193 1755v-201q0 -24 -23 -24h-37q-24 0 -24 24v201q0 25 24 25h37q23 0 23 -25zM393 1755v-201q0 -24 -22 -24h-37q-25 0 -25 24v201q0 25 25 25h37q22 0 22 -25z" />
    <glyph glyph-name="Eth" unicode="&#xd0;" horiz-adv-x="1226" 
d="M625 0h-406q-22 0 -22 25v639h-148q-24 0 -24 24v37q0 23 24 23h148v620q0 25 22 25h406q428 0 428 -289v-815q0 -289 -428 -289zM625 1298h-320v-550h293q25 0 25 -23v-37q0 -24 -25 -24h-293v-570h320q171 0 245 55t74 156v782q0 101 -74 156t-245 55z" />
    <glyph glyph-name="Ntilde" unicode="&#xd1;" horiz-adv-x="1247" 
d="M1051 1368v-1343q0 -25 -23 -25h-55q-17 0 -23 12l-585 1043q-21 32 -42.5 72.5t-23.5 48.5v-1151q0 -25 -23 -25h-55q-24 0 -24 25v1343q0 25 24 25h55q14 0 21 -11l592 -1050l59 -117v1153q0 25 25 25h55q23 0 23 -25zM489 1696q-39 0 -51 -22t-12 -89v-18
q0 -23 -27 -23h-34q-21 0 -21 29l2 41q8 166 137 166q59 0 107 -39l94 -76q45 -35 74 -35q38 0 50.5 22.5t12.5 88.5v18q0 23 27 23h33q22 0 22 -27l-2 -41q-8 -168 -139 -168q-55 0 -107 41l-92 74q-49 35 -74 35z" />
    <glyph glyph-name="Ograve" unicode="&#xd2;" horiz-adv-x="1202" 
d="M547 1530l-166 244q-16 24 10 24h66q17 0 32 -22l148 -238q7 -12 4 -18.5t-14 -6.5h-52q-17 0 -28 17zM174 272v848q0 289 426 289q430 0 430 -289v-848q0 -288 -430 -288q-426 0 -426 288zM920 289v815q0 211 -320 211q-317 0 -317 -211v-815q0 -211 317 -211
q320 0 320 211z" />
    <glyph glyph-name="Oacute" unicode="&#xd3;" horiz-adv-x="1202" 
d="M801 1774l-166 -244q-9 -14 -29 -14h-51q-11 0 -15 6t3 16l149 240q13 20 31 20h65q13 0 17 -7t-4 -17zM174 272v848q0 289 426 289q430 0 430 -289v-848q0 -288 -430 -288q-426 0 -426 288zM920 289v815q0 211 -320 211q-317 0 -317 -211v-815q0 -211 317 -211
q320 0 320 211z" />
    <glyph glyph-name="Ocircumflex" unicode="&#xd4;" horiz-adv-x="1202" 
d="M600 1729l-123 -189q-14 -24 -35 -24h-47q-12 0 -15.5 7t3.5 17l160 234q17 24 37 24h41q21 0 36 -22l162 -236q7 -10 3.5 -17t-15.5 -7h-49q-16 0 -33 24zM174 272v848q0 289 426 289q430 0 430 -289v-848q0 -288 -430 -288q-426 0 -426 288zM920 289v815
q0 211 -320 211q-317 0 -317 -211v-815q0 -211 317 -211q320 0 320 211z" />
    <glyph glyph-name="Otilde" unicode="&#xd5;" horiz-adv-x="1202" 
d="M174 272v848q0 289 426 289q430 0 430 -289v-848q0 -288 -430 -288q-426 0 -426 288zM920 289v815q0 211 -320 211q-317 0 -317 -211v-815q0 -211 317 -211q320 0 320 211zM467 1696q-39 0 -51.5 -22t-12.5 -89v-18q0 -23 -26 -23h-35q-20 0 -20 29l2 41q8 166 137 166
q58 0 106 -39l95 -76q45 -35 73 -35q38 0 51 22.5t13 88.5v18q0 23 26 23h33q23 0 23 -27l-2 -41q-8 -168 -140 -168q-54 0 -106 41l-92 74q-49 35 -74 35z" />
    <glyph glyph-name="Odieresis" unicode="&#xd6;" horiz-adv-x="1202" 
d="M174 272v848q0 289 426 289q430 0 430 -289v-848q0 -288 -430 -288q-426 0 -426 288zM920 289v815q0 211 -320 211q-317 0 -317 -211v-815q0 -211 317 -211q320 0 320 211zM543 1755v-201q0 -24 -23 -24h-37q-24 0 -24 24v201q0 25 24 25h37q23 0 23 -25zM743 1755v-201
q0 -24 -22 -24h-37q-25 0 -25 24v201q0 25 25 25h37q22 0 22 -25z" />
    <glyph glyph-name="multiply" unicode="&#xd7;" horiz-adv-x="1116" 
d="M717 324l-176 307l-308 -176q-23 -12 -34 10l-19 37q-11 22 8 33l308 176l-179 307q-11 20 9 33l36 22q21 14 33 -10l178 -307l310 178q22 12 32 -8l21 -37q12 -21 -10 -35l-308 -178l177 -305q14 -22 -9 -35l-36 -21q-21 -12 -33 9z" />
    <glyph glyph-name="Oslash" unicode="&#xd8;" horiz-adv-x="1202" 
d="M174 272v846q0 291 426 291q180 0 289 -53l26 55q1 1 4 7t4.5 8.5t5 7t7 6.5t8 4t10.5 2h23q25 0 8 -35l-45 -90q90 -70 90 -203v-846q0 -288 -430 -288q-189 0 -289 53l-26 -55q-19 -35 -39 -35h-23q-25 0 -8 35l43 90q-84 70 -84 200zM920 287v817q0 59 -31 110
l-531 -1083q77 -55 242 -55q320 0 320 211zM283 287q0 -66 28 -109l531 1082q-80 55 -242 55q-317 0 -317 -211v-817z" />
    <glyph glyph-name="Ugrave" unicode="&#xd9;" horiz-adv-x="1226" 
d="M567 1530l-166 244q-7 9 -4.5 16.5t15.5 7.5h65q18 0 33 -22l147 -238q7 -12 4 -18.5t-14 -6.5h-51q-18 0 -29 17zM293 1368v-1079q0 -101 74 -156t245 -55q320 0 320 211v1079q0 25 24 25h62q22 0 22 -25v-1096q0 -288 -428 -288t-428 288v1096q0 25 25 25h61
q23 0 23 -25z" />
    <glyph glyph-name="Uacute" unicode="&#xda;" horiz-adv-x="1226" 
d="M293 1368v-1079q0 -101 74 -156t245 -55q320 0 320 211v1079q0 25 24 25h62q22 0 22 -25v-1096q0 -288 -428 -288t-428 288v1096q0 25 25 25h61q23 0 23 -25zM823 1774l-166 -244q-9 -14 -28 -14h-51q-11 0 -15.5 6t2.5 16l150 240q13 20 30 20h66q13 0 16.5 -7t-4.5 -17
z" />
    <glyph glyph-name="Ucircumflex" unicode="&#xdb;" horiz-adv-x="1226" 
d="M612 1729l-123 -189q-14 -24 -34 -24h-47q-12 0 -16 7t3 17l160 234q17 24 37 24h41q22 0 37 -22l161 -236q7 -10 3.5 -17t-15.5 -7h-49q-16 0 -33 24zM293 1368v-1079q0 -101 74 -156t245 -55q320 0 320 211v1079q0 25 24 25h62q22 0 22 -25v-1096q0 -288 -428 -288
t-428 288v1096q0 25 25 25h61q23 0 23 -25z" />
    <glyph glyph-name="Udieresis" unicode="&#xdc;" horiz-adv-x="1226" 
d="M293 1368v-1079q0 -101 74 -156t245 -55q320 0 320 211v1079q0 25 24 25h62q22 0 22 -25v-1096q0 -288 -428 -288t-428 288v1096q0 25 25 25h61q23 0 23 -25zM555 1755v-201q0 -24 -23 -24h-36q-25 0 -25 24v201q0 25 25 25h36q23 0 23 -25zM756 1755v-201q0 -24 -23 -24
h-37q-24 0 -24 24v201q0 25 24 25h37q23 0 23 -25z" />
    <glyph glyph-name="Yacute" unicode="&#xdd;" horiz-adv-x="1042" 
d="M162 1368l332 -631q17 -34 28 -67q0 2 31 67l336 631q14 25 31 25h59q32 0 18 -25l-419 -790v-553q0 -25 -25 -25h-61q-23 0 -23 25v540l-422 803q-6 12 -1 18.5t17 6.5h68q19 0 31 -25zM750 1774l-166 -244q-9 -14 -29 -14h-51q-11 0 -15 6t3 16l149 240q13 20 31 20h65
q13 0 17 -7t-4 -17z" />
    <glyph glyph-name="Thorn" unicode="&#xde;" horiz-adv-x="1153" 
d="M305 1368v-358h313q429 0 429 -289v-219q0 -289 -429 -289h-313v-188q0 -25 -22 -25h-62q-24 0 -24 25v1343q0 25 24 25h62q22 0 22 -25zM618 918h-313v-613h313q320 0 320 213v187q0 213 -320 213z" />
    <glyph glyph-name="germandbls" unicode="&#xdf;" horiz-adv-x="1212" 
d="M326 1190v-1165q0 -25 -25 -25h-59q-25 0 -25 25v893h-133q-23 0 -23 24v33q0 24 23 24l115 7h18v192q0 252 383 252q381 0 381 -252v-78q0 -40 -16.5 -73t-43.5 -52.5t-51 -31t-49 -17.5l-129 -35q-23 -6 -35.5 -10.5t-36 -16.5t-35.5 -31t-12 -44v-12q0 -84 123 -129
l244 -90q190 -69 190 -201v-144q0 -58 -15 -100.5t-50.5 -77.5t-102.5 -53t-165 -18q-97 0 -162.5 17t-100 51t-48 76.5t-13.5 102.5v25q0 25 25 25h41q24 0 24 -25v-29q0 -82 49.5 -125t184.5 -43q71 0 118.5 12t72.5 36.5t34.5 52.5t9.5 67v131q0 86 -141 134l-238 88
q-31 12 -54.5 24.5t-54 36.5t-48 61t-17.5 84v27q0 123 162 166l115 31q125 35 125 125v55q0 174 -277 174q-278 0 -278 -174z" />
    <glyph glyph-name="agrave" unicode="&#xe0;" horiz-adv-x="1028" 
d="M154 737v37q0 119 81.5 185.5t274.5 66.5q194 0 275 -66t81 -186v-749q0 -25 -22 -25h-51q-25 0 -25 25l-4 81q-153 -122 -348 -122q-137 0 -209 66t-72 171v105q0 104 66.5 170.5t189.5 66.5h371v203q0 82 -56 127t-198 45t-198 -44t-56 -126v-31q0 -24 -25 -24h-53
q-22 0 -22 24zM438 74q170 0 324 121v282h-352q-86 0 -128 -43.5t-42 -120.5v-80q0 -75 49 -117t149 -42zM504 1182l-166 243q-8 11 -4.5 18t16.5 7h66q20 0 33 -20l147 -240q14 -23 -10 -23h-51q-23 0 -31 15z" />
    <glyph glyph-name="aacute" unicode="&#xe1;" horiz-adv-x="1028" 
d="M154 737v37q0 119 81.5 185.5t274.5 66.5q194 0 275 -66t81 -186v-749q0 -25 -22 -25h-51q-25 0 -25 25l-4 81q-153 -122 -348 -122q-137 0 -209 66t-72 171v105q0 104 66.5 170.5t189.5 66.5h371v203q0 82 -56 127t-198 45t-198 -44t-56 -126v-31q0 -24 -25 -24h-53
q-22 0 -22 24zM438 74q170 0 324 121v282h-352q-86 0 -128 -43.5t-42 -120.5v-80q0 -75 49 -117t149 -42zM686 1425l-166 -243q-10 -15 -28 -15h-52q-24 0 -12 23l147 240q13 20 33 20h66q26 0 12 -25z" />
    <glyph glyph-name="acircumflex" unicode="&#xe2;" horiz-adv-x="1028" 
d="M154 737v37q0 119 81.5 185.5t274.5 66.5q194 0 275 -66t81 -186v-749q0 -25 -22 -25h-51q-25 0 -25 25l-4 81q-153 -122 -348 -122q-137 0 -209 66t-72 171v105q0 104 66.5 170.5t189.5 66.5h371v203q0 82 -56 127t-198 45t-198 -44t-56 -126v-31q0 -24 -25 -24h-53
q-22 0 -22 24zM438 74q170 0 324 121v282h-352q-86 0 -128 -43.5t-42 -120.5v-80q0 -75 49 -117t149 -42zM514 1380l-125 -188q-14 -25 -33 -25h-49q-12 0 -15.5 7.5t3.5 17.5l160 233q18 25 37 25h40q24 0 39 -23l160 -235q7 -10 3.5 -17.5t-15.5 -7.5h-47q-17 0 -35 25z
" />
    <glyph glyph-name="atilde" unicode="&#xe3;" horiz-adv-x="1028" 
d="M154 737v37q0 119 81.5 185.5t274.5 66.5q194 0 275 -66t81 -186v-749q0 -25 -22 -25h-51q-25 0 -25 25l-4 81q-153 -122 -348 -122q-137 0 -209 66t-72 171v105q0 104 66.5 170.5t189.5 66.5h371v203q0 82 -56 127t-198 45t-198 -44t-56 -126v-31q0 -24 -25 -24h-53
q-22 0 -22 24zM438 74q170 0 324 121v282h-352q-86 0 -128 -43.5t-42 -120.5v-80q0 -75 49 -117t149 -42zM379 1339q-38 0 -51 -23t-13 -89v-17q0 -22 -26 -22h-33q-23 0 -23 26l3 41q8 168 137 168q56 0 106 -41l94 -75q45 -35 74 -35q38 0 51 22.5t13 87.5v19q0 22 26 22
h33q23 0 23 -26l-2 -41q-8 -168 -138 -168q-57 0 -106 41l-94 74q-46 36 -74 36z" />
    <glyph glyph-name="adieresis" unicode="&#xe4;" horiz-adv-x="1028" 
d="M154 737v37q0 119 81.5 185.5t274.5 66.5q194 0 275 -66t81 -186v-749q0 -25 -22 -25h-51q-25 0 -25 25l-4 81q-153 -122 -348 -122q-137 0 -209 66t-72 171v105q0 104 66.5 170.5t189.5 66.5h371v203q0 82 -56 127t-198 45t-198 -44t-56 -126v-31q0 -24 -25 -24h-53
q-22 0 -22 24zM438 74q170 0 324 121v282h-352q-86 0 -128 -43.5t-42 -120.5v-80q0 -75 49 -117t149 -42zM455 1413v-201q0 -24 -25 -24h-37q-24 0 -24 24v201q0 25 24 25h37q25 0 25 -25zM655 1413v-201q0 -24 -24 -24h-37q-25 0 -25 24v201q0 25 25 25h37q24 0 24 -25z
" />
    <glyph glyph-name="aring" unicode="&#xe5;" horiz-adv-x="1028" 
d="M154 737v37q0 119 81.5 185.5t274.5 66.5q194 0 275 -66t81 -186v-749q0 -25 -22 -25h-51q-25 0 -25 25l-4 81q-153 -122 -348 -122q-137 0 -209 66t-72 171v105q0 104 66.5 170.5t189.5 66.5h371v203q0 82 -56 127t-198 45t-198 -44t-56 -126v-31q0 -24 -25 -24h-53
q-22 0 -22 24zM438 74q170 0 324 121v282h-352q-86 0 -128 -43.5t-42 -120.5v-80q0 -75 49 -117t149 -42zM700 1323v-39q0 -67 -45 -106t-139 -39t-139 39t-45 106v39q0 67 45 106t139 39t139 -39t45 -106zM635 1294v19q0 94 -119 94q-117 0 -117 -94v-19q0 -94 117 -94
q119 0 119 94z" />
    <glyph glyph-name="ae" unicode="&#xe6;" horiz-adv-x="1615" 
d="M1487 774v-252q0 -22 -23 -22h-598v-267q0 -81 58 -123t202 -42q142 0 201 45t59 127v45q0 22 23 22h51q25 0 25 -22v-49q0 -58 -18 -102t-58.5 -78.5t-111.5 -53t-171 -18.5q-152 0 -233.5 37.5t-108.5 109.5q-175 -147 -368 -147q-141 0 -211 65.5t-70 171.5v86
q0 105 67 171.5t189 66.5h371v239q0 160 -254 160q-142 0 -198 -44t-56 -126v-37q0 -24 -25 -24h-53q-24 0 -24 24v39q0 58 18 101.5t58 78t111 52.5t171 18q242 0 303 -125q69 125 313 125q194 0 277.5 -66.5t83.5 -185.5zM438 70q162 0 324 141v256h-356
q-81 0 -123.5 -45.5t-42.5 -118.5v-70q0 -75 50.5 -119t147.5 -44zM866 770v-192h520v192q0 82 -59 127t-201 45q-143 0 -201.5 -45t-58.5 -127z" />
    <glyph glyph-name="ccedilla" unicode="&#xe7;" horiz-adv-x="974" 
d="M469 -111h80q70 0 119 -38t49 -121q0 -84 -49.5 -123t-118.5 -39h-242q-24 0 -24 24v23q0 25 24 25h230q98 0 98 90q0 88 -98 88h-121q-22 0 -29 8.5t-4 21.5l39 140q-147 14 -209.5 78t-62.5 170v536q0 122 82 188t278 66q100 0 171 -18t111 -53t58 -79.5t18 -103.5v-39
q0 -13 -5 -18.5t-19 -5.5h-53q-25 0 -25 24v33q0 82 -56.5 126t-199.5 44q-142 0 -198 -44t-56 -126v-522q0 -83 56 -126.5t198 -43.5q60 0 104.5 8t73.5 22t46.5 36t24.5 47t7 57v49q0 24 25 24h53q14 0 19 -5.5t5 -18.5v-57q0 -120 -82.5 -186t-277.5 -66h-12z" />
    <glyph glyph-name="egrave" unicode="&#xe8;" horiz-adv-x="1003" 
d="M874 772v-254q0 -22 -22 -22h-598v-254q0 -82 57.5 -126t202.5 -44t202.5 44t57.5 126v43q0 24 23 24h53q24 0 24 -24v-49q0 -119 -83 -185.5t-279 -66.5t-279 66.5t-83 185.5v536q0 121 84 187.5t280 66.5q195 0 277.5 -66.5t82.5 -187.5zM254 768v-190h520v190
q0 80 -59 125t-201 45q-143 0 -201.5 -44.5t-58.5 -125.5zM475 1182l-166 243q-8 11 -4 18t17 7h65q20 0 33 -20l147 -240q14 -23 -10 -23h-51q-24 0 -31 15z" />
    <glyph glyph-name="eacute" unicode="&#xe9;" horiz-adv-x="1003" 
d="M705 1425l-166 -243q-10 -15 -29 -15h-51q-25 0 -13 23l148 240q13 20 33 20h65q27 0 13 -25zM874 772v-254q0 -22 -22 -22h-598v-254q0 -82 57.5 -126t202.5 -44t202.5 44t57.5 126v43q0 24 23 24h53q24 0 24 -24v-49q0 -119 -83 -185.5t-279 -66.5t-279 66.5t-83 185.5
v536q0 121 84 187.5t280 66.5q195 0 277.5 -66.5t82.5 -187.5zM254 768v-190h520v190q0 80 -59 125t-201 45q-143 0 -201.5 -44.5t-58.5 -125.5z" />
    <glyph glyph-name="ecircumflex" unicode="&#xea;" horiz-adv-x="1003" 
d="M514 1380l-125 -188q-14 -25 -33 -25h-49q-12 0 -15.5 7.5t3.5 17.5l160 233q18 25 37 25h40q24 0 39 -23l160 -235q7 -10 3.5 -17.5t-15.5 -7.5h-47q-17 0 -35 25zM874 772v-254q0 -22 -22 -22h-598v-254q0 -82 57.5 -126t202.5 -44t202.5 44t57.5 126v43q0 24 23 24h53
q24 0 24 -24v-49q0 -119 -83 -185.5t-279 -66.5t-279 66.5t-83 185.5v536q0 121 84 187.5t280 66.5q195 0 277.5 -66.5t82.5 -187.5zM254 768v-190h520v190q0 80 -59 125t-201 45q-143 0 -201.5 -44.5t-58.5 -125.5z" />
    <glyph glyph-name="edieresis" unicode="&#xeb;" horiz-adv-x="1003" 
d="M455 1413v-201q0 -24 -25 -24h-37q-24 0 -24 24v201q0 25 24 25h37q25 0 25 -25zM655 1413v-201q0 -24 -24 -24h-37q-25 0 -25 24v201q0 25 25 25h37q24 0 24 -25zM874 772v-254q0 -22 -22 -22h-598v-254q0 -82 57.5 -126t202.5 -44t202.5 44t57.5 126v43q0 24 23 24h53
q24 0 24 -24v-49q0 -119 -83 -185.5t-279 -66.5t-279 66.5t-83 185.5v536q0 121 84 187.5t280 66.5q195 0 277.5 -66.5t82.5 -187.5zM254 768v-190h520v190q0 80 -59 125t-201 45q-143 0 -201.5 -44.5t-58.5 -125.5z" />
    <glyph glyph-name="igrave" unicode="&#xec;" horiz-adv-x="452" 
d="M281 985v-960q0 -25 -25 -25h-59q-23 0 -23 25v960q0 25 23 25h59q25 0 25 -25zM170 1182l-166 243q-8 11 -4.5 18t16.5 7h66q20 0 33 -20l147 -240q14 -23 -10 -23h-51q-23 0 -31 15z" />
    <glyph glyph-name="iacute" unicode="&#xed;" horiz-adv-x="452" 
d="M440 1425l-166 -243q-10 -15 -28 -15h-51q-25 0 -13 23l148 240q13 20 32 20h66q26 0 12 -25zM281 985v-960q0 -25 -25 -25h-59q-23 0 -23 25v960q0 25 23 25h59q25 0 25 -25z" />
    <glyph glyph-name="icircumflex" unicode="&#xee;" horiz-adv-x="452" 
d="M229 1380l-125 -188q-14 -25 -32 -25h-49q-12 0 -16 7.5t3 17.5l160 233q18 25 37 25h41q24 0 39 -23l159 -235q7 -10 3.5 -17.5t-15.5 -7.5h-47q-17 0 -35 25zM281 985v-960q0 -25 -25 -25h-59q-23 0 -23 25v960q0 25 23 25h59q25 0 25 -25z" />
    <glyph glyph-name="idieresis" unicode="&#xef;" horiz-adv-x="452" 
d="M170 1413v-201q0 -24 -25 -24h-36q-25 0 -25 24v201q0 25 25 25h36q25 0 25 -25zM371 1413v-201q0 -24 -25 -24h-37q-24 0 -24 24v201q0 25 24 25h37q25 0 25 -25zM281 985v-960q0 -25 -25 -25h-59q-23 0 -23 25v960q0 25 23 25h59q25 0 25 -25z" />
    <glyph glyph-name="eth" unicode="&#xf0;" horiz-adv-x="1130" 
d="M567 1243l170 72q-61 55 -213 55h-178q-24 0 -24 25v30q0 25 24 25h178q219 0 301 -88l111 49q22 11 31 -8l8 -17q10 -20 -12 -30l-101 -47q25 -48 25 -111v-962q0 -252 -367 -252q-370 0 -370 252v538q0 117 70.5 184.5t211.5 67.5q190 0 352 -125v281q0 42 -20 75
l-168 -71q-25 -12 -33 10l-6 14q-12 24 10 33zM784 244v565q-150 123 -327 123q-102 0 -151.5 -47t-49.5 -123v-518q0 -82 60.5 -127t203.5 -45t203.5 45t60.5 127z" />
    <glyph glyph-name="ntilde" unicode="&#xf1;" horiz-adv-x="1075" 
d="M250 1010q24 0 24 -25l2 -86q153 127 357 127q139 0 209.5 -67t70.5 -179v-755q0 -25 -22 -25h-60q-22 0 -22 25v735q0 79 -49.5 124.5t-151.5 45.5q-109 0 -192 -39t-135 -84v-782q0 -25 -25 -25h-57q-25 0 -25 25v960q0 25 25 25h51zM397 1346q-38 0 -50.5 -23
t-12.5 -90v-16q0 -23 -27 -23h-33q-22 0 -22 27l2 41q8 168 137 168q57 0 107 -41l94 -76q45 -35 74 -35q38 0 50.5 23t12.5 88v18q0 23 27 23h32q23 0 23 -27l-2 -41q-8 -168 -137 -168q-58 0 -107 41l-94 74q-47 37 -74 37z" />
    <glyph glyph-name="ograve" unicode="&#xf2;" horiz-adv-x="1040" 
d="M150 236v536q0 254 370 254q371 0 371 -254v-536q0 -252 -371 -252q-370 0 -370 252zM784 244v522q0 81 -60.5 125.5t-203.5 44.5t-203.5 -44.5t-60.5 -125.5v-522q0 -82 60.5 -126t203.5 -44t203.5 44t60.5 126zM475 1182l-166 243q-8 11 -4 18t17 7h65q20 0 33 -20
l147 -240q14 -23 -10 -23h-51q-24 0 -31 15z" />
    <glyph glyph-name="oacute" unicode="&#xf3;" horiz-adv-x="1040" 
d="M729 1425l-166 -243q-10 -15 -28 -15h-52q-23 0 -12 23l147 240q13 20 33 20h66q26 0 12 -25zM150 236v536q0 254 370 254q371 0 371 -254v-536q0 -252 -371 -252q-370 0 -370 252zM784 244v522q0 81 -60.5 125.5t-203.5 44.5t-203.5 -44.5t-60.5 -125.5v-522
q0 -82 60.5 -126t203.5 -44t203.5 44t60.5 126z" />
    <glyph glyph-name="ocircumflex" unicode="&#xf4;" horiz-adv-x="1040" 
d="M522 1380l-125 -188q-14 -25 -32 -25h-50q-12 0 -15.5 7.5t3.5 17.5l160 233q18 25 37 25h41q24 0 39 -23l159 -235q7 -10 3.5 -17.5t-15.5 -7.5h-47q-17 0 -35 25zM150 236v536q0 254 370 254q371 0 371 -254v-536q0 -252 -371 -252q-370 0 -370 252zM784 244v522
q0 81 -60.5 125.5t-203.5 44.5t-203.5 -44.5t-60.5 -125.5v-522q0 -82 60.5 -126t203.5 -44t203.5 44t60.5 126z" />
    <glyph glyph-name="otilde" unicode="&#xf5;" horiz-adv-x="1040" 
d="M150 236v536q0 254 370 254q371 0 371 -254v-536q0 -252 -371 -252q-370 0 -370 252zM784 244v522q0 81 -60.5 125.5t-203.5 44.5t-203.5 -44.5t-60.5 -125.5v-522q0 -82 60.5 -126t203.5 -44t203.5 44t60.5 126zM387 1339q-38 0 -50.5 -22.5t-12.5 -89.5v-17
q0 -22 -27 -22h-33q-13 0 -17.5 6t-4.5 20l2 41q8 168 137 168q56 0 106 -41l95 -75q45 -35 73 -35q38 0 51 22.5t13 87.5v19q0 22 26 22h33q23 0 23 -26l-2 -41q-8 -168 -137 -168q-58 0 -107 41l-94 74q-46 36 -74 36z" />
    <glyph glyph-name="odieresis" unicode="&#xf6;" horiz-adv-x="1040" 
d="M463 1413v-201q0 -24 -25 -24h-37q-24 0 -24 24v201q0 25 24 25h37q25 0 25 -25zM664 1413v-201q0 -24 -25 -24h-37q-24 0 -24 24v201q0 25 24 25h37q25 0 25 -25zM150 236v536q0 254 370 254q371 0 371 -254v-536q0 -252 -371 -252q-370 0 -370 252zM784 244v522
q0 81 -60.5 125.5t-203.5 44.5t-203.5 -44.5t-60.5 -125.5v-522q0 -82 60.5 -126t203.5 -44t203.5 44t60.5 126z" />
    <glyph glyph-name="divide" unicode="&#xf7;" horiz-adv-x="1208" 
d="M197 713h815q24 0 24 -23v-43q0 -24 -24 -24h-813q-25 0 -25 24v43q0 23 23 23zM659 414v-158q0 -25 -24 -25h-60q-24 0 -24 25v158q0 24 24 24h60q24 0 24 -24zM659 1085v-157q0 -25 -24 -25h-60q-24 0 -24 25v157q0 25 24 25h60q24 0 24 -25z" />
    <glyph glyph-name="oslash" unicode="&#xf8;" horiz-adv-x="1040" 
d="M150 236v536q0 254 370 254q149 0 236 -41l26 47q19 35 39 35h27q23 0 4 -35l-43 -78q82 -65 82 -182v-536q0 -252 -371 -252q-146 0 -239 41l-25 -43q-18 -35 -39 -35h-22q-14 0 -15 12.5t6 22.5l43 75q-79 60 -79 179zM784 244v522q0 58 -28 96l-428 -753
q62 -35 192 -35q143 0 203.5 44t60.5 126zM256 244q0 -54 27 -94l424 751q-62 35 -187 35q-143 0 -203.5 -44.5t-60.5 -125.5v-522z" />
    <glyph glyph-name="ugrave" unicode="&#xf9;" 
d="M788 25l-4 81q-143 -122 -342 -122q-138 0 -209 66.5t-71 176.5v756q0 27 22 27h60q24 0 24 -27v-733q0 -79 49 -124.5t152 -45.5q169 0 315 121v782q0 27 23 27h59q23 0 23 -27v-958q0 -25 -23 -25h-53q-25 0 -25 25zM502 1182l-166 243q-8 11 -4.5 18t16.5 7h66
q19 0 32 -20l148 -240q14 -23 -10 -23h-52q-22 0 -30 15z" />
    <glyph glyph-name="uacute" unicode="&#xfa;" 
d="M729 1425l-166 -243q-10 -15 -28 -15h-52q-23 0 -12 23l147 240q13 20 33 20h66q26 0 12 -25zM788 25l-4 81q-143 -122 -342 -122q-138 0 -209 66.5t-71 176.5v756q0 27 22 27h60q24 0 24 -27v-733q0 -79 49 -124.5t152 -45.5q169 0 315 121v782q0 27 23 27h59
q23 0 23 -27v-958q0 -25 -23 -25h-53q-25 0 -25 25z" />
    <glyph glyph-name="ucircumflex" unicode="&#xfb;" 
d="M528 1380l-125 -188q-14 -25 -32 -25h-49q-12 0 -16 7.5t3 17.5l160 233q18 25 37 25h41q24 0 39 -23l159 -235q7 -10 3.5 -17.5t-15.5 -7.5h-47q-17 0 -35 25zM788 25l-4 81q-143 -122 -342 -122q-138 0 -209 66.5t-71 176.5v756q0 27 22 27h60q24 0 24 -27v-733
q0 -79 49 -124.5t152 -45.5q169 0 315 121v782q0 27 23 27h59q23 0 23 -27v-958q0 -25 -23 -25h-53q-25 0 -25 25z" />
    <glyph glyph-name="udieresis" unicode="&#xfc;" 
d="M475 1413v-201q0 -24 -24 -24h-37q-25 0 -25 24v201q0 25 25 25h37q24 0 24 -25zM676 1413v-201q0 -24 -25 -24h-37q-24 0 -24 24v201q0 25 24 25h37q25 0 25 -25zM788 25l-4 81q-143 -122 -342 -122q-138 0 -209 66.5t-71 176.5v756q0 27 22 27h60q24 0 24 -27v-733
q0 -79 49 -124.5t152 -45.5q169 0 315 121v782q0 27 23 27h59q23 0 23 -27v-958q0 -25 -23 -25h-53q-25 0 -25 25z" />
    <glyph glyph-name="yacute" unicode="&#xfd;" horiz-adv-x="862" 
d="M152 985l251 -739q12 -36 29 -105q0 20 29 101l254 743q7 25 28 25h58q25 0 18 -25l-473 -1386q-7 -25 -29 -25h-47q-25 0 -18 25l131 397l-340 989q-7 25 18 25h62q22 0 29 -25zM647 1425l-166 -243q-10 -15 -28 -15h-52q-23 0 -12 23l148 240q13 20 32 20h66
q26 0 12 -25z" />
    <glyph glyph-name="thorn" unicode="&#xfe;" horiz-adv-x="1064" 
d="M281 1407v-506q152 125 352 125q141 0 211.5 -67.5t70.5 -184.5v-538q0 -117 -70.5 -184.5t-211.5 -67.5q-204 0 -352 122v-507q0 -25 -25 -25h-59q-23 0 -23 25v1808q0 25 23 25h59q25 0 25 -25zM809 248v514q0 76 -50 123t-153 47q-175 0 -325 -123v-610
q147 -121 325 -121q103 0 153 47t50 123z" />
    <glyph glyph-name="ydieresis" unicode="&#xff;" horiz-adv-x="862" 
d="M152 985l251 -739q12 -36 29 -105q0 20 29 101l254 743q7 25 28 25h58q25 0 18 -25l-473 -1386q-7 -25 -29 -25h-47q-25 0 -18 25l131 397l-340 989q-7 25 18 25h62q22 0 29 -25zM381 1413v-201q0 -24 -25 -24h-37q-24 0 -24 24v201q0 25 24 25h37q25 0 25 -25zM582 1413
v-201q0 -24 -25 -24h-37q-24 0 -24 24v201q0 25 24 25h37q25 0 25 -25z" />
    <glyph glyph-name="Amacron" unicode="&#x100;" 
d="M500 1393h63q25 0 31 -25l416 -1343q9 -25 -19 -25h-63q-23 0 -29 25l-125 397h-493l-121 -397q-6 -25 -29 -25h-59q-28 0 -19 25l416 1343q6 25 31 25zM750 510l-170 549q-39 130 -52 215q-19 -107 -47 -211l-174 -553h443zM268 1679h527q24 0 24 -22v-37q0 -25 -24 -25
h-527q-24 0 -24 25v37q0 22 24 22z" />
    <glyph glyph-name="amacron" unicode="&#x101;" horiz-adv-x="1028" 
d="M154 737v37q0 119 81.5 185.5t274.5 66.5q194 0 275 -66t81 -186v-749q0 -25 -22 -25h-51q-25 0 -25 25l-4 81q-153 -122 -348 -122q-137 0 -209 66t-72 171v105q0 104 66.5 170.5t189.5 66.5h371v203q0 82 -56 127t-198 45t-198 -44t-56 -126v-31q0 -24 -25 -24h-53
q-22 0 -22 24zM438 74q170 0 324 121v282h-352q-86 0 -128 -43.5t-42 -120.5v-80q0 -75 49 -117t149 -42zM250 1323h526q25 0 25 -25v-36q0 -25 -25 -25h-526q-25 0 -25 25v36q0 25 25 25z" />
    <glyph glyph-name="Abreve" unicode="&#x102;" 
d="M500 1393h63q25 0 31 -25l416 -1343q9 -25 -19 -25h-63q-23 0 -29 25l-125 397h-493l-121 -397q-6 -25 -29 -25h-59q-28 0 -19 25l416 1343q6 25 31 25zM750 510l-170 549q-39 130 -52 215q-19 -107 -47 -211l-174 -553h443zM381 1778v-35q0 -74 30.5 -113t118.5 -39
q89 0 120.5 39t31.5 113v35q0 12 5 17t18 5h36q23 0 23 -22v-33q0 -109 -53.5 -166t-182.5 -57q-128 0 -178.5 56.5t-50.5 166.5v33q0 22 23 22h36q23 0 23 -22z" />
    <glyph glyph-name="abreve" unicode="&#x103;" horiz-adv-x="1028" 
d="M154 737v37q0 119 81.5 185.5t274.5 66.5q194 0 275 -66t81 -186v-749q0 -25 -22 -25h-51q-25 0 -25 25l-4 81q-153 -122 -348 -122q-137 0 -209 66t-72 171v105q0 104 66.5 170.5t189.5 66.5h371v203q0 82 -56 127t-198 45t-198 -44t-56 -126v-31q0 -24 -25 -24h-53
q-22 0 -22 24zM438 74q170 0 324 121v282h-352q-86 0 -128 -43.5t-42 -120.5v-80q0 -75 49 -117t149 -42zM369 1399v-37q0 -73 31 -111.5t120 -38.5q88 0 119 39t31 111v37q0 12 4.5 17t17.5 5h37q23 0 23 -22v-35q0 -108 -53 -165.5t-181 -57.5q-129 0 -180 57t-51 166v35
q0 22 22 22h37q23 0 23 -22z" />
    <glyph glyph-name="Aogonek" unicode="&#x104;" 
d="M500 1393h63q22 0 31 -25l416 -1343q9 -25 -19 -25h-20q-70 -12 -105 -52.5t-35 -86.5q0 -88 119 -88h47q23 0 23 -25v-29q0 -24 -29 -24h-63q-82 0 -132.5 36.5t-50.5 114.5q0 48 36 105.5t110 93.5l-117 377h-493l-123 -397q-6 -25 -27 -25h-59q-28 0 -19 25l416 1343
q6 25 31 25zM750 510l-170 549q-26 87 -52 215q-3 -18 -19 -94.5t-28 -116.5l-174 -553h443z" />
    <glyph glyph-name="aogonek" unicode="&#x105;" horiz-adv-x="1028" 
d="M154 737v37q0 119 81.5 185.5t274.5 66.5q194 0 275 -66t81 -186v-749q0 -25 -22 -25h-8q-68 -14 -102 -55t-34 -86q0 -86 117 -86h33q24 0 24 -25v-29q0 -24 -28 -24h-55q-78 0 -127.5 38.5t-49.5 112.5q0 55 41.5 107.5t112.5 87.5l-4 65q-153 -122 -348 -122
q-137 0 -209 66t-72 171v105q0 104 66.5 170.5t189.5 66.5h371v203q0 82 -56 127t-198 45t-198 -44t-56 -126v-31q0 -24 -25 -24h-53q-22 0 -22 24zM438 74q170 0 324 121v282h-352q-86 0 -128 -43.5t-42 -120.5v-80q0 -75 49 -117t149 -42z" />
    <glyph glyph-name="Cacute" unicode="&#x106;" horiz-adv-x="1120" 
d="M1010 406v-134q0 -64 -19.5 -113t-65 -90t-129.5 -63t-204 -22t-204 22t-129.5 63t-65 90t-19.5 113v848q0 64 19.5 113.5t65 90.5t129.5 63t204 22t204 -22t129.5 -63t65 -90.5t19.5 -113.5v-106q0 -27 -23 -27h-59q-25 0 -25 27v90q0 49 -15 86t-50 66t-96.5 44
t-149.5 15q-170 0 -239.5 -54.5t-69.5 -156.5v-815q0 -102 69.5 -156.5t239.5 -54.5q88 0 149.5 15t96.5 44t50 66t15 86v117q0 22 25 22h59q23 0 23 -22zM778 1774l-166 -244q-9 -14 -28 -14h-52q-11 0 -15 6t3 16l150 240q13 20 30 20h66q13 0 16.5 -7t-4.5 -17z" />
    <glyph glyph-name="cacute" unicode="&#x107;" horiz-adv-x="974" 
d="M713 1425l-166 -243q-10 -15 -29 -15h-51q-23 0 -12 23l147 240q13 20 33 20h65q27 0 13 -25zM510 1026q100 0 171 -18t111 -53t58 -79.5t18 -103.5v-39q0 -13 -5 -18.5t-19 -5.5h-53q-25 0 -25 24v33q0 82 -56.5 126t-199.5 44q-142 0 -198 -44t-56 -126v-522
q0 -83 56 -126.5t198 -43.5q60 0 104.5 8t73.5 22t46.5 36t24.5 47t7 57v49q0 24 25 24h53q14 0 19 -5.5t5 -18.5v-57q0 -120 -82.5 -186t-277.5 -66q-194 0 -276 66t-82 186v536q0 122 82 188t278 66z" />
    <glyph glyph-name="Ccircumflex" unicode="&#x108;" horiz-adv-x="1120" 
d="M1010 406v-134q0 -64 -19.5 -113t-65 -90t-129.5 -63t-204 -22t-204 22t-129.5 63t-65 90t-19.5 113v848q0 64 19.5 113.5t65 90.5t129.5 63t204 22t204 -22t129.5 -63t65 -90.5t19.5 -113.5v-106q0 -27 -23 -27h-59q-25 0 -25 27v90q0 49 -15 86t-50 66t-96.5 44
t-149.5 15q-170 0 -239.5 -54.5t-69.5 -156.5v-815q0 -102 69.5 -156.5t239.5 -54.5q88 0 149.5 15t96.5 44t50 66t15 86v117q0 22 25 22h59q23 0 23 -22zM561 1729l-123 -189q-14 -24 -35 -24h-47q-12 0 -15.5 7t3.5 17l160 234q17 24 37 24h41q21 0 36 -22l162 -236
q7 -10 3.5 -17t-15.5 -7h-49q-16 0 -33 24z" />
    <glyph glyph-name="ccircumflex" unicode="&#x109;" horiz-adv-x="974" 
d="M487 1380l-125 -188q-14 -25 -32 -25h-49q-12 0 -16 7.5t3 17.5l160 233q18 25 37 25h41q24 0 39 -23l160 -235q7 -10 3 -17.5t-16 -7.5h-47q-17 0 -35 25zM510 1026q100 0 171 -18t111 -53t58 -79.5t18 -103.5v-39q0 -13 -5 -18.5t-19 -5.5h-53q-25 0 -25 24v33
q0 82 -56.5 126t-199.5 44q-142 0 -198 -44t-56 -126v-522q0 -83 56 -126.5t198 -43.5q60 0 104.5 8t73.5 22t46.5 36t24.5 47t7 57v49q0 24 25 24h53q14 0 19 -5.5t5 -18.5v-57q0 -120 -82.5 -186t-277.5 -66q-194 0 -276 66t-82 186v536q0 122 82 188t278 66z" />
    <glyph glyph-name="Cdotaccent" unicode="&#x10a;" horiz-adv-x="1120" 
d="M614 1716v-157q0 -25 -24 -25h-60q-24 0 -24 25v157q0 25 24 25h60q24 0 24 -25zM1010 406v-134q0 -64 -19.5 -113t-65 -90t-129.5 -63t-204 -22t-204 22t-129.5 63t-65 90t-19.5 113v848q0 64 19.5 113.5t65 90.5t129.5 63t204 22t204 -22t129.5 -63t65 -90.5
t19.5 -113.5v-106q0 -27 -23 -27h-59q-25 0 -25 27v90q0 49 -15 86t-50 66t-96.5 44t-149.5 15q-170 0 -239.5 -54.5t-69.5 -156.5v-815q0 -102 69.5 -156.5t239.5 -54.5q88 0 149.5 15t96.5 44t50 66t15 86v117q0 22 25 22h59q23 0 23 -22z" />
    <glyph glyph-name="cdotaccent" unicode="&#x10b;" horiz-adv-x="974" 
d="M510 1026q100 0 171 -18t111 -53t58 -79.5t18 -103.5v-39q0 -13 -5 -18.5t-19 -5.5h-53q-25 0 -25 24v33q0 82 -56.5 126t-199.5 44q-142 0 -198 -44t-56 -126v-522q0 -83 56 -126.5t198 -43.5q60 0 104.5 8t73.5 22t46.5 36t24.5 47t7 57v49q0 24 25 24h53q14 0 19 -5.5
t5 -18.5v-57q0 -120 -82.5 -186t-277.5 -66q-194 0 -276 66t-82 186v536q0 122 82 188t278 66zM541 1382v-157q0 -25 -23 -25h-61q-25 0 -25 25v157q0 25 25 25h61q23 0 23 -25z" />
    <glyph glyph-name="Ccaron" unicode="&#x10c;" horiz-adv-x="1120" 
d="M1010 406v-134q0 -64 -19.5 -113t-65 -90t-129.5 -63t-204 -22t-204 22t-129.5 63t-65 90t-19.5 113v848q0 64 19.5 113.5t65 90.5t129.5 63t204 22t204 -22t129.5 -63t65 -90.5t19.5 -113.5v-106q0 -27 -23 -27h-59q-25 0 -25 27v90q0 49 -15 86t-50 66t-96.5 44
t-149.5 15q-170 0 -239.5 -54.5t-69.5 -156.5v-815q0 -102 69.5 -156.5t239.5 -54.5q88 0 149.5 15t96.5 44t50 66t15 86v117q0 22 25 22h59q23 0 23 -22zM436 1774l123 -189l125 189q17 24 33 24h49q12 0 15.5 -7t-3.5 -17l-162 -236q-15 -22 -36 -22h-41q-20 0 -37 24
l-160 234q-7 10 -3.5 17t15.5 7h47q21 0 35 -24z" />
    <glyph glyph-name="ccaron" unicode="&#x10d;" horiz-adv-x="974" 
d="M362 1425l125 -188l123 188q18 25 35 25h47q12 0 16 -7t-3 -18l-160 -235q-15 -23 -39 -23h-41q-19 0 -37 25l-160 233q-7 11 -3 18t16 7h49q18 0 32 -25zM510 1026q100 0 171 -18t111 -53t58 -79.5t18 -103.5v-39q0 -13 -5 -18.5t-19 -5.5h-53q-25 0 -25 24v33
q0 82 -56.5 126t-199.5 44q-142 0 -198 -44t-56 -126v-522q0 -83 56 -126.5t198 -43.5q60 0 104.5 8t73.5 22t46.5 36t24.5 47t7 57v49q0 24 25 24h53q14 0 19 -5.5t5 -18.5v-57q0 -120 -82.5 -186t-277.5 -66q-194 0 -276 66t-82 186v536q0 122 82 188t278 66z" />
    <glyph glyph-name="Dcaron" unicode="&#x10e;" horiz-adv-x="1226" 
d="M625 0h-406q-22 0 -22 25v1343q0 25 22 25h406q428 0 428 -289v-815q0 -289 -428 -289zM625 1298h-320v-1204h320q171 0 245 55t74 156v782q0 101 -74 156t-245 55zM483 1774l123 -189l125 189q17 24 33 24h49q12 0 15.5 -7t-3.5 -17l-161 -236q-15 -22 -37 -22h-41
q-20 0 -37 24l-160 234q-7 10 -3.5 17t15.5 7h48q20 0 34 -24z" />
    <glyph glyph-name="dcaron" unicode="&#x10f;" horiz-adv-x="1144" 
d="M1063 1380v56q0 24 24 24h46q24 0 24 -24v-60q0 -108 -76 -233q-11 -19 -32 -13l-35 11q-22 6 -10 33q6 14 19.5 42t18 38.5t11 32t8.5 43t2 50.5zM791 25l-5 84q-157 -125 -356 -125q-141 0 -210.5 67.5t-69.5 184.5v538q0 117 69.5 184.5t210.5 67.5q192 0 354 -125
v506q0 25 23 25h59q25 0 25 -25v-1382q0 -25 -25 -25h-51q-24 0 -24 25zM256 760v-510q0 -76 49.5 -123t151.5 -47q165 0 327 121v604q-148 123 -327 123q-102 0 -151.5 -46.5t-49.5 -121.5z" />
    <glyph glyph-name="Dcroat" unicode="&#x110;" horiz-adv-x="1226" 
d="M625 0h-406q-22 0 -22 25v639h-148q-24 0 -24 24v37q0 23 24 23h148v620q0 25 22 25h406q428 0 428 -289v-815q0 -289 -428 -289zM625 1298h-320v-550h293q25 0 25 -23v-37q0 -24 -25 -24h-293v-570h320q171 0 245 55t74 156v782q0 101 -74 156t-245 55z" />
    <glyph glyph-name="dcroat" unicode="&#x111;" horiz-adv-x="1064" 
d="M791 25l-5 84q-157 -125 -356 -125q-141 0 -210.5 67.5t-69.5 184.5v538q0 117 69.5 184.5t210.5 67.5q192 0 354 -125v254h-344q-24 0 -24 25v30q0 25 24 25h344v172q0 25 23 25h59q25 0 25 -25v-172h90q25 0 25 -25v-30q0 -25 -25 -25h-90v-1130q0 -25 -25 -25h-51
q-24 0 -24 25zM256 760v-510q0 -76 49.5 -123t151.5 -47q165 0 327 121v604q-148 123 -327 123q-102 0 -151.5 -46.5t-49.5 -121.5z" />
    <glyph glyph-name="Emacron" unicode="&#x112;" horiz-adv-x="1079" 
d="M944 0h-725q-22 0 -22 25v1343q0 25 24 25h699q24 0 24 -25v-45q0 -25 -24 -25h-615v-520h578q24 0 24 -24v-43q0 -25 -24 -25h-578v-592h639q25 0 25 -24v-45q0 -25 -25 -25zM295 1679h526q25 0 25 -22v-37q0 -25 -25 -25h-526q-25 0 -25 25v37q0 22 25 22z" />
    <glyph glyph-name="emacron" unicode="&#x113;" horiz-adv-x="1003" 
d="M874 772v-254q0 -22 -22 -22h-598v-254q0 -82 57.5 -126t202.5 -44t202.5 44t57.5 126v43q0 24 23 24h53q24 0 24 -24v-49q0 -119 -83 -185.5t-279 -66.5t-279 66.5t-83 185.5v536q0 121 84 187.5t280 66.5q195 0 277.5 -66.5t82.5 -187.5zM254 768v-190h520v190
q0 80 -59 125t-201 45q-143 0 -201.5 -44.5t-58.5 -125.5zM238 1323h526q24 0 24 -25v-36q0 -25 -24 -25h-526q-25 0 -25 25v36q0 25 25 25z" />
    <glyph glyph-name="Ebreve" unicode="&#x114;" horiz-adv-x="1079" 
d="M944 0h-725q-22 0 -22 25v1343q0 25 24 25h699q24 0 24 -25v-45q0 -25 -24 -25h-615v-520h578q24 0 24 -24v-43q0 -25 -24 -25h-578v-592h639q25 0 25 -24v-45q0 -25 -25 -25zM416 1778v-35q0 -74 30.5 -113t118.5 -39q89 0 120.5 39t31.5 113v35q0 12 4.5 17t17.5 5h37
q23 0 23 -22v-33q0 -109 -53.5 -166t-182.5 -57q-128 0 -178.5 56.5t-50.5 166.5v33q0 22 22 22h37q23 0 23 -22z" />
    <glyph glyph-name="ebreve" unicode="&#x115;" horiz-adv-x="1003" 
d="M874 772v-254q0 -22 -22 -22h-598v-254q0 -82 57.5 -126t202.5 -44t202.5 44t57.5 126v43q0 24 23 24h53q24 0 24 -24v-49q0 -119 -83 -185.5t-279 -66.5t-279 66.5t-83 185.5v536q0 121 84 187.5t280 66.5q195 0 277.5 -66.5t82.5 -187.5zM254 768v-190h520v190
q0 80 -59 125t-201 45q-143 0 -201.5 -44.5t-58.5 -125.5zM352 1399v-37q0 -72 31.5 -111t120.5 -39q88 0 118.5 38.5t30.5 111.5v37q0 12 5 17t18 5h37q22 0 22 -22v-35q0 -108 -52.5 -165.5t-180.5 -57.5q-129 0 -180.5 57.5t-51.5 165.5v35q0 22 23 22h37q22 0 22 -22z
" />
    <glyph glyph-name="Edotaccent" unicode="&#x116;" horiz-adv-x="1079" 
d="M621 1716v-157q0 -25 -25 -25h-59q-25 0 -25 25v157q0 25 25 25h59q25 0 25 -25zM944 0h-725q-22 0 -22 25v1343q0 25 24 25h699q24 0 24 -25v-45q0 -25 -24 -25h-615v-520h578q24 0 24 -24v-43q0 -25 -24 -25h-578v-592h639q25 0 25 -24v-45q0 -25 -25 -25z" />
    <glyph glyph-name="edotaccent" unicode="&#x117;" horiz-adv-x="1003" 
d="M874 772v-254q0 -22 -22 -22h-598v-254q0 -82 57.5 -126t202.5 -44t202.5 44t57.5 126v43q0 24 23 24h53q24 0 24 -24v-49q0 -119 -83 -185.5t-279 -66.5t-279 66.5t-83 185.5v536q0 121 84 187.5t280 66.5q195 0 277.5 -66.5t82.5 -187.5zM254 768v-190h520v190
q0 80 -59 125t-201 45q-143 0 -201.5 -44.5t-58.5 -125.5z" />
    <glyph glyph-name="Eogonek" unicode="&#x118;" horiz-adv-x="1079" 
d="M944 0h-53q-73 0 -111.5 -40t-38.5 -93q0 -94 117 -94h57q25 0 25 -25v-29q0 -24 -29 -24h-75q-81 0 -132 38.5t-51 116.5q0 40 20.5 80.5t55.5 69.5h-510q-22 0 -22 25v1343q0 25 24 25h699q24 0 24 -25v-45q0 -25 -24 -25h-615v-520h578q24 0 24 -24v-43q0 -25 -24 -25
h-578v-592h639q25 0 25 -24v-45q0 -25 -25 -25z" />
    <glyph glyph-name="eogonek" unicode="&#x119;" horiz-adv-x="1003" 
d="M874 772v-254q0 -22 -22 -22h-598v-254q0 -82 57.5 -126t202.5 -44t202.5 44t57.5 126v43q0 24 23 24h53q24 0 24 -24v-49q0 -117 -73 -179q-10 -9 -34.5 -27.5t-37 -30.5t-29 -31.5t-23.5 -42.5t-7 -52q0 -100 121 -100h57q24 0 24 -25v-29q0 -24 -28 -24h-80
q-79 0 -128.5 39.5t-49.5 115.5q0 85 51 144q-58 -10 -125 -10q-196 0 -279 66.5t-83 185.5v536q0 121 84 187.5t280 66.5q195 0 277.5 -66.5t82.5 -187.5zM254 768v-190h520v190q0 80 -59 125t-201 45q-143 0 -201.5 -44.5t-58.5 -125.5z" />
    <glyph glyph-name="Ecaron" unicode="&#x11a;" horiz-adv-x="1079" 
d="M944 0h-725q-22 0 -22 25v1343q0 25 24 25h699q24 0 24 -25v-45q0 -25 -24 -25h-615v-520h578q24 0 24 -24v-43q0 -25 -24 -25h-578v-592h639q25 0 25 -24v-45q0 -25 -25 -25zM416 1774l123 -189l125 189q17 24 32 24h49q12 0 16 -7t-3 -17l-162 -236q-15 -22 -37 -22
h-41q-20 0 -37 24l-159 234q-7 10 -3.5 17t15.5 7h47q21 0 35 -24z" />
    <glyph glyph-name="ecaron" unicode="&#x11b;" horiz-adv-x="1003" 
d="M379 1425l125 -188l123 188q18 25 35 25h47q12 0 15.5 -7t-3.5 -18l-160 -235q-15 -23 -39 -23h-41q-19 0 -37 25l-159 233q-7 11 -3.5 18t15.5 7h49q19 0 33 -25zM874 772v-254q0 -22 -22 -22h-598v-254q0 -82 57.5 -126t202.5 -44t202.5 44t57.5 126v43q0 24 23 24h53
q24 0 24 -24v-49q0 -119 -83 -185.5t-279 -66.5t-279 66.5t-83 185.5v536q0 121 84 187.5t280 66.5q195 0 277.5 -66.5t82.5 -187.5zM254 768v-190h520v190q0 80 -59 125t-201 45q-143 0 -201.5 -44.5t-58.5 -125.5z" />
    <glyph glyph-name="Gcircumflex" unicode="&#x11c;" horiz-adv-x="1153" 
d="M575 1729l-122 -189q-14 -24 -35 -24h-47q-12 0 -16 7t3 17l160 234q17 24 37 24h41q22 0 37 -22l162 -236q7 -10 3 -17t-16 -7h-49q-16 0 -33 24zM610 653h375q25 0 25 -24v-357q0 -64 -19.5 -113t-65 -90t-129.5 -63t-204 -22t-204 22t-129.5 63t-65 90t-19.5 113v848
q0 64 19.5 113.5t65 90.5t129.5 63t204 22t204 -22t129.5 -63t65 -90.5t19.5 -113.5v-102q0 -25 -23 -25h-59q-25 0 -25 25v86q0 49 -15 86t-50 66t-96.5 44t-149.5 15q-170 0 -239.5 -54.5t-69.5 -156.5v-815q0 -102 69.5 -156.5t239.5 -54.5q169 0 240 54t71 153v274h-293
q-24 0 -24 25v45q0 24 24 24z" />
    <glyph glyph-name="gcircumflex" unicode="&#x11d;" horiz-adv-x="1064" 
d="M532 1380l-124 -188q-14 -25 -33 -25h-49q-12 0 -16 7.5t3 17.5l160 233q18 25 37 25h41q24 0 39 -23l160 -235q7 -10 3 -17.5t-16 -7.5h-47q-17 0 -35 25zM430 -16q-141 0 -210.5 67.5t-69.5 184.5v538q0 117 69.5 184.5t210.5 67.5q197 0 356 -127l5 84q0 27 24 27h51
q25 0 25 -27v-1155q0 -254 -367 -254h-276q-25 0 -25 25v43q0 24 25 24h276q142 0 201 44.5t59 125.5v270q-158 -122 -354 -122zM256 760v-510q0 -76 49.5 -123t151.5 -47q165 0 327 121v604q-148 123 -327 123q-102 0 -151.5 -46.5t-49.5 -121.5z" />
    <glyph glyph-name="Gbreve" unicode="&#x11e;" horiz-adv-x="1153" 
d="M610 653h375q25 0 25 -24v-357q0 -64 -19.5 -113t-65 -90t-129.5 -63t-204 -22t-204 22t-129.5 63t-65 90t-19.5 113v848q0 64 19.5 113.5t65 90.5t129.5 63t204 22t204 -22t129.5 -63t65 -90.5t19.5 -113.5v-102q0 -25 -23 -25h-59q-25 0 -25 25v86q0 49 -15 86t-50 66
t-96.5 44t-149.5 15q-170 0 -239.5 -54.5t-69.5 -156.5v-815q0 -102 69.5 -156.5t239.5 -54.5q169 0 240 54t71 153v274h-293q-24 0 -24 25v45q0 24 24 24zM426 1778v-35q0 -74 30.5 -113t118.5 -39q89 0 120.5 39t31.5 113v35q0 12 5 17t18 5h36q23 0 23 -22v-33
q0 -109 -53.5 -166t-182.5 -57q-128 0 -178.5 56.5t-50.5 166.5v33q0 22 23 22h36q23 0 23 -22z" />
    <glyph glyph-name="gbreve" unicode="&#x11f;" horiz-adv-x="1064" 
d="M430 -16q-141 0 -210.5 67.5t-69.5 184.5v538q0 117 69.5 184.5t210.5 67.5q197 0 356 -127l5 84q0 27 24 27h51q25 0 25 -27v-1155q0 -254 -367 -254h-276q-25 0 -25 25v43q0 24 25 24h276q142 0 201 44.5t59 125.5v270q-158 -122 -354 -122zM256 760v-510
q0 -76 49.5 -123t151.5 -47q165 0 327 121v604q-148 123 -327 123q-102 0 -151.5 -46.5t-49.5 -121.5zM379 1399v-37q0 -73 31 -111.5t120 -38.5q88 0 119 39t31 111v37q0 12 4.5 17t17.5 5h37q23 0 23 -22v-35q0 -108 -53 -165.5t-181 -57.5q-129 0 -180 57t-51 166v35
q0 22 22 22h37q23 0 23 -22z" />
    <glyph glyph-name="Gdotaccent" unicode="&#x120;" horiz-adv-x="1153" 
d="M631 1710v-158q0 -24 -25 -24h-59q-25 0 -25 24v158q0 25 25 25h59q25 0 25 -25zM610 647h375q25 0 25 -24v-357q0 -64 -19.5 -113.5t-65 -90.5t-129.5 -63t-204 -22t-204 22t-129.5 63t-65 90.5t-19.5 113.5v848q0 64 19.5 113.5t65 90.5t129.5 63t204 22t204 -22
t129.5 -63t65 -90.5t19.5 -113.5v-102q0 -25 -23 -25h-59q-25 0 -25 25v86q0 49 -15 86t-50 66t-96.5 44t-149.5 15q-170 0 -239.5 -54.5t-69.5 -156.5v-815q0 -102 69.5 -156.5t239.5 -54.5q169 0 240 54t71 153v274h-293q-24 0 -24 25v45q0 24 24 24z" />
    <glyph glyph-name="gdotaccent" unicode="&#x121;" horiz-adv-x="1064" 
d="M430 -16q-141 0 -210.5 67.5t-69.5 184.5v538q0 117 69.5 184.5t210.5 67.5q197 0 356 -127l5 84q0 27 24 27h51q25 0 25 -27v-1155q0 -254 -367 -254h-276q-25 0 -25 25v43q0 24 25 24h276q142 0 201 44.5t59 125.5v270q-158 -122 -354 -122zM256 760v-510
q0 -76 49.5 -123t151.5 -47q165 0 327 121v604q-148 123 -327 123q-102 0 -151.5 -46.5t-49.5 -121.5zM565 1382v-157q0 -25 -22 -25h-62q-24 0 -24 25v157q0 25 24 25h62q22 0 22 -25z" />
    <glyph glyph-name="Gcommaaccent" unicode="&#x122;" horiz-adv-x="1153" 
d="M547 -182v55q0 25 24 25h45q25 0 25 -25v-59q0 -109 -76 -234q-11 -18 -33 -12l-34 10q-23 7 -11 33q7 15 20 42t17.5 38.5t11.5 33t9 43t2 50.5zM610 653h375q25 0 25 -24v-357q0 -64 -19.5 -113t-65 -90t-129.5 -63t-204 -22t-204 22t-129.5 63t-65 90t-19.5 113v848
q0 64 19.5 113.5t65 90.5t129.5 63t204 22t204 -22t129.5 -63t65 -90.5t19.5 -113.5v-102q0 -25 -23 -25h-59q-25 0 -25 25v86q0 49 -15 86t-50 66t-96.5 44t-149.5 15q-170 0 -239.5 -54.5t-69.5 -156.5v-815q0 -102 69.5 -156.5t239.5 -54.5q169 0 240 54t71 153v274h-293
q-24 0 -24 25v45q0 24 24 24z" />
    <glyph glyph-name="gcommaaccent" unicode="&#x123;" horiz-adv-x="1064" 
d="M547 1253v-55q0 -24 -25 -24h-45q-24 0 -24 24v59q0 110 75 234q11 18 33 12l35 -10q22 -6 10 -33q-6 -14 -19.5 -42t-17.5 -38.5t-11 -32.5t-9 -43.5t-2 -50.5zM430 -16q-141 0 -210.5 67.5t-69.5 184.5v538q0 117 69.5 184.5t210.5 67.5q197 0 356 -127l5 84
q0 27 24 27h51q25 0 25 -27v-1155q0 -254 -367 -254h-276q-25 0 -25 25v43q0 24 25 24h276q142 0 201 44.5t59 125.5v270q-158 -122 -354 -122zM256 760v-510q0 -76 49.5 -123t151.5 -47q165 0 327 121v604q-148 123 -327 123q-102 0 -151.5 -46.5t-49.5 -121.5z" />
    <glyph glyph-name="Hcircumflex" unicode="&#x124;" horiz-adv-x="1249" 
d="M305 1368v-577h639v577q0 25 23 25h63q23 0 23 -25v-1343q0 -25 -23 -25h-63q-23 0 -23 25v671h-639v-671q0 -25 -22 -25h-62q-24 0 -24 25v1343q0 25 24 25h62q22 0 22 -25zM623 1729l-123 -189q-14 -24 -35 -24h-47q-12 0 -15.5 7t3.5 17l159 234q17 24 37 24h41
q22 0 37 -22l162 -236q7 -10 3 -17t-16 -7h-49q-15 0 -32 24z" />
    <glyph glyph-name="hcircumflex" unicode="&#x125;" horiz-adv-x="1075" 
d="M281 1407v-506q151 125 352 125q139 0 209.5 -67t70.5 -179v-755q0 -25 -22 -25h-60q-22 0 -22 25v735q0 79 -49.5 124.5t-151.5 45.5q-109 0 -192 -39t-135 -84v-782q0 -25 -25 -25h-57q-25 0 -25 25v1382q0 25 25 25h57q25 0 25 -25zM225 1729l-123 -189
q-14 -24 -34 -24h-48q-12 0 -15.5 7t3.5 17l160 234q17 24 37 24h41q22 0 37 -22l161 -236q7 -10 3.5 -17t-15.5 -7h-49q-16 0 -33 24z" />
    <glyph glyph-name="Hbar" unicode="&#x126;" horiz-adv-x="1249" 
d="M305 1368v-262h639v262q0 25 23 25h63q23 0 23 -25v-262h77q25 0 25 -25v-30q0 -25 -25 -25h-77v-1001q0 -25 -23 -25h-63q-23 0 -23 25v671h-639v-671q0 -25 -22 -25h-62q-24 0 -24 25v1001h-78q-25 0 -25 25v30q0 25 25 25h78v262q0 25 24 25h62q22 0 22 -25zM305 791
h639v235h-639v-235z" />
    <glyph glyph-name="hbar" unicode="&#x127;" horiz-adv-x="1075" 
d="M281 1407v-172h319q25 0 25 -23v-32q0 -25 -25 -25h-319v-254q151 125 352 125q139 0 209.5 -67t70.5 -179v-755q0 -25 -22 -25h-60q-22 0 -22 25v735q0 79 -49.5 124.5t-151.5 45.5q-109 0 -192 -39t-135 -84v-782q0 -25 -25 -25h-57q-25 0 -25 25v1130h-115
q-24 0 -24 25v32q0 23 24 23h115v172q0 25 25 25h57q25 0 25 -25z" />
    <glyph glyph-name="Itilde" unicode="&#x128;" horiz-adv-x="501" 
d="M305 1368v-1343q0 -25 -22 -25h-62q-24 0 -24 25v1343q0 25 24 25h62q22 0 22 -25zM117 1696q-39 0 -51.5 -22t-12.5 -89v-18q0 -23 -26 -23h-35q-21 0 -21 29l2 41q8 166 138 166q58 0 106 -39l94 -76q45 -35 74 -35q38 0 51 22.5t13 88.5v18q0 23 26 23h33q22 0 22 -27
l-2 -41q-8 -168 -139 -168q-54 0 -106 41l-93 74q-49 35 -73 35z" />
    <glyph glyph-name="itilde" unicode="&#x129;" horiz-adv-x="452" 
d="M281 985v-960q0 -25 -25 -25h-59q-23 0 -23 25v960q0 25 23 25h59q25 0 25 -25zM92 1339q-38 0 -50.5 -22.5t-12.5 -89.5v-17q0 -22 -27 -22h-33q-13 0 -17.5 6t-4.5 20l2 41q8 168 137 168q57 0 107 -41l94 -75q45 -35 73 -35q38 0 51 22.5t13 87.5v19q0 22 27 22h32
q23 0 23 -26l-2 -41q-8 -168 -137 -168q-58 0 -107 41l-94 74q-46 36 -74 36z" />
    <glyph glyph-name="Imacron" unicode="&#x12a;" horiz-adv-x="501" 
d="M305 1368v-1343q0 -25 -22 -25h-62q-24 0 -24 25v1343q0 25 24 25h62q22 0 22 -25zM-12 1679h526q25 0 25 -22v-37q0 -25 -25 -25h-526q-25 0 -25 25v37q0 22 25 22z" />
    <glyph glyph-name="imacron" unicode="&#x12b;" horiz-adv-x="452" 
d="M281 985v-960q0 -25 -25 -25h-59q-23 0 -23 25v960q0 25 23 25h59q25 0 25 -25zM-37 1323h526q25 0 25 -25v-36q0 -25 -25 -25h-526q-24 0 -24 25v36q0 25 24 25z" />
    <glyph glyph-name="Ibreve" unicode="&#x12c;" horiz-adv-x="501" 
d="M305 1368v-1343q0 -25 -22 -25h-62q-24 0 -24 25v1343q0 25 24 25h62q22 0 22 -25zM100 1778v-35q0 -74 31 -113t119 -39q89 0 120 39t31 113v35q0 12 5 17t18 5h37q22 0 22 -22v-33q0 -109 -53 -166t-182 -57q-128 0 -179 57t-51 166v33q0 22 23 22h37q22 0 22 -22z" />
    <glyph glyph-name="ibreve" unicode="&#x12d;" horiz-adv-x="452" 
d="M281 985v-960q0 -25 -25 -25h-59q-23 0 -23 25v960q0 25 23 25h59q25 0 25 -25zM76 1399v-37q0 -73 31 -111.5t120 -38.5q88 0 119 39t31 111v37q0 12 4.5 17t17.5 5h37q23 0 23 -22v-35q0 -108 -53 -165.5t-181 -57.5q-129 0 -180 57t-51 166v35q0 22 22 22h37
q23 0 23 -22z" />
    <glyph glyph-name="Iogonek" unicode="&#x12e;" horiz-adv-x="501" 
d="M305 1368v-1343q0 -25 -22 -25h-21q-66 -12 -99.5 -53t-33.5 -86q0 -88 117 -88h47q24 0 24 -25v-29q0 -24 -30 -24h-62q-82 0 -133 36.5t-51 114.5q0 55 44.5 113t111.5 88v1321q0 25 24 25h62q22 0 22 -25z" />
    <glyph glyph-name="iogonek" unicode="&#x12f;" horiz-adv-x="452" 
d="M264 -305h-63q-82 0 -132.5 36.5t-50.5 114.5q0 56 43.5 114.5t112.5 86.5v936q0 27 25 27h57q25 0 25 -27v-958q0 -25 -25 -25h-18q-68 -14 -101 -54t-33 -85q0 -88 119 -88h45q25 0 25 -25v-29q0 -24 -29 -24zM281 1407v-195q0 -24 -25 -24h-57q-25 0 -25 24v195
q0 25 25 25h57q25 0 25 -25z" />
    <glyph glyph-name="Idotaccent" unicode="&#x130;" horiz-adv-x="501" 
d="M305 1368v-1343q0 -25 -22 -25h-62q-24 0 -24 25v1343q0 25 24 25h62q22 0 22 -25zM305 1716v-157q0 -25 -24 -25h-60q-24 0 -24 25v157q0 25 24 25h60q24 0 24 -25z" />
    <glyph glyph-name="dotlessi" unicode="&#x131;" horiz-adv-x="452" 
d="M281 985v-960q0 -25 -25 -25h-59q-23 0 -23 25v960q0 25 23 25h59q25 0 25 -25z" />
    <glyph glyph-name="IJ" unicode="&#x132;" horiz-adv-x="1509" 
d="M305 1368v-1343q0 -25 -22 -25h-62q-24 0 -24 25v1343q0 25 24 25h62q22 0 22 -25zM678 356v-67q0 -103 59.5 -157t210.5 -54q78 0 131.5 15t82.5 44.5t40.5 65.5t11.5 86v1079q0 25 23 25h61q25 0 25 -25v-1096q0 -64 -17 -113t-57 -90t-116 -63t-185 -22t-185 22
t-117 63t-58 90t-17 113v84q0 25 25 25h59q23 0 23 -25z" />
    <glyph glyph-name="ij" unicode="&#x133;" horiz-adv-x="903" 
d="M281 983v-958q0 -25 -25 -25h-57q-25 0 -25 25v958q0 27 25 27h57q25 0 25 -27zM281 1407v-195q0 -24 -25 -24h-57q-25 0 -25 24v195q0 25 25 25h57q25 0 25 -25zM731 1407v-195q0 -24 -24 -24h-60q-22 0 -22 24v195q0 25 22 25h60q24 0 24 -25zM731 983v-1155
q0 -254 -366 -254h-13q-24 0 -24 25v43q0 24 24 24h13q142 0 201 44.5t59 125.5v1147q0 27 22 27h60q24 0 24 -27z" />
    <glyph glyph-name="Jcircumflex" unicode="&#x134;" horiz-adv-x="1007" 
d="M176 356v-67q0 -103 59.5 -157t210.5 -54q78 0 132 15t82.5 44.5t40.5 65.5t12 86v1079q0 25 22 25h62q24 0 24 -25v-1096q0 -64 -17 -113t-57 -90t-116 -63t-185 -22t-185 22t-116.5 63t-57.5 90t-17 113v84q0 25 24 25h60q22 0 22 -25zM764 1729l-123 -189
q-14 -24 -35 -24h-47q-12 0 -15.5 7t3.5 17l160 234q17 24 36 24h41q22 0 37 -22l162 -236q7 -10 3.5 -17t-15.5 -7h-49q-16 0 -33 24z" />
    <glyph glyph-name="jcircumflex" unicode="&#x135;" horiz-adv-x="452" 
d="M281 985v-1159q0 -120 -86 -186t-283 -66h-10q-25 0 -25 25v41q0 24 25 24h10q144 0 203 44.5t59 125.5v1151q0 25 23 25h59q25 0 25 -25zM229 1380l-125 -188q-14 -25 -32 -25h-49q-12 0 -16 7.5t3 17.5l160 233q18 25 37 25h41q24 0 39 -23l159 -235q7 -10 3.5 -17.5
t-15.5 -7.5h-47q-17 0 -35 25z" />
    <glyph glyph-name="Kcommaaccent" unicode="&#x136;" horiz-adv-x="1103" 
d="M510 -182v55q0 25 25 25h45q24 0 24 -25v-59q0 -109 -76 -234q-10 -18 -32 -12l-35 10q-22 6 -10 33q6 14 19.5 42t17.5 38.5t11 32.5t9 43.5t2 50.5zM469 707l592 -682q7 -7 3 -16t-15 -9h-82q-5 0 -9.5 1t-9 4.5t-6.5 5.5l-7.5 7.5l-6.5 6.5l-551 630h-72v-630
q0 -25 -22 -25h-62q-24 0 -24 25v1343q0 25 24 25h62q22 0 22 -25v-629h70l506 631q19 23 41 23h67q13 0 16.5 -7.5t-4.5 -17.5z" />
    <glyph glyph-name="kcommaaccent" unicode="&#x137;" horiz-adv-x="921" 
d="M428 -182v55q0 25 25 25h45q24 0 24 -25v-59q0 -109 -76 -234q-10 -18 -32 -12l-35 10q-22 6 -10 33q6 14 19.5 42t17.5 38.5t11 32.5t9 43.5t2 50.5zM442 573l457 -548q7 -9 4 -17t-14 -8h-68q-24 0 -43 25l-422 501h-75v-501q0 -25 -25 -25h-59q-23 0 -23 25v1382
q0 25 23 25h59q25 0 25 -25v-797h73l373 375q25 25 41 25h68q12 0 15.5 -8t-5.5 -17z" />
    <glyph glyph-name="kgreenlandic" unicode="&#x138;" horiz-adv-x="921" 
d="M442 563l457 -538q7 -9 4 -17t-14 -8h-68q-24 0 -43 25l-422 491h-75v-491q0 -25 -25 -25h-59q-23 0 -23 25v960q0 25 23 25h59q25 0 25 -25v-385h73l373 385q25 25 41 25h68q12 0 15.5 -8t-5.5 -17z" />
    <glyph glyph-name="Lacute" unicode="&#x139;" horiz-adv-x="1011" 
d="M467 1774l-166 -244q-9 -14 -29 -14h-51q-11 0 -15 6t3 16l149 240q13 20 31 20h66q13 0 16.5 -7t-4.5 -17zM305 1368v-1274h606q25 0 25 -24v-45q0 -25 -25 -25h-694q-20 0 -20 25v1343q0 25 24 25h62q22 0 22 -25z" />
    <glyph glyph-name="lacute" unicode="&#x13a;" horiz-adv-x="452" 
d="M442 1774l-166 -244q-9 -14 -28 -14h-51q-11 0 -15.5 6t2.5 16l150 240q13 20 31 20h65q13 0 16.5 -7t-4.5 -17zM281 1407v-1382q0 -25 -25 -25h-57q-25 0 -25 25v1382q0 25 25 25h57q25 0 25 -25z" />
    <glyph glyph-name="Lcommaaccent" unicode="&#x13b;" horiz-adv-x="1011" 
d="M502 -182v55q0 25 24 25h45q25 0 25 -25v-59q0 -109 -76 -234q-11 -18 -33 -12l-34 10q-23 7 -11 33q7 15 20 42t17.5 38.5t11.5 33t9 43t2 50.5zM305 1368v-1274h606q25 0 25 -24v-45q0 -25 -25 -25h-694q-20 0 -20 25v1343q0 25 24 25h62q22 0 22 -25z" />
    <glyph glyph-name="lcommaaccent" unicode="&#x13c;" horiz-adv-x="452" 
d="M180 -182v55q0 25 25 25h45q24 0 24 -25v-59q0 -110 -75 -234q-11 -18 -33 -12l-35 10q-22 6 -10 33q6 14 19.5 42t17.5 38.5t11 32.5t9 43.5t2 50.5zM281 1407v-1382q0 -25 -25 -25h-57q-25 0 -25 25v1382q0 25 25 25h57q25 0 25 -25z" />
    <glyph glyph-name="Lcaron" unicode="&#x13d;" horiz-adv-x="1011" 
d="M672 1350v55q0 25 24 25h45q25 0 25 -25v-59q0 -109 -76 -234q-11 -18 -33 -12l-34 10q-23 7 -11 33q7 15 20 42t17.5 38.5t11.5 33t9 43t2 50.5zM305 1368v-1274h606q25 0 25 -24v-45q0 -25 -25 -25h-694q-20 0 -20 25v1343q0 25 24 25h62q22 0 22 -25z" />
    <glyph glyph-name="lcaron" unicode="&#x13e;" horiz-adv-x="532" 
d="M453 1380v56q0 24 24 24h45q25 0 25 -24v-60q0 -108 -76 -233q-11 -19 -33 -13l-35 11q-22 6 -10 33q7 16 20 42.5t17.5 38t11.5 32.5t9 42.5t2 50.5zM281 1407v-1382q0 -25 -25 -25h-57q-25 0 -25 25v1382q0 25 25 25h57q25 0 25 -25z" />
    <glyph glyph-name="Ldot" unicode="&#x13f;" horiz-adv-x="1011" 
d="M305 1368v-1274h606q25 0 25 -24v-45q0 -25 -25 -25h-694q-20 0 -20 25v1343q0 25 24 25h62q22 0 22 -25zM815 805v-158q0 -24 -24 -24h-60q-13 0 -18.5 5.5t-5.5 18.5v158q0 24 24 24h60q24 0 24 -24z" />
    <glyph glyph-name="ldot" unicode="&#x140;" horiz-adv-x="589" 
d="M281 1407v-1382q0 -25 -25 -25h-57q-25 0 -25 25v1382q0 25 25 25h57q25 0 25 -25zM551 805v-158q0 -24 -25 -24h-59q-25 0 -25 24v158q0 24 25 24h59q25 0 25 -24z" />
    <glyph glyph-name="Lslash" unicode="&#x141;" horiz-adv-x="1011" 
d="M305 1368v-614l141 59q22 9 31 -12l12 -25q4 -9 -0.5 -17.5t-15.5 -13.5l-168 -69v-582h606q25 0 25 -24v-45q0 -25 -25 -25h-694q-20 0 -20 25v606l-115 -47q-24 -10 -33 14l-8 23q-7 22 12 30l144 60v657q0 25 24 25h62q22 0 22 -25z" />
    <glyph glyph-name="lslash" unicode="&#x142;" horiz-adv-x="483" 
d="M295 1407v-647l129 53q22 9 31 -12l12 -25q4 -9 -0.5 -17.5t-15.5 -13.5l-156 -65v-655q0 -25 -25 -25h-57q-25 0 -25 25v612l-129 -53q-23 -10 -32 14l-9 23q-7 21 13 30l157 64v692q0 25 25 25h57q25 0 25 -25z" />
    <glyph glyph-name="Nacute" unicode="&#x143;" horiz-adv-x="1247" 
d="M1051 1368v-1343q0 -25 -23 -25h-55q-17 0 -23 12l-585 1043q-21 32 -42.5 72.5t-23.5 48.5v-1151q0 -25 -23 -25h-55q-24 0 -24 25v1343q0 25 24 25h55q14 0 21 -11l592 -1050l59 -117v1153q0 25 25 25h55q23 0 23 -25zM842 1774l-166 -244q-9 -14 -29 -14h-51
q-11 0 -15 6t3 16l149 240q13 20 31 20h65q13 0 17 -7t-4 -17z" />
    <glyph glyph-name="nacute" unicode="&#x144;" horiz-adv-x="1075" 
d="M762 1425l-166 -243q-10 -15 -29 -15h-51q-24 0 -12 23l147 240q13 20 33 20h66q26 0 12 -25zM250 1010q24 0 24 -25l2 -86q153 127 357 127q139 0 209.5 -67t70.5 -179v-755q0 -25 -22 -25h-60q-22 0 -22 25v735q0 79 -49.5 124.5t-151.5 45.5q-109 0 -192 -39t-135 -84
v-782q0 -25 -25 -25h-57q-25 0 -25 25v960q0 25 25 25h51z" />
    <glyph glyph-name="Ncommaaccent" unicode="&#x145;" horiz-adv-x="1247" 
d="M1051 1368v-1343q0 -25 -23 -25h-55q-17 0 -23 12l-585 1043q-21 32 -42.5 72.5t-23.5 48.5v-1151q0 -25 -23 -25h-55q-24 0 -24 25v1343q0 25 24 25h55q14 0 21 -11l592 -1050l59 -117v1153q0 25 25 25h55q23 0 23 -25zM582 -182v55q0 25 24 25h45q25 0 25 -25v-59
q0 -109 -76 -234q-11 -18 -33 -12l-35 10q-22 6 -10 33q7 15 20 42t17.5 38.5t11.5 33t9 43t2 50.5z" />
    <glyph glyph-name="ncommaaccent" unicode="&#x146;" horiz-adv-x="1075" 
d="M498 -180v55q0 25 24 25h45q25 0 25 -25v-59q0 -109 -76 -234q-11 -18 -33 -12l-34 10q-23 7 -11 33q7 15 20 42t17.5 38.5t11.5 33t9 43t2 50.5zM250 1010q24 0 24 -25l2 -86q153 127 357 127q139 0 209.5 -67t70.5 -179v-755q0 -25 -22 -25h-60q-22 0 -22 25v735
q0 79 -49.5 124.5t-151.5 45.5q-109 0 -192 -39t-135 -84v-782q0 -25 -25 -25h-57q-25 0 -25 25v960q0 25 25 25h51z" />
    <glyph glyph-name="Ncaron" unicode="&#x147;" horiz-adv-x="1247" 
d="M1051 1368v-1343q0 -25 -23 -25h-55q-17 0 -23 12l-585 1043q-21 32 -42.5 72.5t-23.5 48.5v-1151q0 -25 -23 -25h-55q-24 0 -24 25v1343q0 25 24 25h55q14 0 21 -11l592 -1050l59 -117v1153q0 25 25 25h55q23 0 23 -25zM500 1774l123 -189l125 189q17 24 32 24h49
q12 0 16 -7t-3 -17l-162 -236q-15 -22 -37 -22h-41q-20 0 -37 24l-159 234q-7 10 -3.5 17t15.5 7h47q21 0 35 -24z" />
    <glyph glyph-name="ncaron" unicode="&#x148;" horiz-adv-x="1075" 
d="M414 1425l125 -188l123 188q18 25 34 25h47q12 0 16 -7t-3 -18l-160 -235q-15 -23 -39 -23h-41q-19 0 -37 25l-160 233q-7 11 -3 18t16 7h49q19 0 33 -25zM250 1010q24 0 24 -25l2 -86q153 127 357 127q139 0 209.5 -67t70.5 -179v-755q0 -25 -22 -25h-60q-22 0 -22 25
v735q0 79 -49.5 124.5t-151.5 45.5q-109 0 -192 -39t-135 -84v-782q0 -25 -25 -25h-57q-25 0 -25 25v960q0 25 25 25h51z" />
    <glyph glyph-name="napostrophe" unicode="&#x149;" horiz-adv-x="1075" 
d="M168 1380v56q0 24 25 24h45q24 0 24 -24v-60q0 -108 -76 -233q-11 -19 -32 -13l-35 11q-22 6 -10 33q6 14 19.5 42t18 38.5t11 32t8.5 43t2 50.5zM250 1010q24 0 24 -25l2 -86q153 127 357 127q139 0 209.5 -67t70.5 -179v-755q0 -25 -22 -25h-60q-22 0 -22 25v735
q0 79 -49.5 124.5t-151.5 45.5q-109 0 -192 -39t-135 -84v-782q0 -25 -25 -25h-57q-25 0 -25 25v960q0 25 25 25h51z" />
    <glyph glyph-name="Eng" unicode="&#x14a;" horiz-adv-x="1247" 
d="M1051 1368v-1542q0 -121 -84 -186.5t-279 -65.5h-10q-25 0 -25 25v41q0 24 25 24h10q142 0 201 44.5t59 125.5v180l-583 1041l-66 125v-1155q0 -25 -23 -25h-55q-24 0 -24 25v1343q0 25 24 25h55q14 0 21 -11l592 -1050l59 -117v1153q0 25 25 25h55q23 0 23 -25z" />
    <glyph glyph-name="eng" unicode="&#x14b;" horiz-adv-x="1075" 
d="M197 1010h53q24 0 24 -25l2 -86q153 127 357 127q139 0 210.5 -66.5t71.5 -177.5v-956q0 -120 -85 -186t-281 -66h-10q-25 0 -25 25v41q0 24 25 24h10q142 0 201 44.5t59 125.5v928q0 79 -49.5 124.5t-151.5 45.5q-109 0 -192 -39t-135 -84v-784q0 -25 -25 -25h-59
q-23 0 -23 25v960q0 25 23 25z" />
    <glyph glyph-name="Omacron" unicode="&#x14c;" horiz-adv-x="1202" 
d="M174 272v848q0 289 426 289q430 0 430 -289v-848q0 -288 -430 -288q-426 0 -426 288zM920 289v815q0 211 -320 211q-317 0 -317 -211v-815q0 -211 317 -211q320 0 320 211zM338 1679h526q25 0 25 -22v-37q0 -25 -25 -25h-526q-25 0 -25 25v37q0 22 25 22z" />
    <glyph glyph-name="omacron" unicode="&#x14d;" horiz-adv-x="1040" 
d="M256 1323h526q25 0 25 -25v-36q0 -25 -25 -25h-526q-25 0 -25 25v36q0 25 25 25zM150 236v536q0 254 370 254q371 0 371 -254v-536q0 -252 -371 -252q-370 0 -370 252zM784 244v522q0 81 -60.5 125.5t-203.5 44.5t-203.5 -44.5t-60.5 -125.5v-522q0 -82 60.5 -126
t203.5 -44t203.5 44t60.5 126z" />
    <glyph glyph-name="Obreve" unicode="&#x14e;" horiz-adv-x="1202" 
d="M174 272v848q0 289 426 289q430 0 430 -289v-848q0 -288 -430 -288q-426 0 -426 288zM920 289v815q0 211 -320 211q-317 0 -317 -211v-815q0 -211 317 -211q320 0 320 211zM451 1778v-35q0 -74 30.5 -113t118.5 -39q89 0 120.5 39t31.5 113v35q0 12 4.5 17t17.5 5h37
q23 0 23 -22v-33q0 -109 -53.5 -166t-182.5 -57q-128 0 -178.5 56.5t-50.5 166.5v33q0 22 22 22h37q23 0 23 -22z" />
    <glyph glyph-name="obreve" unicode="&#x14f;" horiz-adv-x="1040" 
d="M150 236v536q0 254 370 254q371 0 371 -254v-536q0 -252 -371 -252q-370 0 -370 252zM784 244v522q0 81 -60.5 125.5t-203.5 44.5t-203.5 -44.5t-60.5 -125.5v-522q0 -82 60.5 -126t203.5 -44t203.5 44t60.5 126zM358 1399v-37q0 -72 31.5 -111t120.5 -39
q88 0 118.5 38.5t30.5 111.5v37q0 12 5 17t18 5h37q22 0 22 -22v-35q0 -108 -52.5 -165.5t-180.5 -57.5q-129 0 -180.5 57.5t-51.5 165.5v35q0 22 23 22h37q22 0 22 -22z" />
    <glyph glyph-name="Ohungarumlaut" unicode="&#x150;" horiz-adv-x="1202" 
d="M893 1774l-162 -238q-13 -20 -35 -20h-45q-12 0 -15 7t3 17l149 234q14 24 39 24h54q13 0 16.5 -7t-4.5 -17zM684 1774l-133 -234q-12 -24 -33 -24h-45q-11 0 -15 7.5t1 16.5l121 234q12 24 32 24h56q13 0 17.5 -7.5t-1.5 -16.5zM174 272v848q0 289 426 289
q430 0 430 -289v-848q0 -288 -430 -288q-426 0 -426 288zM920 289v815q0 211 -320 211q-317 0 -317 -211v-815q0 -211 317 -211q320 0 320 211z" />
    <glyph glyph-name="ohungarumlaut" unicode="&#x151;" horiz-adv-x="1040" 
d="M817 1425l-164 -237q-14 -21 -32 -21h-46q-26 0 -12 25l150 233q14 25 39 25h53q13 0 16.5 -7t-4.5 -18zM606 1425l-131 -233q-13 -25 -33 -25h-45q-13 0 -16 8t2 17l119 233q11 25 35 25h53q13 0 17.5 -7t-1.5 -18zM150 236v536q0 254 370 254q371 0 371 -254v-536
q0 -252 -371 -252q-370 0 -370 252zM784 244v522q0 81 -60.5 125.5t-203.5 44.5t-203.5 -44.5t-60.5 -125.5v-522q0 -82 60.5 -126t203.5 -44t203.5 44t60.5 126z" />
    <glyph glyph-name="OE" unicode="&#x152;" horiz-adv-x="1802" 
d="M174 272v848q0 289 426 289q215 0 320 -92v51q0 25 24 25h698q25 0 25 -23v-45q0 -25 -25 -25h-612v-522h576q24 0 24 -24v-41q0 -25 -24 -25h-576v-596h639q25 0 25 -22v-45q0 -25 -25 -25h-727q-22 0 -22 25v51q-105 -92 -320 -92q-426 0 -426 288zM600 76
q313 0 320 200v838q-7 203 -320 203q-317 0 -317 -211v-819q0 -211 317 -211z" />
    <glyph glyph-name="oe" unicode="&#x153;" horiz-adv-x="1638" 
d="M150 236v538q0 252 370 252q237 0 309 -106q79 106 320 106q100 0 171.5 -18.5t112 -53t58.5 -78.5t18 -102v-252q0 -22 -22 -22h-598v-260q0 -82 59 -127t201 -45t201 45t59 127v45q0 22 25 22h49q24 0 24 -22v-49q0 -120 -82 -186t-276 -66q-243 0 -320 104
q-71 -104 -309 -104q-370 0 -370 252zM784 244v522q0 82 -60.5 127t-203.5 45t-203.5 -45t-60.5 -127v-522q0 -82 60.5 -127t203.5 -45t203.5 45t60.5 127zM889 770v-192h520v192q0 82 -59 127t-201 45t-201 -45t-59 -127z" />
    <glyph glyph-name="Racute" unicode="&#x154;" horiz-adv-x="1204" 
d="M618 578h-313v-553q0 -25 -22 -25h-62q-24 0 -24 25v1343q0 25 22 25h399q429 0 429 -289v-238q0 -227 -263 -276l281 -565q4 -10 -2.5 -17.5t-20.5 -7.5h-61q-9 0 -15.5 4t-9 8t-6.5 13l-270 555q-20 -2 -62 -2zM618 1298h-313v-628h313q320 0 320 211v206
q0 211 -320 211zM766 1774l-166 -244q-9 -14 -29 -14h-51q-11 0 -15 6t3 16l149 240q13 20 31 20h66q13 0 16.5 -7t-4.5 -17z" />
    <glyph glyph-name="racute" unicode="&#x155;" horiz-adv-x="690" 
d="M471 1425l-166 -243q-10 -15 -29 -15h-51q-23 0 -12 23l147 240q13 20 33 20h66q26 0 12 -25zM625 1024q26 0 26 -23v-49q0 -24 -26 -24q-103 -4 -196.5 -50.5t-147.5 -93.5v-759q0 -25 -25 -25h-57q-25 0 -25 25v960q0 25 25 25h51q24 0 24 -25l5 -111q63 56 153.5 103
t192.5 47z" />
    <glyph glyph-name="Rcommaaccent" unicode="&#x156;" horiz-adv-x="1204" 
d="M549 -180v55q0 25 24 25h45q25 0 25 -25v-59q0 -109 -76 -234q-10 -18 -32 -12l-35 10q-23 7 -11 33q7 15 20 42t17.5 38.5t11.5 33t9 43t2 50.5zM618 578h-313v-553q0 -25 -22 -25h-62q-24 0 -24 25v1343q0 25 22 25h399q429 0 429 -289v-238q0 -227 -263 -276l281 -565
q4 -10 -2.5 -17.5t-20.5 -7.5h-61q-9 0 -15.5 4t-9 8t-6.5 13l-270 555q-20 -2 -62 -2zM618 1298h-313v-628h313q320 0 320 211v206q0 211 -320 211z" />
    <glyph glyph-name="rcommaaccent" unicode="&#x157;" horiz-adv-x="690" 
d="M180 -182v55q0 25 25 25h45q24 0 24 -25v-59q0 -110 -75 -234q-11 -18 -33 -12l-35 10q-22 6 -10 33q6 14 19.5 42t17.5 38.5t11 32.5t9 43.5t2 50.5zM625 1024q26 0 26 -23v-49q0 -24 -26 -24q-103 -4 -196.5 -50.5t-147.5 -93.5v-759q0 -25 -25 -25h-57q-25 0 -25 25
v960q0 25 25 25h51q24 0 24 -25l5 -111q63 56 153.5 103t192.5 47z" />
    <glyph glyph-name="Rcaron" unicode="&#x158;" horiz-adv-x="1204" 
d="M618 578h-313v-553q0 -25 -22 -25h-62q-24 0 -24 25v1343q0 25 22 25h399q429 0 429 -289v-238q0 -227 -263 -276l281 -565q4 -10 -2.5 -17.5t-20.5 -7.5h-61q-9 0 -15.5 4t-9 8t-6.5 13l-270 555q-20 -2 -62 -2zM618 1298h-313v-628h313q320 0 320 211v206
q0 211 -320 211zM459 1774l123 -189l125 189q17 24 32 24h49q12 0 16 -7t-3 -17l-162 -236q-15 -22 -37 -22h-41q-20 0 -37 24l-159 234q-7 10 -3.5 17t15.5 7h47q21 0 35 -24z" />
    <glyph glyph-name="rcaron" unicode="&#x159;" horiz-adv-x="690" 
d="M221 1425l125 -188l123 188q18 25 35 25h47q12 0 15.5 -7t-3.5 -18l-160 -235q-15 -23 -38 -23h-41q-19 0 -37 25l-160 233q-7 11 -3.5 18t15.5 7h49q19 0 33 -25zM625 1024q26 0 26 -23v-49q0 -24 -26 -24q-103 -4 -196.5 -50.5t-147.5 -93.5v-759q0 -25 -25 -25h-57
q-25 0 -25 25v960q0 25 25 25h51q24 0 24 -25l5 -111q63 56 153.5 103t192.5 47z" />
    <glyph glyph-name="Sacute" unicode="&#x15a;" horiz-adv-x="1153" 
d="M889 1020v88q0 49 -14.5 85t-48.5 65t-94.5 44t-147.5 15t-147.5 -15t-94.5 -44t-48.5 -65t-14.5 -85v-76q0 -70 38.5 -112.5t90.5 -61.5l393 -149q88 -34 146.5 -97t58.5 -159v-181q0 -288 -424 -288q-426 0 -426 288v107q0 27 24 27h60q24 0 24 -27v-94q0 -99 73 -154
t243 -55q172 0 245.5 55t73.5 154v145q0 40 -14.5 72t-41.5 54.5t-53 36.5t-61 28l-381 147q-71 27 -123.5 90t-52.5 152v110q0 64 19.5 113.5t65 90.5t128 63t199.5 22q411 0 411 -289v-100q0 -25 -24 -25h-60q-22 0 -22 25zM799 1774l-166 -244q-9 -14 -29 -14h-51
q-11 0 -15 6t3 16l149 240q13 20 31 20h65q13 0 17 -7t-4 -17z" />
    <glyph glyph-name="sacute" unicode="&#x15b;" horiz-adv-x="950" 
d="M702 1425l-165 -243q-10 -15 -29 -15h-51q-25 0 -13 23l148 240q13 20 33 20h65q26 0 12 -25zM729 739v64q0 67 -61.5 104t-186.5 37q-243 0 -243 -141v-64q0 -48 35 -81t79 -46l320 -100q77 -25 124.5 -72t47.5 -114v-121q0 -97 -91 -159t-272 -62t-269.5 61.5
t-88.5 159.5v57q0 23 22 23h56q20 0 20 -23v-53q0 -66 66.5 -104.5t193.5 -38.5q129 0 196.5 38.5t67.5 104.5v92q0 83 -129 125l-319 100q-61 20 -110.5 72.5t-49.5 122.5v82q0 99 84 161t262 62q177 0 261.5 -62t84.5 -161v-64q0 -22 -24 -22h-53q-23 0 -23 22z" />
    <glyph glyph-name="Scircumflex" unicode="&#x15c;" horiz-adv-x="1153" 
d="M889 1020v88q0 49 -14.5 85t-48.5 65t-94.5 44t-147.5 15t-147.5 -15t-94.5 -44t-48.5 -65t-14.5 -85v-76q0 -70 38.5 -112.5t90.5 -61.5l393 -149q88 -34 146.5 -97t58.5 -159v-181q0 -288 -424 -288q-426 0 -426 288v107q0 27 24 27h60q24 0 24 -27v-94q0 -99 73 -154
t243 -55q172 0 245.5 55t73.5 154v145q0 40 -14.5 72t-41.5 54.5t-53 36.5t-61 28l-381 147q-71 27 -123.5 90t-52.5 152v110q0 64 19.5 113.5t65 90.5t128 63t199.5 22q411 0 411 -289v-100q0 -25 -24 -25h-60q-22 0 -22 25zM575 1729l-122 -189q-14 -24 -35 -24h-47
q-12 0 -16 7t3 17l160 234q17 24 37 24h41q22 0 37 -22l162 -236q7 -10 3 -17t-16 -7h-49q-16 0 -33 24z" />
    <glyph glyph-name="scircumflex" unicode="&#x15d;" horiz-adv-x="950" 
d="M475 1380l-125 -188q-14 -25 -33 -25h-49q-12 0 -15.5 7.5t3.5 17.5l160 233q18 25 37 25h41q23 0 38 -23l160 -235q7 -10 3.5 -17.5t-15.5 -7.5h-47q-17 0 -35 25zM729 739v64q0 67 -61.5 104t-186.5 37q-243 0 -243 -141v-64q0 -48 35 -81t79 -46l320 -100
q77 -25 124.5 -72t47.5 -114v-121q0 -97 -91 -159t-272 -62t-269.5 61.5t-88.5 159.5v57q0 23 22 23h56q20 0 20 -23v-53q0 -66 66.5 -104.5t193.5 -38.5q129 0 196.5 38.5t67.5 104.5v92q0 83 -129 125l-319 100q-61 20 -110.5 72.5t-49.5 122.5v82q0 99 84 161t262 62
q177 0 261.5 -62t84.5 -161v-64q0 -22 -24 -22h-53q-23 0 -23 22z" />
    <glyph glyph-name="Scedilla" unicode="&#x15e;" horiz-adv-x="1153" 
d="M565 -111h80q70 0 119 -38t49 -121q0 -84 -49.5 -123t-118.5 -39h-242q-24 0 -24 24v23q0 25 24 25h230q98 0 98 90q0 88 -98 88h-121q-22 0 -29 8.5t-4 21.5l39 138q-362 21 -362 286v107q0 27 24 27h60q24 0 24 -27v-94q0 -99 73 -154t243 -55q172 0 245.5 55t73.5 154
v145q0 40 -14.5 72t-41.5 54.5t-53 36.5t-61 28l-381 147q-71 27 -123.5 90t-52.5 152v110q0 64 19.5 113.5t65 90.5t128 63t199.5 22q411 0 411 -289v-100q0 -25 -24 -25h-60q-22 0 -22 25v88q0 49 -14.5 85t-48.5 65t-94.5 44t-147.5 15t-147.5 -15t-94.5 -44t-48.5 -65
t-14.5 -85v-76q0 -70 38.5 -112.5t90.5 -61.5l393 -149q88 -34 146.5 -97t58.5 -159v-181q0 -283 -414 -288z" />
    <glyph glyph-name="scedilla" unicode="&#x15f;" horiz-adv-x="950" 
d="M453 -111h79q70 0 119 -38t49 -121q0 -84 -49.5 -123t-118.5 -39h-241q-25 0 -25 24v23q0 25 25 25h229q98 0 98 90q0 88 -98 88h-121q-22 0 -28.5 8t-3.5 22l39 140q-142 11 -212.5 70.5t-70.5 146.5v57q0 23 22 23h56q20 0 20 -23v-53q0 -66 66.5 -104.5t193.5 -38.5
q129 0 196.5 38.5t67.5 104.5v92q0 83 -129 125l-319 100q-61 20 -110.5 72.5t-49.5 122.5v82q0 99 84 161t262 62q177 0 261.5 -62t84.5 -161v-64q0 -22 -24 -22h-53q-23 0 -23 22v64q0 67 -61.5 104t-186.5 37q-243 0 -243 -141v-64q0 -48 35 -81t79 -46l320 -100
q77 -25 124.5 -72t47.5 -114v-121q0 -97 -91 -159t-272 -62h-2z" />
    <glyph glyph-name="Scaron" unicode="&#x160;" horiz-adv-x="1153" 
d="M889 1020v88q0 49 -14.5 85t-48.5 65t-94.5 44t-147.5 15t-147.5 -15t-94.5 -44t-48.5 -65t-14.5 -85v-76q0 -70 38.5 -112.5t90.5 -61.5l393 -149q88 -34 146.5 -97t58.5 -159v-181q0 -288 -424 -288q-426 0 -426 288v107q0 27 24 27h60q24 0 24 -27v-94q0 -99 73 -154
t243 -55q172 0 245.5 55t73.5 154v145q0 40 -14.5 72t-41.5 54.5t-53 36.5t-61 28l-381 147q-71 27 -123.5 90t-52.5 152v110q0 64 19.5 113.5t65 90.5t128 63t199.5 22q411 0 411 -289v-100q0 -25 -24 -25h-60q-22 0 -22 25zM461 1774l123 -189l125 189q17 24 32 24h50
q12 0 15.5 -7t-3.5 -17l-162 -236q-15 -22 -37 -22h-41q-20 0 -37 24l-159 234q-7 10 -3.5 17t15.5 7h47q21 0 35 -24z" />
    <glyph glyph-name="scaron" unicode="&#x161;" horiz-adv-x="950" 
d="M360 1425l125 -188l123 188q18 25 35 25h47q12 0 15.5 -7t-3.5 -18l-159 -235q-15 -23 -39 -23h-41q-19 0 -37 25l-160 233q-7 11 -3 18t16 7h49q18 0 32 -25zM729 739v64q0 67 -61.5 104t-186.5 37q-243 0 -243 -141v-64q0 -48 35 -81t79 -46l320 -100q77 -25 124.5 -72
t47.5 -114v-121q0 -97 -91 -159t-272 -62t-269.5 61.5t-88.5 159.5v57q0 23 22 23h56q20 0 20 -23v-53q0 -66 66.5 -104.5t193.5 -38.5q129 0 196.5 38.5t67.5 104.5v92q0 83 -129 125l-319 100q-61 20 -110.5 72.5t-49.5 122.5v82q0 99 84 161t262 62q177 0 261.5 -62
t84.5 -161v-64q0 -22 -24 -22h-53q-23 0 -23 22z" />
    <glyph glyph-name="Tcommaaccent" unicode="&#x162;" horiz-adv-x="983" 
d="M444 -182v55q0 25 25 25h45q25 0 25 -25v-59q0 -109 -76 -234q-11 -18 -33 -12l-35 10q-22 6 -10 33q6 14 19.5 42t17.5 38.5t11 32.5t9 43.5t2 50.5zM66 1393h852q24 0 24 -25v-45q0 -25 -24 -25h-373v-1273q0 -25 -23 -25h-61q-25 0 -25 25v1273h-370q-25 0 -25 25v45
q0 25 25 25z" />
    <glyph glyph-name="tcommaaccent" unicode="&#x163;" horiz-adv-x="702" 
d="M231 -182v55q0 25 25 25h45q25 0 25 -25v-59q0 -109 -76 -234q-11 -18 -33 -12l-35 10q-22 6 -10 33q6 14 19.5 42t17.5 38.5t11 32.5t9 43.5t2 50.5zM319 1006h242q25 0 25 -23v-41q0 -24 -25 -24h-242v-656q0 -82 58.5 -126t200.5 -44h32q25 0 25 -24v-43
q0 -25 -25 -25h-45q-101 0 -171 17t-109 51.5t-55.5 78.5t-16.5 105v666h-129q-25 0 -25 24v33q0 13 5.5 17.5t19.5 6.5l109 7h20v221q0 26 25 26h59q22 0 22 -26v-221z" />
    <glyph glyph-name="Tcaron" unicode="&#x164;" horiz-adv-x="983" 
d="M66 1393h852q24 0 24 -25v-45q0 -25 -24 -25h-373v-1273q0 -25 -23 -25h-61q-25 0 -25 25v1273h-370q-25 0 -25 25v45q0 25 25 25zM369 1774l123 -189l124 189q17 24 33 24h49q12 0 16 -7t-3 -17l-162 -236q-15 -22 -37 -22h-41q-20 0 -37 24l-160 234q-7 10 -3 17t16 7
h47q21 0 35 -24z" />
    <glyph glyph-name="tcaron" unicode="&#x165;" horiz-adv-x="727" 
d="M492 1362v55q0 25 24 25h45q25 0 25 -25v-59q0 -109 -76 -234q-11 -18 -33 -12l-35 10q-22 6 -10 33q7 15 20 42t17.5 38.5t11.5 33t9 43t2 50.5zM319 1006h242q25 0 25 -23v-41q0 -24 -25 -24h-242v-656q0 -82 58.5 -126t200.5 -44h32q25 0 25 -24v-43q0 -25 -25 -25
h-45q-101 0 -171 17t-109 51.5t-55.5 78.5t-16.5 105v666h-129q-25 0 -25 24v33q0 13 5.5 17.5t19.5 6.5l109 7h20v221q0 26 25 26h59q22 0 22 -26v-221z" />
    <glyph glyph-name="Tbar" unicode="&#x166;" horiz-adv-x="983" 
d="M66 1393h852q24 0 24 -25v-45q0 -25 -24 -25h-373v-368h319q25 0 25 -23v-33q0 -24 -25 -24h-319v-825q0 -25 -23 -25h-61q-25 0 -25 25v825h-311q-25 0 -25 24v33q0 23 25 23h311v368h-370q-25 0 -25 25v45q0 25 25 25z" />
    <glyph glyph-name="tbar" unicode="&#x167;" horiz-adv-x="702" 
d="M319 1006h242q25 0 25 -23v-41q0 -24 -25 -24h-242v-234h244q25 0 25 -22v-33q0 -25 -25 -25h-244v-342q0 -82 58.5 -126t200.5 -44h32q25 0 25 -24v-43q0 -25 -25 -25h-45q-101 0 -171 17t-109 51.5t-55.5 78.5t-16.5 105v352h-129q-25 0 -25 25v33q0 22 25 22h129v234
h-129q-25 0 -25 24v33q0 13 5.5 17.5t19.5 6.5l109 7h20v221q0 26 25 26h59q22 0 22 -26v-221z" />
    <glyph glyph-name="Utilde" unicode="&#x168;" horiz-adv-x="1226" 
d="M293 1368v-1079q0 -101 74 -156t245 -55q320 0 320 211v1079q0 25 24 25h62q22 0 22 -25v-1096q0 -288 -428 -288t-428 288v1096q0 25 25 25h61q23 0 23 -25zM479 1696q-39 0 -51 -22t-12 -89v-18q0 -23 -27 -23h-35q-20 0 -20 29l2 41q8 166 137 166q59 0 107 -39
l94 -76q45 -35 74 -35q38 0 50.5 22.5t12.5 88.5v18q0 23 27 23h32q23 0 23 -27l-2 -41q-8 -168 -139 -168q-55 0 -107 41l-92 74q-49 35 -74 35z" />
    <glyph glyph-name="utilde" unicode="&#x169;" 
d="M788 25l-4 81q-143 -122 -342 -122q-138 0 -209 66.5t-71 176.5v756q0 27 22 27h60q24 0 24 -27v-733q0 -79 49 -124.5t152 -45.5q169 0 315 121v782q0 27 23 27h59q23 0 23 -27v-958q0 -25 -23 -25h-53q-25 0 -25 25zM397 1339q-38 0 -50.5 -22.5t-12.5 -89.5v-17
q0 -22 -27 -22h-33q-13 0 -17.5 6t-4.5 20l2 41q8 168 137 168q57 0 107 -41l94 -75q45 -35 74 -35q38 0 50.5 22.5t12.5 87.5v19q0 22 27 22h32q23 0 23 -26l-2 -41q-8 -168 -137 -168q-58 0 -107 41l-94 74q-46 36 -74 36z" />
    <glyph glyph-name="Umacron" unicode="&#x16a;" horiz-adv-x="1226" 
d="M293 1368v-1079q0 -101 74 -156t245 -55q320 0 320 211v1079q0 25 24 25h62q22 0 22 -25v-1096q0 -288 -428 -288t-428 288v1096q0 25 25 25h61q23 0 23 -25zM350 1679h527q24 0 24 -22v-37q0 -25 -24 -25h-527q-24 0 -24 25v37q0 22 24 22z" />
    <glyph glyph-name="umacron" unicode="&#x16b;" 
d="M788 25l-4 81q-143 -122 -342 -122q-138 0 -209 66.5t-71 176.5v756q0 27 22 27h60q24 0 24 -27v-733q0 -79 49 -124.5t152 -45.5q169 0 315 121v782q0 27 23 27h59q23 0 23 -27v-958q0 -25 -23 -25h-53q-25 0 -25 25zM268 1323h527q24 0 24 -25v-36q0 -25 -24 -25h-527
q-24 0 -24 25v36q0 25 24 25z" />
    <glyph glyph-name="Ubreve" unicode="&#x16c;" horiz-adv-x="1226" 
d="M293 1368v-1079q0 -101 74 -156t245 -55q320 0 320 211v1079q0 25 24 25h62q22 0 22 -25v-1096q0 -288 -428 -288t-428 288v1096q0 25 25 25h61q23 0 23 -25zM463 1778v-35q0 -74 30.5 -113t118.5 -39q89 0 120.5 39t31.5 113v35q0 12 4.5 17t17.5 5h37q23 0 23 -22v-33
q0 -109 -53.5 -166t-182.5 -57q-128 0 -178.5 56.5t-50.5 166.5v33q0 22 22 22h37q23 0 23 -22z" />
    <glyph glyph-name="ubreve" unicode="&#x16d;" 
d="M788 25l-4 81q-143 -122 -342 -122q-138 0 -209 66.5t-71 176.5v756q0 27 22 27h60q24 0 24 -27v-733q0 -79 49 -124.5t152 -45.5q169 0 315 121v782q0 27 23 27h59q23 0 23 -27v-958q0 -25 -23 -25h-53q-25 0 -25 25zM373 1399v-37q0 -73 31 -111.5t120 -38.5
q88 0 119 39t31 111v37q0 12 4.5 17t17.5 5h37q23 0 23 -22v-35q0 -108 -53 -165.5t-181 -57.5q-129 0 -180 57t-51 166v35q0 22 22 22h37q23 0 23 -22z" />
    <glyph glyph-name="Uring" unicode="&#x16e;" horiz-adv-x="1226" 
d="M801 1661v-31q0 -67 -46.5 -108t-142.5 -41t-141 40.5t-45 108.5v31q0 68 45 108.5t141 40.5t142.5 -41t46.5 -108zM731 1638v15q0 43 -29 69.5t-90 26.5t-88.5 -26.5t-27.5 -69.5v-15q0 -43 27.5 -69.5t88.5 -26.5t90 26.5t29 69.5zM293 1368v-1079q0 -101 74 -156
t245 -55q320 0 320 211v1079q0 25 24 25h62q22 0 22 -25v-1096q0 -288 -428 -288t-428 288v1096q0 25 25 25h61q23 0 23 -25z" />
    <glyph glyph-name="uring" unicode="&#x16f;" 
d="M711 1323v-39q0 -67 -45.5 -106t-139.5 -39t-139 39t-45 106v39q0 67 45 106t139 39t139.5 -39t45.5 -106zM645 1294v19q0 94 -119 94q-116 0 -116 -94v-19q0 -94 116 -94q119 0 119 94zM788 25l-4 81q-143 -122 -342 -122q-138 0 -209 66.5t-71 176.5v756q0 27 22 27h60
q24 0 24 -27v-733q0 -79 49 -124.5t152 -45.5q169 0 315 121v782q0 27 23 27h59q23 0 23 -27v-958q0 -25 -23 -25h-53q-25 0 -25 25z" />
    <glyph glyph-name="Uhungarumlaut" unicode="&#x170;" horiz-adv-x="1226" 
d="M913 1774l-161 -238q-13 -20 -35 -20h-45q-12 0 -15.5 7t2.5 17l150 234q14 24 39 24h53q13 0 16.5 -7t-4.5 -17zM705 1774l-134 -234q-12 -24 -32 -24h-45q-12 0 -16 7.5t1 16.5l121 234q12 24 33 24h55q13 0 18 -7.5t-1 -16.5zM293 1368v-1079q0 -101 74 -156t245 -55
q320 0 320 211v1079q0 25 24 25h62q22 0 22 -25v-1096q0 -288 -428 -288t-428 288v1096q0 25 25 25h61q23 0 23 -25z" />
    <glyph glyph-name="uhungarumlaut" unicode="&#x171;" 
d="M788 25l-4 81q-143 -122 -342 -122q-138 0 -209 66.5t-71 176.5v756q0 27 22 27h60q24 0 24 -27v-733q0 -79 49 -124.5t152 -45.5q169 0 315 121v782q0 27 23 27h59q23 0 23 -27v-958q0 -25 -23 -25h-53q-25 0 -25 25zM823 1425l-164 -237q-14 -21 -32 -21h-45
q-27 0 -13 25l150 233q14 25 39 25h53q13 0 16.5 -7t-4.5 -18zM612 1425l-131 -233q-13 -25 -32 -25h-46q-13 0 -16 8t2 17l119 233q11 25 35 25h53q13 0 17.5 -7t-1.5 -18z" />
    <glyph glyph-name="Uogonek" unicode="&#x172;" horiz-adv-x="1226" 
d="M293 1368v-1079q0 -101 74 -156t245 -55q320 0 320 211v1079q0 25 24 25h62q22 0 22 -25v-1096q0 -123 -77 -192q-9 -8 -37 -30t-42.5 -35.5t-33.5 -36.5t-28 -49t-9 -56q0 -100 119 -100h69q27 0 27 -25v-29q0 -24 -31 -24h-90q-80 0 -130 40.5t-50 119.5q0 78 55 145
q-75 -16 -170 -16q-428 0 -428 288v1096q0 25 25 25h61q23 0 23 -25z" />
    <glyph glyph-name="uogonek" unicode="&#x173;" 
d="M870 -305h-55q-79 0 -128.5 38t-49.5 113q0 55 41 107t110 86l-4 67q-143 -122 -342 -122q-138 0 -209 66.5t-71 176.5v756q0 27 22 27h60q24 0 24 -27v-733q0 -79 49 -124.5t152 -45.5q169 0 315 121v782q0 27 23 27h59q23 0 23 -27v-958q0 -25 -23 -25h-6
q-67 -12 -101 -55t-34 -86q0 -86 117 -86h32q25 0 25 -25v-29q0 -24 -29 -24z" />
    <glyph glyph-name="Wcircumflex" unicode="&#x174;" horiz-adv-x="1619" 
d="M811 1729l-123 -189q-14 -24 -35 -24h-47q-12 0 -15.5 7t3.5 17l160 234q17 24 37 24h40q22 0 37 -22l162 -236q7 -10 3.5 -17t-15.5 -7h-49q-16 0 -33 24zM872 1368l265 -1036q7 -27 14.5 -65t11.5 -63l4 -24q17 91 33 152l266 1036q6 25 29 25h53q27 0 21 -25
l-342 -1343q-6 -25 -31 -25h-61q-23 0 -29 25l-268 1052q-16 55 -27 131l-29 -131l-266 -1052q-6 -25 -31 -25h-61q-25 0 -31 25l-340 1343q-6 25 19 25h63q23 0 29 -25l262 -1036l33 -144q18 88 33 144l266 1036q6 25 28 25h58q22 0 28 -25z" />
    <glyph glyph-name="wcircumflex" unicode="&#x175;" horiz-adv-x="1308" 
d="M655 1380l-125 -188q-14 -25 -32 -25h-49q-12 0 -16 7.5t3 17.5l160 233q18 25 37 25h41q24 0 39 -23l159 -235q7 -10 3.5 -17.5t-15.5 -7.5h-47q-17 0 -35 25zM1268 985l-269 -962q-6 -23 -26 -23h-70q-17 0 -24 23l-201 749q-8 31 -21 94l-24 -96l-211 -747
q-7 -23 -27 -23h-67q-20 0 -27 23l-258 962q-3 11 2.5 18t17.5 7h60q20 0 27 -25l204 -762l19 -82l20 82l209 762q7 25 29 25h65q22 0 29 -25l199 -762q16 -74 18 -78q0 2 21 78l206 762q7 25 27 25h51q12 0 18 -7t3 -18z" />
    <glyph glyph-name="Ycircumflex" unicode="&#x176;" horiz-adv-x="1042" 
d="M162 1368l332 -631q6 -12 16.5 -38.5t11.5 -28.5l31 67l336 631q14 25 31 25h59q32 0 18 -25l-419 -790v-553q0 -25 -25 -25h-61q-23 0 -23 25v540l-422 803q-6 12 -1 18.5t17 6.5h68q19 0 31 -25zM520 1729l-123 -189q-14 -24 -35 -24h-47q-12 0 -15.5 7t3.5 17l160 234
q17 24 37 24h41q22 0 37 -22l161 -236q7 -10 3.5 -17t-15.5 -7h-49q-16 0 -33 24z" />
    <glyph glyph-name="ycircumflex" unicode="&#x177;" horiz-adv-x="862" 
d="M152 985l251 -739q12 -36 29 -105q0 20 29 101l254 743q7 25 28 25h58q25 0 18 -25l-473 -1386q-7 -25 -29 -25h-47q-25 0 -18 25l131 397l-340 989q-7 25 18 25h62q22 0 29 -25zM432 1380l-125 -188q-14 -25 -33 -25h-49q-12 0 -15.5 7.5t3.5 17.5l160 233q18 25 37 25
h41q23 0 38 -23l160 -235q7 -10 3.5 -17.5t-15.5 -7.5h-47q-17 0 -35 25z" />
    <glyph glyph-name="Ydieresis" unicode="&#x178;" horiz-adv-x="1042" 
d="M162 1368l332 -631q17 -34 28 -67q0 2 31 67l336 631q14 25 31 25h59q32 0 18 -25l-419 -790v-553q0 -25 -25 -25h-61q-23 0 -23 25v540l-422 803q-6 12 -1 18.5t17 6.5h68q19 0 31 -25zM463 1755v-201q0 -24 -23 -24h-37q-24 0 -24 24v201q0 25 24 25h37q23 0 23 -25z
M664 1755v-201q0 -24 -23 -24h-37q-24 0 -24 24v201q0 25 24 25h37q23 0 23 -25z" />
    <glyph glyph-name="Zacute" unicode="&#x179;" horiz-adv-x="1034" 
d="M174 1393h713q24 0 24 -25v-45q0 -10 -4 -18l-661 -1211h672q24 0 24 -24v-45q0 -25 -24 -25h-781q-22 0 -22 25v45q0 14 6 26l655 1202h-602q-24 0 -24 25v45q0 25 24 25zM748 1774l-166 -244q-9 -14 -29 -14h-51q-11 0 -15.5 6t2.5 16l150 240q13 20 31 20h65
q13 0 17 -7t-4 -17z" />
    <glyph glyph-name="zacute" unicode="&#x17a;" horiz-adv-x="933" 
d="M664 1425l-166 -243q-10 -15 -29 -15h-51q-24 0 -12 23l147 240q13 20 33 20h65q27 0 13 -25zM154 1010h614q25 0 25 -25v-37q0 -12 -7 -22l-548 -836h557q24 0 24 -24v-41q0 -25 -24 -25h-666q-25 0 -25 25v41q0 10 7 20l546 834h-503q-25 0 -25 24v41q0 25 25 25z" />
    <glyph glyph-name="Zdotaccent" unicode="&#x17b;" horiz-adv-x="1034" 
d="M571 1716v-157q0 -25 -24 -25h-60q-24 0 -24 25v157q0 25 24 25h60q24 0 24 -25zM174 1393h713q24 0 24 -25v-45q0 -10 -4 -18l-661 -1211h672q24 0 24 -24v-45q0 -25 -24 -25h-781q-22 0 -22 25v45q0 14 6 26l655 1202h-602q-24 0 -24 25v45q0 25 24 25z" />
    <glyph glyph-name="zdotaccent" unicode="&#x17c;" horiz-adv-x="933" 
d="M154 1010h614q25 0 25 -25v-37q0 -12 -7 -22l-548 -836h557q24 0 24 -24v-41q0 -25 -24 -25h-666q-25 0 -25 25v41q0 10 7 20l546 834h-503q-25 0 -25 24v41q0 25 25 25zM522 1382v-157q0 -25 -22 -25h-62q-24 0 -24 25v157q0 25 24 25h62q22 0 22 -25z" />
    <glyph glyph-name="Zcaron" unicode="&#x17d;" horiz-adv-x="1034" 
d="M395 1804l125 -188l123 188q18 25 35 25h47q12 0 15.5 -7.5t-3.5 -17.5l-159 -235q-15 -23 -39 -23h-41q-19 0 -37 25l-160 233q-7 10 -3.5 17.5t15.5 7.5h49q19 0 33 -25zM174 1393h713q24 0 24 -25v-45q0 -10 -4 -18l-661 -1211h672q24 0 24 -24v-45q0 -25 -24 -25
h-781q-22 0 -22 25v45q0 14 6 26l655 1202h-602q-24 0 -24 25v45q0 25 24 25z" />
    <glyph glyph-name="zcaron" unicode="&#x17e;" horiz-adv-x="933" 
d="M346 1425l125 -188l123 188q18 25 35 25h47q12 0 15.5 -7t-3.5 -18l-160 -235q-15 -23 -39 -23h-40q-19 0 -37 25l-160 233q-7 11 -3.5 18t15.5 7h49q19 0 33 -25zM154 1010h614q25 0 25 -25v-37q0 -12 -7 -22l-548 -836h557q24 0 24 -24v-41q0 -25 -24 -25h-666
q-25 0 -25 25v41q0 10 7 20l546 834h-503q-25 0 -25 24v41q0 25 25 25z" />
    <glyph glyph-name="longs" unicode="&#x17f;" horiz-adv-x="643" 
d="M199 1006h20v182q0 252 367 252h10q25 0 25 -25v-41q0 -24 -25 -24h-10q-142 0 -201 -44.5t-59 -125.5v-1155q0 -25 -25 -25h-59q-23 0 -23 25v895h-133q-25 0 -25 22v33q0 24 25 24z" />
    <glyph glyph-name="florin" unicode="&#x192;" horiz-adv-x="1116" 
d="M985 1358h-18q-142 0 -206.5 -44.5t-74.5 -125.5l-45 -346h213q25 0 25 -25v-41q0 -24 -25 -24h-221l-111 -940q-30 -254 -395 -254h-10q-25 0 -25 24v41q0 27 25 27h18q142 0 206.5 44.5t74.5 125.5l110 932h-198q-25 0 -25 24v41q0 25 25 25h209l43 356q27 252 395 252
h10q25 0 25 -25v-43q0 -24 -25 -24z" />
    <glyph glyph-name="Aringacute" unicode="&#x1fa;" 
d="M500 1393h63q25 0 31 -25l416 -1343q9 -25 -19 -25h-63q-23 0 -29 25l-125 397h-493l-121 -397q-6 -25 -29 -25h-59q-28 0 -19 25l416 1343q6 25 31 25zM750 510l-170 549q-39 130 -52 215q-19 -107 -47 -211l-174 -553h443zM717 1661v-31q0 -67 -46.5 -108t-142.5 -41
t-141 40.5t-45 108.5v31q0 63 39.5 103t124.5 46l86 144q13 20 33 20h65q26 0 12 -24l-102 -148q117 -26 117 -141zM647 1638v15q0 43 -29 69.5t-90 26.5t-88.5 -26.5t-27.5 -69.5v-15q0 -43 27.5 -69.5t88.5 -26.5t90 26.5t29 69.5z" />
    <glyph glyph-name="aringacute" unicode="&#x1fb;" horiz-adv-x="1028" 
d="M154 737v37q0 119 81.5 185.5t274.5 66.5q194 0 275 -66t81 -186v-749q0 -25 -22 -25h-51q-25 0 -25 25l-4 81q-153 -122 -348 -122q-137 0 -209 66t-72 171v105q0 104 66.5 170.5t189.5 66.5h371v203q0 82 -56 127t-198 45t-198 -44t-56 -126v-31q0 -24 -25 -24h-53
q-22 0 -22 24zM438 74q170 0 324 121v282h-352q-86 0 -128 -43.5t-42 -120.5v-80q0 -75 49 -117t149 -42zM696 1323v-39q0 -67 -45 -106t-139 -39t-139 39t-45 106v39q0 62 39.5 101.5t121.5 43.5l127 205q14 21 33 21h66q26 0 12 -25l-143 -209q112 -28 112 -137zM631 1294
v19q0 94 -119 94q-117 0 -117 -94v-19q0 -94 117 -94q119 0 119 94z" />
    <glyph glyph-name="AEacute" unicode="&#x1fc;" horiz-adv-x="1720" 
d="M870 1393h691q24 0 24 -23v-45q0 -22 -24 -22h-615v-525h578q24 0 24 -24v-41q0 -25 -24 -25h-578v-596h639q25 0 25 -24v-43q0 -25 -25 -25h-711q-32 0 -32 25v397h-453l-227 -397q-1 -1 -3 -4.5t-3 -4.5t-3 -4t-3.5 -4t-3.5 -3t-4 -3t-4 -1.5t-5 -0.5h-57q-14 0 -21 7
t0 18l781 1343q15 25 34 25zM774 1085l-332 -575h400v698q-52 -98 -68 -123zM1167 1774l-166 -244q-9 -14 -28 -14h-51q-11 0 -15.5 6t2.5 16l150 240q13 20 31 20h65q13 0 16.5 -7t-4.5 -17z" />
    <glyph glyph-name="aeacute" unicode="&#x1fd;" horiz-adv-x="1615" 
d="M1036 1425l-166 -243q-10 -15 -28 -15h-51q-25 0 -13 23l148 240q13 20 32 20h66q26 0 12 -25zM1487 774v-252q0 -22 -23 -22h-598v-267q0 -81 58 -123t202 -42q142 0 201 45t59 127v45q0 22 23 22h51q25 0 25 -22v-49q0 -58 -18 -102t-58.5 -78.5t-111.5 -53t-171 -18.5
q-152 0 -233.5 37.5t-108.5 109.5q-175 -147 -368 -147q-141 0 -211 65.5t-70 171.5v86q0 105 67 171.5t189 66.5h371v239q0 160 -254 160q-142 0 -198 -44t-56 -126v-37q0 -24 -25 -24h-53q-24 0 -24 24v39q0 58 18 101.5t58 78t111 52.5t171 18q242 0 303 -125
q69 125 313 125q194 0 277.5 -66.5t83.5 -185.5zM438 70q162 0 324 141v256h-356q-81 0 -123.5 -45.5t-42.5 -118.5v-70q0 -75 50.5 -119t147.5 -44zM866 770v-192h520v192q0 82 -59 127t-201 45q-143 0 -201.5 -45t-58.5 -127z" />
    <glyph glyph-name="Oslashacute" unicode="&#x1fe;" horiz-adv-x="1202" 
d="M174 272v846q0 291 426 291q180 0 289 -53l26 55q1 1 4 7t4.5 8.5t5 7t7 6.5t8 4t10.5 2h23q25 0 8 -35l-45 -90q90 -70 90 -203v-846q0 -288 -430 -288q-189 0 -289 53l-26 -55q-19 -35 -39 -35h-23q-25 0 -8 35l43 90q-84 70 -84 200zM920 287v817q0 59 -31 110
l-531 -1083q77 -55 242 -55q320 0 320 211zM283 287q0 -66 28 -109l531 1082q-80 55 -242 55q-317 0 -317 -211v-817zM809 1774l-166 -244q-9 -14 -29 -14h-51q-11 0 -15 6t3 16l149 240q13 20 31 20h66q13 0 16.5 -7t-4.5 -17z" />
    <glyph glyph-name="oslashacute" unicode="&#x1ff;" horiz-adv-x="1040" 
d="M150 236v536q0 254 370 254q149 0 236 -41l26 47q19 35 39 35h27q23 0 4 -35l-43 -78q82 -65 82 -182v-536q0 -252 -371 -252q-146 0 -239 41l-25 -43q-18 -35 -39 -35h-22q-14 0 -15 12.5t6 22.5l43 75q-79 60 -79 179zM784 244v522q0 58 -28 96l-428 -753
q62 -35 192 -35q143 0 203.5 44t60.5 126zM256 244q0 -54 27 -94l424 751q-62 35 -187 35q-143 0 -203.5 -44.5t-60.5 -125.5v-522zM739 1425l-166 -243q-10 -15 -28 -15h-51q-24 0 -13 23l148 240q13 20 33 20h65q26 0 12 -25z" />
    <glyph glyph-name="Scommaaccent" unicode="&#x218;" horiz-adv-x="1153" 
d="M545 -182v55q0 25 24 25h45q25 0 25 -25v-59q0 -109 -76 -234q-11 -18 -33 -12l-34 10q-23 7 -11 33q7 15 20 42t17.5 38.5t11.5 33t9 43t2 50.5zM889 1020v88q0 49 -14.5 85t-48.5 65t-94.5 44t-147.5 15t-147.5 -15t-94.5 -44t-48.5 -65t-14.5 -85v-76
q0 -70 38.5 -112.5t90.5 -61.5l393 -149q88 -34 146.5 -97t58.5 -159v-181q0 -288 -424 -288q-426 0 -426 288v107q0 27 24 27h60q24 0 24 -27v-94q0 -99 73 -154t243 -55q172 0 245.5 55t73.5 154v145q0 40 -14.5 72t-41.5 54.5t-53 36.5t-61 28l-381 147q-71 27 -123.5 90
t-52.5 152v110q0 64 19.5 113.5t65 90.5t128 63t199.5 22q411 0 411 -289v-100q0 -25 -24 -25h-60q-22 0 -22 25z" />
    <glyph glyph-name="scommaaccent" unicode="&#x219;" horiz-adv-x="950" 
d="M449 -184v55q0 25 24 25h45q25 0 25 -25v-59q0 -109 -76 -234q-11 -18 -33 -12l-35 10q-22 6 -10 33q7 15 20 42t17.5 38.5t11.5 33t9 43t2 50.5zM729 739v64q0 67 -61.5 104t-186.5 37q-243 0 -243 -141v-64q0 -48 35 -81t79 -46l320 -100q77 -25 124.5 -72t47.5 -114
v-121q0 -97 -91 -159t-272 -62t-269.5 61.5t-88.5 159.5v57q0 23 22 23h56q20 0 20 -23v-53q0 -66 66.5 -104.5t193.5 -38.5q129 0 196.5 38.5t67.5 104.5v92q0 83 -129 125l-319 100q-61 20 -110.5 72.5t-49.5 122.5v82q0 99 84 161t262 62q177 0 261.5 -62t84.5 -161v-64
q0 -22 -24 -22h-53q-23 0 -23 22z" />
    <glyph glyph-name="dotlessj" unicode="&#x237;" horiz-adv-x="452" 
d="M281 985v-1159q0 -120 -86 -186t-283 -66h-10q-25 0 -25 25v41q0 24 25 24h10q144 0 203 44.5t59 125.5v1151q0 25 23 25h59q25 0 25 -25z" />
    <glyph glyph-name="circumflex" unicode="&#x2c6;" horiz-adv-x="706" 
d="M352 1380l-125 -188q-14 -25 -32 -25h-50q-12 0 -15.5 7.5t3.5 17.5l160 233q18 25 37 25h41q24 0 39 -23l159 -235q7 -10 3.5 -17.5t-15.5 -7.5h-47q-17 0 -35 25z" />
    <glyph glyph-name="caron" unicode="&#x2c7;" horiz-adv-x="706" 
d="M227 1425l125 -188l123 188q18 25 35 25h47q12 0 15.5 -7t-3.5 -18l-159 -235q-15 -23 -39 -23h-41q-19 0 -37 25l-160 233q-7 11 -3.5 18t15.5 7h50q18 0 32 -25z" />
    <glyph glyph-name="breve" unicode="&#x2d8;" horiz-adv-x="806" 
d="M252 1399v-37q0 -73 31 -111.5t120 -38.5q88 0 119 39t31 111v37q0 12 4.5 17t17.5 5h37q23 0 23 -22v-35q0 -108 -53 -165.5t-181 -57.5q-129 0 -180 57t-51 166v35q0 22 23 22h36q23 0 23 -22z" />
    <glyph glyph-name="dotaccent" unicode="&#x2d9;" horiz-adv-x="485" 
d="M297 1382v-157q0 -25 -23 -25h-61q-25 0 -25 25v157q0 25 25 25h61q23 0 23 -25z" />
    <glyph glyph-name="ring" unicode="&#x2da;" horiz-adv-x="772" 
d="M569 1323v-39q0 -67 -45 -106t-139 -39t-139 39t-45 106v39q0 67 45 106t139 39t139 -39t45 -106zM504 1294v19q0 94 -119 94q-117 0 -117 -94v-19q0 -94 117 -94q119 0 119 94z" />
    <glyph glyph-name="ogonek" unicode="&#x2db;" horiz-adv-x="460" 
d="M334 -305h-64q-87 0 -137.5 38t-50.5 111q0 52 35.5 103t107.5 94q24 16 47 8l29 -10q10 -3 11.5 -13t-9.5 -16q-70 -32 -102.5 -73t-32.5 -78q0 -86 127 -86h39q24 0 24 -25v-29q0 -13 -5 -18.5t-19 -5.5z" />
    <glyph glyph-name="tilde" unicode="&#x2dc;" horiz-adv-x="872" 
d="M301 1339q-38 0 -50.5 -22.5t-12.5 -89.5v-17q0 -22 -27 -22h-33q-13 0 -17.5 6t-4.5 20l2 41q8 168 137 168q56 0 106 -41l95 -75q45 -35 73 -35q38 0 51 22.5t13 87.5v19q0 22 26 22h33q23 0 23 -26l-2 -41q-8 -168 -138 -168q-57 0 -106 41l-94 74q-46 36 -74 36z" />
    <glyph glyph-name="hungarumlaut" unicode="&#x2dd;" horiz-adv-x="729" 
d="M582 1425l-164 -237q-14 -21 -33 -21h-45q-26 0 -12 25l149 233q14 25 39 25h53q13 0 17 -7t-4 -18zM371 1425l-131 -233q-12 -25 -33 -25h-45q-13 0 -16.5 8t1.5 17l119 233q11 25 35 25h53q13 0 18 -7t-1 -18z" />
    <glyph glyph-name="Delta" unicode="&#x394;" horiz-adv-x="763" 
d="M221 848h322q43 0 43 -45v-322q0 -23 -10 -33t-33 -10h-322q-45 0 -45 43v322q0 45 45 45z" />
    <glyph glyph-name="Omega" unicode="&#x3a9;" horiz-adv-x="763" 
d="M139 641q0 98 71 170t169 72q100 0 172 -72t72 -170q0 -100 -72 -171t-172 -71q-98 0 -169 71t-71 171zM174 641q0 -86 59.5 -145.5t145.5 -59.5t146.5 59.5t60.5 145.5q0 85 -60.5 146t-146.5 61t-145.5 -61t-59.5 -146z" />
    <glyph glyph-name="mu" unicode="&#x3bc;" 
d="M788 25l-4 81q-143 -122 -342 -122q-125 0 -182 67l8 -450q0 -27 -24 -27h-60q-22 0 -22 27v1382q0 27 22 27h60q24 0 24 -27v-733q0 -79 49 -124.5t152 -45.5q169 0 315 121v782q0 27 23 27h59q23 0 23 -27v-958q0 -25 -23 -25h-53q-25 0 -25 25z" />
    <glyph glyph-name="pi" unicode="&#x3c0;" horiz-adv-x="763" 
d="M135 874h488q22 0 24.5 -21.5t-10.5 -41.5l-225 -367q-12 -19 -32 -19t-30 19l-227 367q-8 14 -11 28t2.5 24.5t20.5 10.5z" />
    <glyph glyph-name="Wgrave" unicode="&#x1e80;" horiz-adv-x="1619" 
d="M754 1530l-166 244q-16 24 10 24h66q17 0 32 -22l148 -238q7 -12 4 -18.5t-14 -6.5h-52q-17 0 -28 17zM872 1368l265 -1036q7 -27 14.5 -65t11.5 -63l4 -24q17 91 33 152l266 1036q6 25 29 25h53q27 0 21 -25l-342 -1343q-6 -25 -31 -25h-61q-23 0 -29 25l-268 1052
q-16 55 -27 131l-29 -131l-266 -1052q-6 -25 -31 -25h-61q-25 0 -31 25l-340 1343q-6 25 19 25h63q23 0 29 -25l262 -1036l33 -144q18 88 33 144l266 1036q6 25 28 25h58q22 0 28 -25z" />
    <glyph glyph-name="wgrave" unicode="&#x1e81;" horiz-adv-x="1308" 
d="M1268 985l-269 -962q-6 -23 -26 -23h-70q-17 0 -24 23l-201 749q-8 31 -21 94l-24 -96l-211 -747q-7 -23 -27 -23h-67q-20 0 -27 23l-258 962q-3 11 2.5 18t17.5 7h60q20 0 27 -25l204 -762l19 -82l20 82l209 762q7 25 29 25h65q22 0 29 -25l199 -762q16 -74 18 -78
q0 2 21 78l206 762q7 25 27 25h51q12 0 18 -7t3 -18zM604 1182l-166 243q-8 11 -4 18t17 7h65q20 0 33 -20l147 -240q14 -23 -10 -23h-51q-23 0 -31 15z" />
    <glyph glyph-name="Wacute" unicode="&#x1e82;" horiz-adv-x="1619" 
d="M872 1368l265 -1036q22 -87 30 -150q13 80 33 150l266 1036q6 25 29 25h53q27 0 21 -25l-342 -1343q-6 -25 -31 -25h-61q-23 0 -29 25l-268 1052q-16 55 -27 131l-29 -131l-266 -1052q-6 -25 -31 -25h-61q-25 0 -31 25l-340 1343q-6 25 19 25h63q23 0 29 -25l262 -1036
l33 -144q18 88 33 144l266 1036q6 25 28 25h58q22 0 28 -25zM1034 1774l-166 -244q-9 -14 -28 -14h-52q-11 0 -15 6t3 16l150 240q13 20 30 20h66q13 0 16.5 -7t-4.5 -17z" />
    <glyph glyph-name="wacute" unicode="&#x1e83;" horiz-adv-x="1308" 
d="M883 1425l-166 -243q-10 -15 -29 -15h-51q-23 0 -12 23l147 240q13 20 33 20h65q27 0 13 -25zM1268 985l-269 -962q-6 -23 -26 -23h-70q-17 0 -24 23l-201 749q-8 31 -21 94l-24 -96l-211 -747q-7 -23 -27 -23h-67q-20 0 -27 23l-258 962q-3 11 2.5 18t17.5 7h60
q20 0 27 -25l204 -762l19 -82l20 82l209 762q7 25 29 25h65q22 0 29 -25l199 -762q16 -74 18 -78q0 2 21 78l206 762q7 25 27 25h51q12 0 18 -7t3 -18z" />
    <glyph glyph-name="Wdieresis" unicode="&#x1e84;" horiz-adv-x="1619" 
d="M872 1368l265 -1036q22 -87 30 -150q13 80 33 150l266 1036q6 25 29 25h53q27 0 21 -25l-342 -1343q-6 -25 -31 -25h-61q-23 0 -29 25l-268 1052q-16 55 -27 131l-29 -131l-266 -1052q-6 -25 -31 -25h-61q-25 0 -31 25l-340 1343q-6 25 19 25h63q23 0 29 -25l262 -1036
l33 -144q18 88 33 144l266 1036q6 25 28 25h58q22 0 28 -25zM952 1755v-201q0 -24 -22 -24h-37q-25 0 -25 24v201q0 25 25 25h37q22 0 22 -25zM752 1755v-201q0 -24 -23 -24h-37q-24 0 -24 24v201q0 25 24 25h37q23 0 23 -25z" />
    <glyph glyph-name="wdieresis" unicode="&#x1e85;" horiz-adv-x="1308" 
d="M596 1413v-201q0 -24 -25 -24h-36q-25 0 -25 24v201q0 25 25 25h36q25 0 25 -25zM797 1413v-201q0 -24 -25 -24h-37q-24 0 -24 24v201q0 25 24 25h37q25 0 25 -25zM1268 985l-269 -962q-6 -23 -26 -23h-70q-17 0 -24 23l-201 749q-8 31 -21 94l-24 -96l-211 -747
q-7 -23 -27 -23h-67q-20 0 -27 23l-258 962q-3 11 2.5 18t17.5 7h60q20 0 27 -25l204 -762l19 -82l20 82l209 762q7 25 29 25h65q22 0 29 -25l199 -762q16 -74 18 -78q0 2 21 78l206 762q7 25 27 25h51q12 0 18 -7t3 -18z" />
    <glyph glyph-name="Ygrave" unicode="&#x1ef2;" horiz-adv-x="1042" 
d="M162 1368l332 -631q17 -34 28 -67q0 2 31 67l336 631q14 25 31 25h59q32 0 18 -25l-419 -790v-553q0 -25 -25 -25h-61q-23 0 -23 25v540l-422 803q-6 12 -1 18.5t17 6.5h68q19 0 31 -25zM461 1530l-166 244q-16 24 10 24h66q17 0 32 -22l148 -238q7 -12 4 -18.5t-14 -6.5
h-52q-17 0 -28 17z" />
    <glyph glyph-name="ygrave" unicode="&#x1ef3;" horiz-adv-x="862" 
d="M152 985l251 -739q12 -36 29 -105q0 20 29 101l254 743q7 25 28 25h58q25 0 18 -25l-473 -1386q-7 -25 -29 -25h-47q-25 0 -18 25l131 397l-340 989q-7 25 18 25h62q22 0 29 -25zM375 1182l-166 243q-8 11 -4.5 18t16.5 7h66q19 0 32 -20l148 -240q14 -23 -10 -23h-51
q-24 0 -31 15z" />
    <glyph glyph-name="endash" unicode="&#x2013;" horiz-adv-x="1126" 
d="M199 637h729q24 0 24 -23v-43q0 -24 -24 -24h-729q-25 0 -25 24v43q0 23 25 23z" />
    <glyph glyph-name="emdash" unicode="&#x2014;" horiz-adv-x="1757" 
d="M199 637h1362q24 0 24 -23v-43q0 -24 -24 -24h-1362q-25 0 -25 24v43q0 23 25 23z" />
    <glyph glyph-name="quoteleft" unicode="&#x2018;" horiz-adv-x="436" 
d="M262 1241v-121q0 -24 -22 -24h-62q-24 0 -24 24v125q0 177 180 234q23 7 31 -15l16 -43q9 -20 -14 -30q-58 -27 -81.5 -62t-23.5 -88z" />
    <glyph glyph-name="quoteright" unicode="&#x2019;" horiz-adv-x="434" 
d="M172 1333v121q0 25 23 25h61q25 0 25 -25v-125q0 -176 -181 -233q-22 -6 -30 14l-17 43q-9 21 15 31q58 27 81 61.5t23 87.5z" />
    <glyph glyph-name="quotesinglbase" unicode="&#x201a;" horiz-adv-x="434" 
d="M172 61v121q0 25 23 25h61q25 0 25 -25v-125q0 -176 -181 -233q-22 -6 -30 14l-17 43q-9 21 15 31q58 27 81 61.5t23 87.5z" />
    <glyph glyph-name="quotedblleft" unicode="&#x201c;" horiz-adv-x="722" 
d="M551 1241v-121q0 -24 -23 -24h-61q-25 0 -25 24v125q0 177 181 234q22 6 30 -15l17 -43q9 -20 -15 -30q-58 -27 -81 -62t-23 -88zM262 1241v-121q0 -24 -22 -24h-62q-24 0 -24 24v125q0 177 180 234q23 7 31 -15l16 -43q9 -20 -14 -30q-58 -27 -81.5 -62t-23.5 -88z" />
    <glyph glyph-name="quotedblright" unicode="&#x201d;" horiz-adv-x="722" 
d="M461 1333v121q0 25 22 25h62q24 0 24 -25v-125q0 -176 -180 -233q-23 -7 -31 14l-16 43q-9 21 14 31q58 27 81.5 61.5t23.5 87.5zM172 1333v121q0 25 23 25h61q25 0 25 -25v-125q0 -176 -181 -233q-22 -6 -30 14l-17 43q-9 21 15 31q58 27 81 61.5t23 87.5z" />
    <glyph glyph-name="quotedblbase" unicode="&#x201e;" horiz-adv-x="722" 
d="M461 61v121q0 25 22 25h62q24 0 24 -25v-125q0 -176 -180 -233q-23 -7 -31 14l-16 43q-9 21 14 31q58 27 81.5 61.5t23.5 87.5zM172 61v121q0 25 23 25h61q25 0 25 -25v-125q0 -176 -181 -233q-22 -6 -30 14l-17 43q-9 21 15 31q58 27 81 61.5t23 87.5z" />
    <glyph glyph-name="dagger" unicode="&#x2020;" horiz-adv-x="1132" 
d="M621 1407v-1382q0 -25 -25 -25h-59q-23 0 -23 25v1382q0 25 23 25h59q25 0 25 -25zM221 1020h228q24 0 24 -25v-43q0 -24 -24 -24h-228q-24 0 -24 24v43q0 25 24 25zM684 1020h227q25 0 25 -25v-43q0 -24 -25 -24h-227q-25 0 -25 24v43q0 25 25 25z" />
    <glyph glyph-name="daggerdbl" unicode="&#x2021;" horiz-adv-x="1132" 
d="M621 1407v-1382q0 -25 -25 -25h-59q-23 0 -23 25v1382q0 25 23 25h59q25 0 25 -25zM221 1020h228q24 0 24 -25v-43q0 -24 -24 -24h-228q-24 0 -24 24v43q0 25 24 25zM684 1020h227q25 0 25 -25v-43q0 -24 -25 -24h-227q-25 0 -25 24v43q0 25 25 25zM221 504h228
q24 0 24 -23v-43q0 -26 -24 -26h-228q-24 0 -24 26v43q0 23 24 23zM684 504h227q25 0 25 -23v-43q0 -26 -25 -26h-227q-25 0 -25 26v43q0 23 25 23z" />
    <glyph glyph-name="bullet" unicode="&#x2022;" horiz-adv-x="501" 
d="M305 659v-256q0 -22 -22 -22h-62q-24 0 -24 22v256q0 25 24 25h62q22 0 22 -25z" />
    <glyph glyph-name="ellipsis" unicode="&#x2026;" horiz-adv-x="1449" 
d="M272 182v-157q0 -25 -24 -25h-60q-24 0 -24 25v157q0 25 24 25h60q24 0 24 -25zM1286 182v-157q0 -25 -24 -25h-60q-24 0 -24 25v157q0 25 24 25h60q24 0 24 -25zM780 182v-157q0 -25 -24 -25h-60q-24 0 -24 25v157q0 25 24 25h60q24 0 24 -25z" />
    <glyph glyph-name="perthousand" unicode="&#x2030;" horiz-adv-x="2181" 
d="M178 993v228q0 89 61.5 136.5t204.5 47.5q142 0 203.5 -47.5t61.5 -136.5v-228q0 -89 -61.5 -137.5t-203.5 -48.5q-143 0 -204.5 48.5t-61.5 137.5zM616 995v224q0 112 -172 112q-174 0 -174 -112v-224q0 -54 39.5 -82t134.5 -28q94 0 133 28t39 82zM1268 170v223
q0 111 -174 111t-174 -111v-223q0 -113 174 -113t174 113zM829 168v227q0 187 265 187q143 0 204.5 -49t61.5 -138v-227q0 -89 -61.5 -136.5t-204.5 -47.5q-142 0 -203.5 47.5t-61.5 136.5zM1911 170v223q0 111 -172 111q-176 0 -176 -111v-223q0 -54 40.5 -83.5
t135.5 -29.5q93 0 132.5 29t39.5 84zM1473 168v227q0 89 61.5 138t204.5 49q142 0 203 -49t61 -138v-227q0 -89 -61 -136.5t-203 -47.5q-143 0 -204.5 47.5t-61.5 136.5zM1118 1368l-610 -1343q-11 -25 -35 -25h-53q-10 0 -12 9t2 16l612 1343q11 25 33 25h51q10 0 13.5 -8
t-1.5 -17z" />
    <glyph glyph-name="guilsinglleft" unicode="&#x2039;" horiz-adv-x="780" 
d="M580 737l-316 -235l316 -234q24 -20 24 -39v-63q0 -13 -8 -16t-16 4l-381 286q-23 15 -23 33v57q0 18 23 33l381 289q8 6 16 3t8 -15v-68q0 -15 -24 -35z" />
    <glyph glyph-name="guilsinglright" unicode="&#x203a;" horiz-adv-x="780" 
d="M516 502l-315 235q-25 21 -25 35v68q0 12 9 15t16 -3l381 -289q22 -15 22 -33v-57q0 -18 -22 -33l-381 -286q-7 -7 -16 -4t-9 16v63q0 18 25 39z" />
    <glyph glyph-name="fraction" unicode="&#x2044;" horiz-adv-x="890" 
d="M799 1368l-611 -1343q-11 -25 -34 -25h-54q-10 0 -12 9t2 16l612 1343q11 25 33 25h51q10 0 14 -8t-1 -17z" />
    <glyph glyph-name="Euro" unicode="&#x20ac;" horiz-adv-x="1323" 
d="M203 612h104v170h-104q-25 0 -25 25v27q0 22 25 22h104v264q0 64 19.5 113.5t65 90.5t129.5 63t204 22t204 -22t129.5 -63t65 -90.5t19.5 -113.5v-106q0 -27 -23 -27h-59q-25 0 -25 27v90q0 49 -15 86t-50 66t-96.5 44t-149.5 15q-170 0 -239.5 -54.5t-69.5 -156.5v-248
h350q25 0 25 -22v-27q0 -25 -25 -25h-350v-170h350q25 0 25 -24v-27q0 -22 -25 -22h-350v-250q0 -102 69.5 -156.5t239.5 -54.5q88 0 149.5 15t96.5 44t50 66t15 86v117q0 22 25 22h59q23 0 23 -22v-134q0 -64 -19.5 -113t-65 -90t-129.5 -63t-204 -22t-204 22t-129.5 63
t-65 90t-19.5 113v267h-104q-25 0 -25 22v27q0 24 25 24z" />
    <glyph glyph-name="afii61289" unicode="&#x2113;" horiz-adv-x="1048" 
d="M295 250v242q-56 -28 -114.5 -54t-88.5 -38l-31 -11q-23 -10 -32 10l-19 45q-10 24 10 33q2 0 41.5 15t107.5 46t126 62v508q0 64 15 114t49 90.5t96.5 62.5t150.5 22q86 0 146.5 -22t93 -62.5t47 -90.5t14.5 -114q0 -72 -30.5 -142.5t-78 -127t-116.5 -112.5
t-135.5 -97.5t-145.5 -83.5v-275q0 -86 57.5 -133t198.5 -47h189q24 0 24 -24v-41q0 -25 -24 -25h-191q-196 0 -278 66t-82 184zM401 1098v-445q406 226 406 449q0 99 -44.5 152t-158.5 53t-158.5 -53.5t-44.5 -155.5z" />
    <glyph glyph-name="trademark" unicode="&#x2122;" horiz-adv-x="1816" 
d="M1620 1372v-794q0 -21 -21 -21h-51q-20 0 -20 21v632q-1 -2 -4 -10.5t-7.5 -21t-7.5 -21.5l-206 -452q-11 -21 -27 -21h-41q-17 0 -27 21l-211 456q-3 4 -18 51v-634q0 -21 -18 -21h-50q-18 0 -18 21v794q0 21 18 21h50q13 0 18 -11l256 -542l20 -56q0 7 21 54l254 544
q4 11 18 11h51q21 0 21 -21zM217 1393h555q21 0 21 -19v-41q0 -18 -21 -18h-231v-737q0 -21 -19 -21h-55q-21 0 -21 21v737h-229q-20 0 -20 18v41q0 19 20 19z" />
    <glyph glyph-name="uni2126" unicode="&#x2126;" horiz-adv-x="763" 
d="M139 641q0 98 71 170t169 72q100 0 172 -72t72 -170q0 -100 -72 -171t-172 -71q-98 0 -169 71t-71 171zM174 641q0 -86 59.5 -146.5t145.5 -60.5t146.5 60.5t60.5 146.5q0 85 -60.5 145t-146.5 60t-145.5 -60t-59.5 -145z" />
    <glyph glyph-name="estimated" unicode="&#x212e;" horiz-adv-x="1705" 
d="M1542 696q0 -32 -33 -32h-1202v-369q89 -124 225.5 -196t298.5 -72q161 0 283 60.5t223 170.5q10 10 19 10q6 0 12 -5.5t6 -12.5q0 -14 -14 -31q-93 -109 -233.5 -172t-295.5 -63q-145 0 -276.5 55.5t-227 150t-152 226.5t-56.5 280q0 193 95.5 357.5t259.5 260t357 95.5
q143 0 274 -56.5t227 -152t153 -227.5t57 -277zM831 1364q-160 0 -297 -72t-227 -196v-391h1051v385q-92 125 -230.5 199.5t-296.5 74.5z" />
    <glyph glyph-name="partialdiff" unicode="&#x2202;" horiz-adv-x="763" 
d="M178 403v486q0 22 22 25.5t42 -9.5l366 -227q19 -12 19 -32t-19 -30l-366 -227q-20 -14 -42 -11.5t-22 25.5z" />
    <glyph glyph-name="uni2206" unicode="&#x2206;" horiz-adv-x="763" 
d="M221 846h322q23 0 33 -10t10 -33v-322q0 -45 -43 -45h-322q-45 0 -45 45v322q0 43 45 43z" />
    <glyph glyph-name="product" unicode="&#x220f;" horiz-adv-x="763" 
d="M627 420h-488q-22 0 -24.5 20.5t10.5 40.5l225 369q11 18 31 18t31 -18l227 -369q8 -14 11 -27.5t-2.5 -23.5t-20.5 -10z" />
    <glyph glyph-name="summation" unicode="&#x2211;" horiz-adv-x="763" 
d="M584 889v-486q0 -23 -21 -25.5t-41 11.5l-366 227q-19 10 -19 30t19 32l366 227q20 13 41 9.5t21 -25.5z" />
    <glyph glyph-name="minus" unicode="&#x2212;" horiz-adv-x="1208" 
d="M199 733h811q24 0 24 -24v-43q0 -25 -24 -25h-811q-25 0 -25 25v43q0 24 25 24z" />
    <glyph glyph-name="radical" unicode="&#x221a;" horiz-adv-x="763" 
d="M221 864h322q33 0 47 -14t14 -47v-322q0 -32 -14.5 -46.5t-46.5 -14.5h-322q-33 0 -47 14t-14 47v322q0 34 13.5 47.5t47.5 13.5zM543 829h-322q-26 0 -26 -26v-322q0 -26 26 -26h322q26 0 26 26v322q0 26 -26 26z" />
    <glyph glyph-name="infinity" unicode="&#x221e;" horiz-adv-x="763" 
d="M111 686l227 227q26 23 43 23q19 0 45 -23l227 -227q21 -24 21 -43q0 -21 -21 -45l-227 -227q-26 -23 -45 -23q-17 0 -43 23l-227 227q-25 29 -25 45q0 14 25 43zM365 889l-230 -230q-8 -8 -8 -18q0 -11 8 -16l230 -230q5 -8 16 -8q10 0 18 8l230 230q8 8 8 16q0 6 -8 18
l-230 230q-12 8 -18 8q-8 0 -16 -8z" />
    <glyph glyph-name="integral" unicode="&#x222b;" horiz-adv-x="763" 
d="M63 641q0 132 92 226t224 94q133 0 227 -94t94 -226q0 -133 -93.5 -225t-227.5 -92q-132 0 -224 92t-92 225z" />
    <glyph glyph-name="approxequal" unicode="&#x2248;" horiz-adv-x="985" 
d="M319 834q-38 0 -51.5 -22.5t-13.5 -86.5v-20q0 -23 -27 -23h-32q-21 0 -21 29l2 43q8 174 135 174q37 0 101 -33l172 -94q60 -29 84 -29q38 0 50.5 24t12.5 87v18q0 23 27 23h33q20 0 20 -27l-2 -45q-8 -174 -131 -174q-46 0 -111 35l-174 96q-45 25 -74 25zM319 524
q-38 0 -51.5 -22t-13.5 -86v-21q0 -22 -27 -22h-32q-21 0 -21 28l2 43q8 174 135 174q39 0 101 -32l172 -94q60 -29 84 -29q38 0 50.5 23.5t12.5 86.5v19q0 22 27 22h33q20 0 20 -26l-2 -45q-8 -174 -131 -174q-48 0 -111 34l-174 97q-43 24 -74 24z" />
    <glyph glyph-name="notequal" unicode="&#x2260;" horiz-adv-x="1208" 
d="M199 905h438l59 148q9 24 31 24h55q26 0 17 -24l-60 -148h271q24 0 24 -24v-43q0 -25 -24 -25h-305l-103 -258h408q24 0 24 -25v-43q0 -24 -24 -24h-443l-57 -148q-9 -24 -33 -24h-55q-11 0 -14.5 6.5t0.5 17.5l57 148h-266q-25 0 -25 24v43q0 25 25 25h301l102 258h-403
q-25 0 -25 25v43q0 24 25 24z" />
    <glyph glyph-name="lessequal" unicode="&#x2264;" horiz-adv-x="1114" 
d="M915 1063l-634 -242l634 -239q25 -9 25 -29v-59q0 -28 -25 -19l-718 287q-23 10 -23 29v63q0 19 23 29l718 286q10 4 17.5 -1t7.5 -17v-59q0 -20 -25 -29zM199 342h716q25 0 25 -23v-43q0 -22 -25 -22h-716q-25 0 -25 22v43q0 23 25 23z" />
    <glyph glyph-name="greaterequal" unicode="&#x2265;" horiz-adv-x="1112" 
d="M834 821l-635 242q-25 9 -25 29v59q0 29 25 20l719 -286q22 -9 22 -29v-68q0 -17 -22 -26l-719 -289q-25 -9 -25 21v61q0 18 25 27zM199 344h714q25 0 25 -25v-45q0 -22 -25 -22h-714q-25 0 -25 22v45q0 25 25 25z" />
    <glyph glyph-name="lozenge" unicode="&#x25ca;" horiz-adv-x="763" 
d="M123 674l227 227q17 14 31 14q17 0 31 -14l227 -227q16 -16 16 -31q0 -18 -16 -31l-227 -227q-15 -18 -31 -18q-13 0 -31 18l-227 227q-17 17 -17 31q0 11 17 31z" />
    <glyph glyph-name="CR" horiz-adv-x="0" 
 />
    <glyph glyph-name="commaaccent" horiz-adv-x="540" 
d="M217 127v55q0 25 25 25h45q24 0 24 -25v-59q0 -110 -75 -234q-11 -18 -33 -12l-35 10q-22 6 -10 33q6 14 19.5 42t17.5 38.5t11 32.5t9 43.5t2 50.5z" />
    <glyph glyph-name="acute.case" horiz-adv-x="477" 
d="M432 1774l-166 -244q-9 -14 -28 -14h-52q-11 0 -15 6t3 16l150 240q13 20 30 20h66q13 0 16.5 -7t-4.5 -17z" />
    <glyph glyph-name="macron.case" horiz-adv-x="477" 
d="M-25 1679h527q24 0 24 -22v-37q0 -25 -24 -25h-527q-24 0 -24 25v37q0 22 24 22z" />
    <glyph glyph-name="breve.case" horiz-adv-x="477" 
d="M88 1778v-35q0 -74 31 -113t119 -39q89 0 120 39t31 113v35q0 12 5 17t18 5h37q22 0 22 -22v-33q0 -109 -53 -166t-182 -57q-128 0 -179 57t-51 166v33q0 22 23 22h37q22 0 22 -22z" />
    <glyph glyph-name="caron.case" horiz-adv-x="477" 
d="M115 1774l123 -189l124 189q17 24 33 24h49q12 0 16 -7t-3 -17l-162 -236q-15 -22 -37 -22h-41q-20 0 -37 24l-160 234q-7 10 -3 17t16 7h47q21 0 35 -24z" />
    <glyph glyph-name="ring.case" horiz-adv-x="477" 
d="M426 1661v-31q0 -67 -46 -108t-142 -41t-141.5 40.5t-45.5 108.5v31q0 68 45.5 108.5t141.5 40.5t142 -41t46 -108zM356 1638v15q0 43 -28.5 69.5t-89.5 26.5t-89 -26.5t-28 -69.5v-15q0 -43 28 -69.5t89 -26.5t89.5 26.5t28.5 69.5z" />
    <glyph glyph-name="circumflex.case" horiz-adv-x="477" 
d="M238 1729l-123 -189q-14 -24 -35 -24h-47q-12 0 -16 7t3 17l160 234q17 24 37 24h41q22 0 37 -22l162 -236q7 -10 3 -17t-16 -7h-49q-16 0 -33 24z" />
    <glyph glyph-name="tilde.case" horiz-adv-x="477" 
d="M104 1696q-39 0 -51 -22t-12 -89v-18q0 -23 -27 -23h-34q-21 0 -21 29l2 41q8 166 137 166q59 0 107 -39l94 -76q45 -35 74 -35q38 0 50.5 22.5t12.5 88.5v18q0 23 27 23h33q22 0 22 -27l-2 -41q-8 -168 -139 -168q-55 0 -107 41l-92 74q-49 35 -74 35z" />
    <glyph glyph-name="dieresis.case" horiz-adv-x="477" 
d="M180 1755v-201q0 -24 -22 -24h-37q-25 0 -25 24v201q0 25 25 25h37q22 0 22 -25zM381 1755v-201q0 -24 -23 -24h-36q-25 0 -25 24v201q0 25 25 25h36q23 0 23 -25z" />
    <glyph glyph-name="dotaccent.case" horiz-adv-x="477" 
d="M293 1716v-157q0 -25 -25 -25h-59q-25 0 -25 25v157q0 25 25 25h59q25 0 25 -25z" />
    <glyph glyph-name="grave.case" horiz-adv-x="477" 
d="M279 1530l-166 244q-16 24 10 24h65q18 0 33 -22l148 -238q7 -12 3.5 -18.5t-14.5 -6.5h-51q-17 0 -28 17z" />
    <glyph glyph-name="hungarumlaut.case" horiz-adv-x="477" 
d="M455 1774l-162 -238q-13 -20 -35 -20h-45q-12 0 -15 7t3 17l149 234q14 24 39 24h53q13 0 17 -7t-4 -17zM246 1774l-133 -234q-12 -24 -33 -24h-45q-12 0 -16 7.5t1 16.5l121 234q12 24 33 24h55q13 0 18 -7.5t-1 -16.5z" />
    <glyph glyph-name="apple" horiz-adv-x="3049" 
d="M1464 655q35 0 58.5 -27.5t23.5 -76.5q0 -64 -43.5 -101.5t-134.5 -37.5v-82l6 -66q-48 -16 -65 -16q-23 0 -23 16v154l-51 -6v-6q0 -31 -6.5 -58t-21 -51.5t-43 -38.5t-68.5 -14q-43 0 -63.5 21t-20.5 48q0 75 143 109v86q-34 -98 -94 -98q-57 0 -57 63v6
q-37 -67 -109 -67q-28 0 -43.5 16.5t-15.5 44.5v207l-60 -4v8q0 41 25 41h35l-7 61q51 17 66 17q23 0 23 -17v-59h96v-6q0 -43 -25 -43h-71v-176q0 -33 26 -33q19 0 39.5 15.5t20.5 37.5v51l-7 68q48 16 66 16q22 0 22 -18v-135q0 -31 15 -31t34 35t19 63l-4 70q48 16 63 16
q23 0 23 -18v-203l51 6v125l-6 74q48 16 66 16q22 0 22 -18v-82q34 98 96 98zM786 592v-100l7 -66q-48 -16 -64 -16q-22 0 -22 16v135q0 33 -17 33q-14 0 -33.5 -35.5t-19.5 -62.5l4 -70q-48 -16 -63 -16q-23 0 -23 16v135q0 33 -16 33q-14 0 -34 -35.5t-20 -62.5l7 -70
q-48 -16 -66 -16q-23 0 -23 16v141l-6 74q48 16 66 16q22 0 22 -18v-82q9 33 33.5 66.5t59.5 33.5q59 0 59 -65v-35q9 34 32.5 67t59.5 33q57 0 57 -65zM2492 680l-59 -4v8q0 41 25 41h34l-6 61q51 17 66 17q22 0 22 -17v-59h97v-6q0 -43 -25 -43h-72v-184q0 -31 33 -31
q22 0 78.5 11t95.5 11q36 0 81.5 -12t45.5 -37q0 -29 -19 -43t-36 -14q-4 0 -54.5 24.5t-91.5 24.5q-14 0 -65 -8t-90 -8q-40 0 -48.5 25.5t-9.5 136.5q-1 65 -2 106zM150 1083v17h2740v-17h-2740zM150 0v16h2740v-16h-2740zM2202 592v-100l4 -66q-48 -16 -64 -16
q-22 0 -22 16v137q0 31 -17 31q-14 0 -33.5 -35.5t-19.5 -62.5l6 -70q-48 -16 -65 -16q-23 0 -23 16v141l-6 74q48 16 66 16q22 0 22 -18v-82q34 100 92 100q60 0 60 -65zM315 528q-33 -12 -90 -12q1 -21 16.5 -33t37.5 -12q35 0 65 18q16 -11 16 -32q0 -8 -5.5 -17
t-29 -19.5t-61.5 -10.5q-57 0 -90 30t-33 78q0 56 38 97.5t104 41.5q40 0 62 -19.5t22 -43.5q0 -49 -52 -66zM1747 528q-33 -12 -90 -12q1 -21 16 -33t37 -12q36 0 66 18q16 -11 16 -32q0 -8 -5.5 -17t-29 -19.5t-61.5 -10.5q-57 0 -90 30t-33 78q0 56 38 97.5t103 41.5
q40 0 62 -19.5t22 -43.5q0 -49 -51 -66zM2408 528q-33 -12 -90 -12q1 -21 16.5 -33t37.5 -12q35 0 65 18q17 -11 17 -32q0 -8 -6 -17t-29.5 -19.5t-61.5 -10.5q-57 0 -90 30t-33 78q0 56 38 97.5t104 41.5q40 0 62 -19.5t22 -43.5q0 -49 -52 -66zM1368 449q92 12 92 104
q0 41 -26 41t-46 -38t-20 -60v-47zM1880 512q22 0 37.5 -14t15.5 -35q0 -20 -15.5 -33.5t-37.5 -13.5t-36.5 13.5t-14.5 33.5q0 22 14.5 35.5t36.5 13.5zM1153 397q-84 -19 -84 -65q0 -14 8.5 -21.5t20.5 -7.5q50 0 55 94zM223 541q31 0 53.5 10.5t22.5 32.5q0 26 -27 26
q-20 0 -33 -20.5t-16 -48.5zM2316 541q31 0 53.5 10.5t22.5 32.5q0 26 -27 26q-20 0 -33 -20.5t-16 -48.5zM1655 541q31 0 53.5 10.5t22.5 32.5q0 26 -27 26q-20 0 -33 -20.5t-16 -48.5z" />
    </font>
</defs>
</svg>
